999
dxflib 3.7.5.0
  0
SECTION
  2
HEADER
  9
$ACADVER
  1
AC1015
  9
$HANDSEED
  5
FFFF
  9
$DIMADEC
 70
0
  9
$DIMASZ
 40
2.5
  9
$DIMAUNIT
 70
0
  9
$DIMAZIN
 70
2
  9
$DIMDEC
 70
4
  9
$DIMEXE
 40
1.25
  9
$DIMEXO
 40
0.625
  9
$DIMGAP
 40
0.625
  9
$DIMLUNIT
 70
2
  9
$DIMSCALE
 40
1.0
  9
$DIMTSZ
 40
0.0
  9
$DIMTXT
 40
2.5
  9
$DIMZIN
 70
8
  9
$DWGCODEPAGE
  3
ANSI_1252
  9
$INSUNITS
 70
4
  0
ENDSEC
  0
SECTION
  2
TABLES
  0
TABLE
  2
VPORT
  5
8
100
AcDbSymbolTable
 70
1
  0
VPORT
  5
30
100
AcDbSymbolTableRecord
100
AcDbViewportTableRecord
  2
*Active
 70
0
 10
0.0
 20
0.0
 11
1.0
 21
1.0
 12
286.3055555555554861
 22
148.5
 13
0.0
 23
0.0
 14
10.0
 24
10.0
 15
10.0
 25
10.0
 16
0.0
 26
0.0
 36
1.0
 17
0.0
 27
0.0
 37
0.0
 40
297.0
 41
1.92798353909465
 42
50.0
 43
0.0
 44
0.0
 50
0.0
 51
0.0
 71
0
 72
100
 73
1
 74
3
 75
1
 76
1
 77
0
 78
0
281
0
 65
1
110
0.0
120
0.0
130
0.0
111
1.0
121
0.0
131
0.0
112
0.0
122
1.0
132
0.0
 79
0
146
0.0
  0
ENDTAB
  0
TABLE
  2
LTYPE
  5
5
100
AcDbSymbolTable
 70
3
  0
LTYPE
  5
16
100
AcDbSymbolTableRecord
100
AcDbLinetypeTableRecord
  2
Continuous
 70
0
  3
Solid line
 72
65
 73
0
 40
0.0
  0
LTYPE
  5
15
100
AcDbSymbolTableRecord
100
AcDbLinetypeTableRecord
  2
BYLAYER
 70
0
  3

 72
65
 73
0
 40
0.0
  0
LTYPE
  5
14
100
AcDbSymbolTableRecord
100
AcDbLinetypeTableRecord
  2
BYBLOCK
 70
0
  3

 72
65
 73
0
 40
0.0
  0
ENDTAB
  0
TABLE
  2
LAYER
  5
2
100
AcDbSymbolTable
 70
16
  0
LAYER
  5
31
100
AcDbSymbolTableRecord
100
AcDbLayerTableRecord
  2
profile
 70
0
 62
4
420
65535
  6
Continuous
370
25
390
F
  0
LAYER
  5
32
100
AcDbSymbolTableRecord
100
AcDbLayerTableRecord
  2
poche_profile_1
 70
0
 62
7
420
0
  6
Continuous
370
25
390
F
  0
LAYER
  5
33
100
AcDbSymbolTableRecord
100
AcDbLayerTableRecord
  2
decoupe_2
 70
0
 62
7
420
0
  6
Continuous
370
25
390
F
  0
LAYER
  5
34
100
AcDbSymbolTableRecord
100
AcDbLayerTableRecord
  2
construction
 70
0
 62
1
420
16711680
  6
Continuous
370
25
390
F
  0
LAYER
  5
35
100
AcDbSymbolTableRecord
100
AcDbLayerTableRecord
  2
poche_profile_2
 70
0
 62
7
420
0
  6
Continuous
370
25
390
F
  0
LAYER
  5
36
100
AcDbSymbolTableRecord
100
AcDbLayerTableRecord
  2
poche_profile_3
 70
0
 62
7
420
0
  6
Continuous
370
25
390
F
  0
LAYER
  5
37
100
AcDbSymbolTableRecord
100
AcDbLayerTableRecord
  2
poche_profile_4
 70
0
 62
7
420
0
  6
Continuous
370
25
390
F
  0
LAYER
  5
38
100
AcDbSymbolTableRecord
100
AcDbLayerTableRecord
  2
poche_angle
 70
0
 62
7
420
0
  6
Continuous
370
25
390
F
  0
LAYER
  5
39
100
AcDbSymbolTableRecord
100
AcDbLayerTableRecord
  2
poche_profile_5
 70
0
 62
7
420
0
  6
Continuous
370
25
390
F
  0
LAYER
  5
3A
100
AcDbSymbolTableRecord
100
AcDbLayerTableRecord
  2
plexi
 70
0
 62
2
420
16776960
  6
Continuous
370
25
390
F
  0
LAYER
  5
3B
100
AcDbSymbolTableRecord
100
AcDbLayerTableRecord
  2
decoupe_support_aspi
 70
0
 62
7
420
0
  6
Continuous
370
25
390
F
  0
LAYER
  5
3C
100
AcDbSymbolTableRecord
100
AcDbLayerTableRecord
  2
rainure_angle_1
 70
0
 62
7
420
0
  6
Continuous
370
25
390
F
  0
LAYER
  5
3D
100
AcDbSymbolTableRecord
100
AcDbLayerTableRecord
  2
rainure_angle_2
 70
0
 62
7
420
0
  6
Continuous
370
25
390
F
  0
LAYER
  5
3E
100
AcDbSymbolTableRecord
100
AcDbLayerTableRecord
  2
ext
 70
0
 62
7
420
0
  6
Continuous
370
25
390
F
  0
LAYER
  5
10
100
AcDbSymbolTableRecord
100
AcDbLayerTableRecord
  2
0
 70
0
 62
7
420
16777215
  6
Continuous
370
25
390
F
  0
LAYER
  5
3F
100
AcDbSymbolTableRecord
100
AcDbLayerTableRecord
  2
decoupe_1
 70
0
 62
7
420
0
  6
Continuous
370
25
390
F
  0
ENDTAB
  0
TABLE
  2
STYLE
  5
3
100
AcDbSymbolTable
 70
1
  0
STYLE
  5
40
100
AcDbSymbolTableRecord
100
AcDbTextStyleTableRecord
  2
Standard
 70
0
 40
0.0
 41
1.0
 50
0.0
 71
0
 42
2.5
  3

  4

1001
ACAD
1000
txt
1071
0
  0
ENDTAB
  0
TABLE
  2
VIEW
  5
6
100
AcDbSymbolTable
 70
0
  0
ENDTAB
  0
TABLE
  2
UCS
  5
7
100
AcDbSymbolTable
 70
0
  0
ENDTAB
  0
TABLE
  2
APPID
  5
9
100
AcDbSymbolTable
 70
1
  0
APPID
  5
12
100
AcDbSymbolTableRecord
100
AcDbRegAppTableRecord
  2
ACAD
 70
0
  0
APPID
  5
41
100
AcDbSymbolTableRecord
100
AcDbRegAppTableRecord
  2
QCAD
 70
0
  0
ENDTAB
  0
TABLE
  2
DIMSTYLE
  5
A
100
AcDbSymbolTable
 70
1
100
AcDbDimStyleTable
 71
0
  0
DIMSTYLE
105
27
100
AcDbSymbolTableRecord
100
AcDbDimStyleTableRecord
  2
Standard
 41
2.5
 42
0.625
 43
3.75
 44
1.25
 70
0
 73
0
 74
0
 77
1
 78
8
140
2.5
141
2.5
143
0.03937007874016
147
0.625
171
3
172
1
271
2
272
2
274
3
278
44
283
0
284
8
340
40
  0
ENDTAB
  0
TABLE
  2
BLOCK_RECORD
  5
1
100
AcDbSymbolTable
 70
1
  0
BLOCK_RECORD
  5
1F
100
AcDbSymbolTableRecord
100
AcDbBlockTableRecord
  2
*Model_Space
340
22
  0
BLOCK_RECORD
  5
1B
100
AcDbSymbolTableRecord
100
AcDbBlockTableRecord
  2
*Paper_Space
340
1E
  0
BLOCK_RECORD
  5
23
100
AcDbSymbolTableRecord
100
AcDbBlockTableRecord
  2
*Paper_Space0
340
26
  0
ENDTAB
  0
ENDSEC
  0
SECTION
  2
BLOCKS
  0
BLOCK
  5
20
100
AcDbEntity
  8
0
100
AcDbBlockBegin
  2
*Model_Space
 70
0
 10
0.0
 20
0.0
 30
0.0
  3
*Model_Space
  1

  0
ENDBLK
  5
21
100
AcDbEntity
  8
0
100
AcDbBlockEnd
  0
BLOCK
  5
1C
100
AcDbEntity
 67
1
  8
0
100
AcDbBlockBegin
  2
*Paper_Space
 70
0
 10
0.0
 20
0.0
 30
0.0
  3
*Paper_Space
  1

  0
ENDBLK
  5
1D
100
AcDbEntity
 67
1
  8
0
100
AcDbBlockEnd
  0
BLOCK
  5
24
100
AcDbEntity
  8
0
100
AcDbBlockBegin
  2
*Paper_Space0
 70
0
 10
0.0
 20
0.0
 30
0.0
  3
*Paper_Space0
  1

  0
ENDBLK
  5
25
100
AcDbEntity
  8
0
100
AcDbBlockEnd
  0
ENDSEC
  0
SECTION
  2
ENTITIES
  0
LINE
  5
42
100
AcDbEntity
100
AcDbLine
  8
0
 62
256
370
-1
 48
1.0
  6
BYLAYER
 10
205.7809719999999913
 20
0.0
 30
0.0
 11
278.7809720000000198
 21
0.0
 31
0.0
  0
LINE
  5
43
100
AcDbEntity
100
AcDbLine
  8
0
 62
256
370
-1
 48
1.0
  6
BYLAYER
 10
278.7809720000000198
 20
0.0
 30
0.0
 11
278.7809720000000198
 21
40.0
 31
0.0
  0
LINE
  5
44
100
AcDbEntity
100
AcDbLine
  8
0
 62
256
370
-1
 48
1.0
  6
BYLAYER
 10
278.7809720000000198
 20
40.0
 30
0.0
 11
205.7809719999999913
 21
40.0
 31
0.0
  0
LINE
  5
45
100
AcDbEntity
100
AcDbLine
  8
0
 62
256
370
-1
 48
1.0
  6
BYLAYER
 10
205.7809719999999913
 20
40.0
 30
0.0
 11
205.7809719999999913
 21
0.0
 31
0.0
  0
LINE
  5
46
100
AcDbEntity
100
AcDbLine
  8
0
 62
256
370
-1
 48
1.0
  6
BYLAYER
 10
145.2809719999999913
 20
0.0
 30
0.0
 11
205.7809719999999913
 21
0.0
 31
0.0
  0
LINE
  5
47
100
AcDbEntity
100
AcDbLine
  8
0
 62
256
370
-1
 48
1.0
  6
BYLAYER
 10
205.7809719999999913
 20
0.0
 30
0.0
 11
205.7809719999999913
 21
40.0
 31
0.0
  0
LINE
  5
48
100
AcDbEntity
100
AcDbLine
  8
0
 62
256
370
-1
 48
1.0
  6
BYLAYER
 10
205.7809719999999913
 20
40.0
 30
0.0
 11
145.2809719999999913
 21
40.0
 31
0.0
  0
LINE
  5
49
100
AcDbEntity
100
AcDbLine
  8
0
 62
256
370
-1
 48
1.0
  6
BYLAYER
 10
145.2809719999999913
 20
40.0
 30
0.0
 11
145.2809719999999913
 21
0.0
 31
0.0
  0
LINE
  5
4A
100
AcDbEntity
100
AcDbLine
  8
0
 62
256
370
-1
 48
1.0
  6
BYLAYER
 10
133.5
 20
0.0
 30
0.0
 11
145.2809719999999913
 21
0.0
 31
0.0
  0
LINE
  5
4B
100
AcDbEntity
100
AcDbLine
  8
0
 62
256
370
-1
 48
1.0
  6
BYLAYER
 10
145.2809719999999913
 20
0.0
 30
0.0
 11
145.2809719999999913
 21
40.0
 31
0.0
  0
LINE
  5
4C
100
AcDbEntity
100
AcDbLine
  8
0
 62
256
370
-1
 48
1.0
  6
BYLAYER
 10
145.2809719999999913
 20
40.0
 30
0.0
 11
133.5
 21
40.0
 31
0.0
  0
LINE
  5
4D
100
AcDbEntity
100
AcDbLine
  8
0
 62
256
370
-1
 48
1.0
  6
BYLAYER
 10
133.5
 20
40.0
 30
0.0
 11
133.5
 21
0.0
 31
0.0
  0
LINE
  5
4E
100
AcDbEntity
100
AcDbLine
  8
0
 62
256
370
-1
 48
1.0
  6
BYLAYER
 10
67.9999999999999716
 20
0.0
 30
0.0
 11
133.5
 21
0.0
 31
0.0
  0
LINE
  5
4F
100
AcDbEntity
100
AcDbLine
  8
0
 62
256
370
-1
 48
1.0
  6
BYLAYER
 10
133.5
 20
0.0
 30
0.0
 11
133.5
 21
40.0
 31
0.0
  0
LINE
  5
50
100
AcDbEntity
100
AcDbLine
  8
0
 62
256
370
-1
 48
1.0
  6
BYLAYER
 10
133.5
 20
40.0
 30
0.0
 11
67.9999999999999716
 21
40.0
 31
0.0
  0
LINE
  5
51
100
AcDbEntity
100
AcDbLine
  8
0
 62
256
370
-1
 48
1.0
  6
BYLAYER
 10
67.9999999999999716
 20
40.0
 30
0.0
 11
67.9999999999999716
 21
0.0
 31
0.0
  0
LINE
  5
52
100
AcDbEntity
100
AcDbLine
  8
0
 62
256
370
-1
 48
1.0
  6
BYLAYER
 10
-0.0000000000000284
 20
0.0
 30
0.0
 11
67.9999999999999716
 21
0.0
 31
0.0
  0
LINE
  5
53
100
AcDbEntity
100
AcDbLine
  8
0
 62
256
370
-1
 48
1.0
  6
BYLAYER
 10
67.9999999999999716
 20
0.0
 30
0.0
 11
67.9999999999999716
 21
40.0
 31
0.0
  0
LINE
  5
54
100
AcDbEntity
100
AcDbLine
  8
0
 62
256
370
-1
 48
1.0
  6
BYLAYER
 10
67.9999999999999716
 20
40.0
 30
0.0
 11
-0.0000000000000284
 21
40.0
 31
0.0
  0
LINE
  5
55
100
AcDbEntity
100
AcDbLine
  8
0
 62
256
370
-1
 48
1.0
  6
BYLAYER
 10
-0.0000000000000284
 20
40.0
 30
0.0
 11
-0.0000000000000284
 21
0.0
 31
0.0
  0
LINE
  5
56
100
AcDbEntity
100
AcDbLine
  8
ext
 62
256
370
-1
 48
1.0
  6
BYLAYER
 10
-0.0000000000000284
 20
40.0
 30
0.0
 11
278.7809720000000766
 21
40.0
 31
0.0
  0
LINE
  5
57
100
AcDbEntity
100
AcDbLine
  8
ext
 62
256
370
-1
 48
1.0
  6
BYLAYER
 10
278.7809720000000766
 20
40.0
 30
0.0
 11
278.7809720000000766
 21
0.0
 31
0.0
  0
LINE
  5
58
100
AcDbEntity
100
AcDbLine
  8
ext
 62
256
370
-1
 48
1.0
  6
BYLAYER
 10
278.7809720000000766
 20
0.0
 30
0.0
 11
-0.0000000000000284
 21
0.0
 31
0.0
  0
LINE
  5
59
100
AcDbEntity
100
AcDbLine
  8
ext
 62
256
370
-1
 48
1.0
  6
BYLAYER
 10
-0.0000000000000284
 20
0.0
 30
0.0
 11
-0.0000000000000284
 21
40.0
 31
0.0
  0
LINE
  5
5A
100
AcDbEntity
100
AcDbLine
  8
profile
 62
256
370
-1
 48
1.0
  6
BYLAYER
 10
278.7809720000000766
 20
8.1999999999999993
 30
0.0
 11
-0.0000000000000279
 21
8.1999999999999993
 31
0.0
  0
LINE
  5
5B
100
AcDbEntity
100
AcDbLine
  8
construction
 62
256
370
-1
 48
1.0
  6
BYLAYER
 10
62.9999999999999716
 20
40.0
 30
0.0
 11
62.9999999999999716
 21
0.0000000000000006
 31
0.0
  0
LINE
  5
5C
100
AcDbEntity
100
AcDbLine
  8
construction
 62
256
370
-1
 48
1.0
  6
BYLAYER
 10
72.9999999999999716
 20
40.0
 30
0.0
 11
72.9999999999999716
 21
-0.0000000000000012
 31
0.0
  0
LINE
  5
5D
100
AcDbEntity
100
AcDbLine
  8
construction
 62
256
370
-1
 48
1.0
  6
BYLAYER
 10
128.5
 20
40.0
 30
0.0
 11
128.5
 21
0.0000000000000006
 31
0.0
  0
LINE
  5
5E
100
AcDbEntity
100
AcDbLine
  8
construction
 62
256
370
-1
 48
1.0
  6
BYLAYER
 10
150.2809719999999913
 20
0.0
 30
0.0
 11
150.2809719999999913
 21
40.0
 31
0.0
  0
LINE
  5
5F
100
AcDbEntity
100
AcDbLine
  8
construction
 62
256
370
-1
 48
1.0
  6
BYLAYER
 10
200.7809719999999913
 20
40.0
 30
0.0
 11
200.7809719999999913
 21
0.0000000000000006
 31
0.0
  0
LINE
  5
60
100
AcDbEntity
100
AcDbLine
  8
construction
 62
256
370
-1
 48
1.0
  6
BYLAYER
 10
210.7809719999999913
 20
40.0
 30
0.0
 11
210.7809719999999913
 21
-0.0000000000000012
 31
0.0
  0
LINE
  5
61
100
AcDbEntity
100
AcDbLine
  8
construction
 62
256
370
-1
 48
1.0
  6
BYLAYER
 10
273.7809720000000198
 20
0.0000000000000006
 30
0.0
 11
273.7809720000000198
 21
40.0
 31
0.0
  0
LINE
  5
62
100
AcDbEntity
100
AcDbLine
  8
construction
 62
256
370
-1
 48
1.0
  6
BYLAYER
 10
4.9999999999999716
 20
40.0
 30
0.0
 11
4.9999999999999716
 21
-0.0000000000000012
 31
0.0
  0
LINE
  5
63
100
AcDbEntity
100
AcDbLine
  8
construction
 62
256
370
-1
 48
1.0
  6
BYLAYER
 10
278.7809720000000766
 20
10.1999999999999993
 30
0.0
 11
-0.0000000000000278
 21
10.1999999999999993
 31
0.0
  0
LINE
  5
64
100
AcDbEntity
100
AcDbLine
  8
construction
 62
256
370
-1
 48
1.0
  6
BYLAYER
 10
278.7809720000000766
 20
-2.0
 30
0.0
 11
-0.0000000000000288
 21
-2.0
 31
0.0
  0
LINE
  5
65
100
AcDbEntity
100
AcDbLine
  8
construction
 62
256
370
-1
 48
1.0
  6
BYLAYER
 10
-2.0000000000000284
 20
0.0000000000000002
 30
0.0
 11
-2.0000000000000284
 21
40.0
 31
0.0
  0
LINE
  5
66
100
AcDbEntity
100
AcDbLine
  8
construction
 62
256
370
-1
 48
1.0
  6
BYLAYER
 10
280.7809720000000766
 20
40.0
 30
0.0
 11
280.7809720000000766
 21
-0.0000000000000005
 31
0.0
  0
LINE
  5
67
100
AcDbEntity
100
AcDbLine
  8
poche_profile_1
 62
256
370
-1
 48
1.0
  6
BYLAYER
 10
-2.0000000000000289
 20
-2.0
 30
0.0
 11
4.9999999999999725
 21
-2.0
 31
0.0
  0
LINE
  5
68
100
AcDbEntity
100
AcDbLine
  8
poche_profile_1
 62
256
370
-1
 48
1.0
  6
BYLAYER
 10
4.9999999999999725
 20
-2.0
 30
0.0
 11
4.9999999999999725
 21
10.1999999999999993
 31
0.0
  0
LINE
  5
69
100
AcDbEntity
100
AcDbLine
  8
poche_profile_1
 62
256
370
-1
 48
1.0
  6
BYLAYER
 10
4.9999999999999725
 20
10.1999999999999993
 30
0.0
 11
-2.0000000000000289
 21
10.1999999999999993
 31
0.0
  0
LINE
  5
6A
100
AcDbEntity
100
AcDbLine
  8
poche_profile_1
 62
256
370
-1
 48
1.0
  6
BYLAYER
 10
-2.0000000000000289
 20
10.1999999999999993
 30
0.0
 11
-2.0000000000000289
 21
-2.0
 31
0.0
  0
LINE
  5
6B
100
AcDbEntity
100
AcDbLine
  8
poche_profile_2
 62
256
370
-1
 48
1.0
  6
BYLAYER
 10
62.9999999999999858
 20
10.1999999999999993
 30
0.0
 11
72.9999999999999858
 21
10.1999999999999993
 31
0.0
  0
LINE
  5
6C
100
AcDbEntity
100
AcDbLine
  8
poche_profile_2
 62
256
370
-1
 48
1.0
  6
BYLAYER
 10
72.9999999999999858
 20
10.1999999999999993
 30
0.0
 11
72.9999999999999858
 21
-2.0
 31
0.0
  0
LINE
  5
6D
100
AcDbEntity
100
AcDbLine
  8
poche_profile_2
 62
256
370
-1
 48
1.0
  6
BYLAYER
 10
72.9999999999999858
 20
-2.0
 30
0.0
 11
62.9999999999999858
 21
-2.0
 31
0.0
  0
LINE
  5
6E
100
AcDbEntity
100
AcDbLine
  8
poche_profile_2
 62
256
370
-1
 48
1.0
  6
BYLAYER
 10
62.9999999999999858
 20
-2.0
 30
0.0
 11
62.9999999999999858
 21
10.1999999999999993
 31
0.0
  0
LINE
  5
6F
100
AcDbEntity
100
AcDbLine
  8
poche_profile_3
 62
256
370
-1
 48
1.0
  6
BYLAYER
 10
128.5
 20
10.1999999999999993
 30
0.0
 11
150.2809720000000198
 21
10.1999999999999993
 31
0.0
  0
LINE
  5
70
100
AcDbEntity
100
AcDbLine
  8
poche_profile_3
 62
256
370
-1
 48
1.0
  6
BYLAYER
 10
150.2809720000000198
 20
10.1999999999999993
 30
0.0
 11
150.2809720000000198
 21
-2.0
 31
0.0
  0
LINE
  5
71
100
AcDbEntity
100
AcDbLine
  8
poche_profile_3
 62
256
370
-1
 48
1.0
  6
BYLAYER
 10
150.2809720000000198
 20
-2.0
 30
0.0
 11
128.5
 21
-2.0
 31
0.0
  0
LINE
  5
72
100
AcDbEntity
100
AcDbLine
  8
poche_profile_3
 62
256
370
-1
 48
1.0
  6
BYLAYER
 10
128.5
 20
-2.0
 30
0.0
 11
128.5
 21
10.1999999999999993
 31
0.0
  0
LINE
  5
73
100
AcDbEntity
100
AcDbLine
  8
poche_profile_4
 62
256
370
-1
 48
1.0
  6
BYLAYER
 10
200.7809719999999913
 20
10.1999999999999993
 30
0.0
 11
210.7809719999999913
 21
10.1999999999999993
 31
0.0
  0
LINE
  5
74
100
AcDbEntity
100
AcDbLine
  8
poche_profile_4
 62
256
370
-1
 48
1.0
  6
BYLAYER
 10
210.7809719999999913
 20
10.1999999999999993
 30
0.0
 11
210.7809719999999913
 21
-2.0
 31
0.0
  0
LINE
  5
75
100
AcDbEntity
100
AcDbLine
  8
poche_profile_4
 62
256
370
-1
 48
1.0
  6
BYLAYER
 10
210.7809719999999913
 20
-2.0
 30
0.0
 11
200.7809719999999913
 21
-2.0
 31
0.0
  0
LINE
  5
76
100
AcDbEntity
100
AcDbLine
  8
poche_profile_4
 62
256
370
-1
 48
1.0
  6
BYLAYER
 10
200.7809719999999913
 20
-2.0
 30
0.0
 11
200.7809719999999913
 21
10.1999999999999993
 31
0.0
  0
LINE
  5
77
100
AcDbEntity
100
AcDbLine
  8
poche_profile_5
 62
256
370
-1
 48
1.0
  6
BYLAYER
 10
273.7809720000000198
 20
10.1999999999999993
 30
0.0
 11
280.7809720000001334
 21
10.1999999999999993
 31
0.0
  0
LINE
  5
78
100
AcDbEntity
100
AcDbLine
  8
poche_profile_5
 62
256
370
-1
 48
1.0
  6
BYLAYER
 10
280.7809720000001334
 20
10.1999999999999993
 30
0.0
 11
280.7809720000001334
 21
-2.0
 31
0.0
  0
LINE
  5
79
100
AcDbEntity
100
AcDbLine
  8
poche_profile_5
 62
256
370
-1
 48
1.0
  6
BYLAYER
 10
280.7809720000001334
 20
-2.0
 30
0.0
 11
273.7809720000000198
 21
-2.0
 31
0.0
  0
LINE
  5
7A
100
AcDbEntity
100
AcDbLine
  8
poche_profile_5
 62
256
370
-1
 48
1.0
  6
BYLAYER
 10
273.7809720000000198
 20
-2.0
 30
0.0
 11
273.7809720000000198
 21
10.1999999999999993
 31
0.0
  0
LINE
  5
7B
100
AcDbEntity
100
AcDbLine
  8
construction
 62
256
370
-1
 48
1.0
  6
BYLAYER
 10
-0.0000000000000283
 20
42.0
 30
0.0
 11
278.7809720000000766
 21
42.0
 31
0.0
  0
LINE
  5
7C
100
AcDbEntity
100
AcDbLine
  8
poche_angle
 62
256
370
-1
 48
1.0
  6
BYLAYER
 10
133.5
 20
42.0000000000000071
 30
0.0
 11
145.2809720000000198
 21
42.0000000000000071
 31
0.0
  0
LINE
  5
7D
100
AcDbEntity
100
AcDbLine
  8
poche_angle
 62
256
370
-1
 48
1.0
  6
BYLAYER
 10
145.2809720000000198
 20
42.0000000000000071
 30
0.0
 11
145.2809720000000198
 21
-2.0
 31
0.0
  0
LINE
  5
7E
100
AcDbEntity
100
AcDbLine
  8
poche_angle
 62
256
370
-1
 48
1.0
  6
BYLAYER
 10
145.2809720000000198
 20
-2.0
 30
0.0
 11
133.5
 21
-2.0
 31
0.0
  0
LINE
  5
7F
100
AcDbEntity
100
AcDbLine
  8
poche_angle
 62
256
370
-1
 48
1.0
  6
BYLAYER
 10
133.5
 20
-2.0
 30
0.0
 11
133.5
 21
42.0000000000000071
 31
0.0
  0
LINE
  5
80
100
AcDbEntity
100
AcDbLine
  8
rainure_angle_1
 62
256
370
-1
 48
1.0
  6
BYLAYER
 10
67.9999999999999858
 20
-2.0
 30
0.0
 11
67.9999999999999858
 21
42.0000000000000071
 31
0.0
  0
LINE
  5
81
100
AcDbEntity
100
AcDbLine
  8
rainure_angle_2
 62
256
370
-1
 48
1.0
  6
BYLAYER
 10
205.7809719999999913
 20
-2.0
 30
0.0
 11
205.7809719999999913
 21
42.0
 31
0.0
  0
LINE
  5
82
100
AcDbEntity
100
AcDbLine
  8
decoupe_1
 62
256
370
-1
 48
1.0
  6
BYLAYER
 10
-0.0000000000000284
 20
40.0
 30
0.0
 11
-0.0000000000000284
 21
-0.0
 31
0.0
  0
LINE
  5
83
100
AcDbEntity
100
AcDbLine
  8
decoupe_2
 62
256
370
-1
 48
1.0
  6
BYLAYER
 10
278.7809720000000766
 20
0.0
 30
0.0
 11
278.7809720000000766
 21
40.0
 31
0.0
  0
LINE
  5
84
100
AcDbEntity
100
AcDbLine
  8
plexi
 62
256
370
-1
 48
1.0
  6
BYLAYER
 10
278.7809720000000766
 20
13.1999999999999993
 30
0.0
 11
-0.0000000000000276
 21
13.1999999999999993
 31
0.0
  0
ENDSEC
  0
SECTION
  2
OBJECTS
  0
DICTIONARY
  5
C
100
AcDbDictionary
280
0
281
1
  3
ACAD_GROUP
350
D
  3
ACAD_LAYOUT
350
1A
  3
ACAD_MLINESTYLE
350
17
  3
ACAD_PLOTSETTINGS
350
19
  3
ACAD_PLOTSTYLENAME
350
E
  3
AcDbVariableDictionary
350
85
  3
QCAD_OBJECTS
350
86
  0
DICTIONARY
  5
D
100
AcDbDictionary
280
0
281
1
  0
ACDBDICTIONARYWDFLT
  5
E
100
AcDbDictionary
281
1
  3
Normal
350
F
100
AcDbDictionaryWithDefault
340
F
  0
ACDBPLACEHOLDER
  5
F
  0
DICTIONARY
  5
17
100
AcDbDictionary
280
0
281
1
  3
Standard
350
18
  0
MLINESTYLE
  5
18
100
AcDbMlineStyle
  2
STANDARD
 70
0
  3

 62
256
 51
90.0
 52
90.0
 71
2
 49
0.5
 62
256
  6
BYLAYER
 49
-0.5
 62
256
  6
BYLAYER
  0
DICTIONARY
  5
19
100
AcDbDictionary
280
0
281
1
  0
DICTIONARY
  5
1A
100
AcDbDictionary
281
1
  3
Layout1
350
1E
  3
Layout2
350
26
  3
Model
350
22
  0
LAYOUT
  5
1E
100
AcDbPlotSettings
  1

  2
none_device
  4

  6

 40
0.0
 41
0.0
 42
0.0
 43
0.0
 44
0.0
 45
0.0
 46
0.0
 47
0.0
 48
0.0
 49
0.0
140
0.0
141
0.0
142
1.0
143
1.0
 70
688
 72
0
 73
0
 74
5
  7

 75
16
147
1.0
148
0.0
149
0.0
100
AcDbLayout
  1
Layout1
 70
1
 71
1
 10
0.0
 20
0.0
 11
420.0
 21
297.0
 12
0.0
 22
0.0
 32
0.0
 14
100000000000000000000.0
 24
100000000000000000000.0
 34
100000000000000000000.0
 15
-100000000000000000000.0
 25
-100000000000000000000.0
 35
-100000000000000000000.0
146
0.0
 13
0.0
 23
0.0
 33
0.0
 16
1.0
 26
0.0
 36
0.0
 17
0.0
 27
1.0
 37
0.0
 76
0
330
1B
  0
LAYOUT
  5
22
100
AcDbPlotSettings
  1

  2
none_device
  4

  6

 40
0.0
 41
0.0
 42
0.0
 43
0.0
 44
0.0
 45
0.0
 46
0.0
 47
0.0
 48
0.0
 49
0.0
140
0.0
141
0.0
142
1.0
143
1.0
 70
1712
 72
0
 73
0
 74
0
  7

 75
0
147
1.0
148
0.0
149
0.0
100
AcDbLayout
  1
Model
 70
1
 71
0
 10
0.0
 20
0.0
 11
12.0
 21
9.0
 12
0.0
 22
0.0
 32
0.0
 14
0.0
 24
0.0
 34
0.0
 15
0.0
 25
0.0
 35
0.0
146
0.0
 13
0.0
 23
0.0
 33
0.0
 16
1.0
 26
0.0
 36
0.0
 17
0.0
 27
1.0
 37
0.0
 76
0
330
1F
  0
LAYOUT
  5
26
100
AcDbPlotSettings
  1

  2
none_device
  4

  6

 40
0.0
 41
0.0
 42
0.0
 43
0.0
 44
0.0
 45
0.0
 46
0.0
 47
0.0
 48
0.0
 49
0.0
140
0.0
141
0.0
142
1.0
143
1.0
 70
688
 72
0
 73
0
 74
5
  7

 75
16
147
1.0
148
0.0
149
0.0
100
AcDbLayout
  1
Layout2
 70
1
 71
2
 10
0.0
 20
0.0
 11
12.0
 21
9.0
 12
0.0
 22
0.0
 32
0.0
 14
0.0
 24
0.0
 34
0.0
 15
0.0
 25
0.0
 35
0.0
146
0.0
 13
0.0
 23
0.0
 33
0.0
 16
1.0
 26
0.0
 36
0.0
 17
0.0
 27
1.0
 37
0.0
 76
0
330
23
  0
DICTIONARY
  5
85
100
AcDbDictionary
281
1
  3
DIMASSOC
350
88
  3
HIDETEXT
350
87
  0
DICTIONARYVAR
  5
87
100
DictionaryVariables
280
0
  1
2
  0
DICTIONARYVAR
  5
88
100
DictionaryVariables
280
0
  1
1
  0
DICTIONARY
  5
86
100
AcDbDictionary
281
1
  3
Grid/DisplayGrid00
350
89
  3
Grid/DisplayGrid01
350
8A
  3
Grid/DisplayGrid02
350
8B
  3
Grid/DisplayGrid03
350
8C
  3
Grid/GridSpacingX00
350
8D
  3
Grid/GridSpacingX01
350
8E
  3
Grid/GridSpacingX02
350
8F
  3
Grid/GridSpacingX03
350
90
  3
Grid/GridSpacingY00
350
91
  3
Grid/GridSpacingY01
350
92
  3
Grid/GridSpacingY02
350
93
  3
Grid/GridSpacingY03
350
94
  3
Grid/IsometricGrid00
350
95
  3
Grid/IsometricGrid01
350
96
  3
Grid/IsometricGrid02
350
97
  3
Grid/IsometricGrid03
350
98
  3
Grid/IsometricProjection00
350
99
  3
Grid/IsometricProjection01
350
9A
  3
Grid/IsometricProjection02
350
9B
  3
Grid/IsometricProjection03
350
9C
  3
Grid/MetaGridSpacingX00
350
9D
  3
Grid/MetaGridSpacingX01
350
9E
  3
Grid/MetaGridSpacingX02
350
9F
  3
Grid/MetaGridSpacingX03
350
A0
  3
Grid/MetaGridSpacingY00
350
A1
  3
Grid/MetaGridSpacingY01
350
A2
  3
Grid/MetaGridSpacingY02
350
A3
  3
Grid/MetaGridSpacingY03
350
A4
  3
MultiPageSettings/Columns
350
A5
  3
MultiPageSettings/GlueMarginsBottom
350
A6
  3
MultiPageSettings/GlueMarginsLeft
350
A7
  3
MultiPageSettings/GlueMarginsRight
350
A8
  3
MultiPageSettings/GlueMarginsTop
350
A9
  3
MultiPageSettings/PrintCropMarks
350
AA
  3
MultiPageSettings/Rows
350
AB
  3
PageSettings/OffsetX
350
AC
  3
PageSettings/OffsetY
350
AD
  3
PageSettings/PageOrientation
350
AE
  3
PageSettings/PaperHeight
350
AF
  3
PageSettings/PaperWidth
350
B0
  3
PageSettings/Scale
350
B1
  3
PageSettings/ShowPaperBorders
350
B2
  3
UnitSettings/PaperUnit
350
B3
  0
XRECORD
  5
89
330
86
100
AcDbXrecord
280
1
290
1
  0
XRECORD
  5
8A
330
86
100
AcDbXrecord
280
1
290
1
  0
XRECORD
  5
8B
330
86
100
AcDbXrecord
280
1
290
1
  0
XRECORD
  5
8C
330
86
100
AcDbXrecord
280
1
290
1
  0
XRECORD
  5
8D
330
86
100
AcDbXrecord
280
1
1000
auto
  0
XRECORD
  5
8E
330
86
100
AcDbXrecord
280
1
1000
auto
  0
XRECORD
  5
8F
330
86
100
AcDbXrecord
280
1
1000
auto
  0
XRECORD
  5
90
330
86
100
AcDbXrecord
280
1
1000
auto
  0
XRECORD
  5
91
330
86
100
AcDbXrecord
280
1
1000
auto
  0
XRECORD
  5
92
330
86
100
AcDbXrecord
280
1
1000
auto
  0
XRECORD
  5
93
330
86
100
AcDbXrecord
280
1
1000
auto
  0
XRECORD
  5
94
330
86
100
AcDbXrecord
280
1
1000
auto
  0
XRECORD
  5
95
330
86
100
AcDbXrecord
280
1
290
0
  0
XRECORD
  5
96
330
86
100
AcDbXrecord
280
1
290
0
  0
XRECORD
  5
97
330
86
100
AcDbXrecord
280
1
290
0
  0
XRECORD
  5
98
330
86
100
AcDbXrecord
280
1
290
0
  0
XRECORD
  5
99
330
86
100
AcDbXrecord
280
1
 90
0
  0
XRECORD
  5
9A
330
86
100
AcDbXrecord
280
1
 90
0
  0
XRECORD
  5
9B
330
86
100
AcDbXrecord
280
1
 90
0
  0
XRECORD
  5
9C
330
86
100
AcDbXrecord
280
1
 90
0
  0
XRECORD
  5
9D
330
86
100
AcDbXrecord
280
1
1000
auto
  0
XRECORD
  5
9E
330
86
100
AcDbXrecord
280
1
1000
auto
  0
XRECORD
  5
9F
330
86
100
AcDbXrecord
280
1
1000
auto
  0
XRECORD
  5
A0
330
86
100
AcDbXrecord
280
1
1000
auto
  0
XRECORD
  5
A1
330
86
100
AcDbXrecord
280
1
1000
auto
  0
XRECORD
  5
A2
330
86
100
AcDbXrecord
280
1
1000
auto
  0
XRECORD
  5
A3
330
86
100
AcDbXrecord
280
1
1000
auto
  0
XRECORD
  5
A4
330
86
100
AcDbXrecord
280
1
1000
auto
  0
XRECORD
  5
A5
330
86
100
AcDbXrecord
280
1
 90
1
  0
XRECORD
  5
A6
330
86
100
AcDbXrecord
280
1
 40
10.0
  0
XRECORD
  5
A7
330
86
100
AcDbXrecord
280
1
 40
10.0
  0
XRECORD
  5
A8
330
86
100
AcDbXrecord
280
1
 40
10.0
  0
XRECORD
  5
A9
330
86
100
AcDbXrecord
280
1
 40
10.0
  0
XRECORD
  5
AA
330
86
100
AcDbXrecord
280
1
290
0
  0
XRECORD
  5
AB
330
86
100
AcDbXrecord
280
1
 90
1
  0
XRECORD
  5
AC
330
86
100
AcDbXrecord
280
1
 40
0.0
  0
XRECORD
  5
AD
330
86
100
AcDbXrecord
280
1
 40
0.0
  0
XRECORD
  5
AE
330
86
100
AcDbXrecord
280
1
1000
Portrait
  0
XRECORD
  5
AF
330
86
100
AcDbXrecord
280
1
 40
297.0
  0
XRECORD
  5
B0
330
86
100
AcDbXrecord
280
1
 40
210.0
  0
XRECORD
  5
B1
330
86
100
AcDbXrecord
280
1
1000
1:1
  0
XRECORD
  5
B2
330
86
100
AcDbXrecord
280
1
290
1
  0
XRECORD
  5
B3
330
86
100
AcDbXrecord
280
1
 90
4
  0
ENDSEC
  0
EOF
