999
dxflib 2.2.0.0
  0
SECTION
  2
HEADER
  9
$ACADVER
  1
AC1015
  9
$HANDSEED
  5
FFFF
  9
$SPLINESEGS
 70
8
  9
$DIMEXE
 40
2.5
  9
$DIMAZIN
 70
8
  9
$DIMZIN
 70
8
  9
$DIMLUNIT
 70
2
  9
$GRIDMODE
 70
1
  9
$INSUNITS
 70
0
  9
$DIMADEC
 70
2
  9
$DIMASZ
 40
5.0
  9
$DIMGAP
 40
1.25
  9
$DIMTXT
 40
5.0
  9
$GRIDUNIT
 10
0.0
 20
0.0
  9
$DIMEXO
 40
1.25
  9
$LUPREC
 70
4
  9
$CLAYER
  8
cacher
  9
$DIMAUNIT
 70
0
  9
$AUPREC
 70
2
  9
$PLIMMIN
 10
0.0
 20
0.0
  9
$LUNITS
 70
2
  9
$PLIMMAX
 10
210.0
 20
297.0
  9
$DIMSTYLE
  2
Standard
  9
$DIMBLK
  1

  9
$AUNITS
 70
0
  9
$CLAYER
  8
COTE
  0
ENDSEC
  0
SECTION
  2
TABLES
  0
TABLE
  2
VPORT
  5
8
100
AcDbSymbolTable
 70
1
  0
VPORT
  5
30
100
AcDbSymbolTableRecord
100
AcDbViewportTableRecord
  2
*Active
 70
0
 10
0.0
 20
0.0
 11
1.0
 21
1.0
 12
286.30555555555549
 22
148.5
 13
0.0
 23
0.0
 14
10.0
 24
10.0
 15
10.0
 25
10.0
 16
0.0
 26
0.0
 36
1.0
 17
0.0
 27
0.0
 37
0.0
 40
297.0
 41
1.92798353909465
 42
50.0
 43
0.0
 44
0.0
 50
0.0
 51
0.0
 71
0
 72
100
 73
1
 74
3
 75
1
 76
1
 77
0
 78
0
281
0
 65
1
110
0.0
120
0.0
130
0.0
111
1.0
121
0.0
131
0.0
112
0.0
122
1.0
132
0.0
 79
0
146
0.0
  0
ENDTAB
  0
TABLE
  2
LTYPE
  5
5
100
AcDbSymbolTable
 70
21
  0
LTYPE
  5
14
100
AcDbSymbolTableRecord
100
AcDbLinetypeTableRecord
  2
ByBlock
 70
0
  3

 72
65
 73
0
 40
0.0
  0
LTYPE
  5
15
100
AcDbSymbolTableRecord
100
AcDbLinetypeTableRecord
  2
ByLayer
 70
0
  3

 72
65
 73
0
 40
0.0
  0
LTYPE
  5
16
100
AcDbSymbolTableRecord
100
AcDbLinetypeTableRecord
  2
CONTINUOUS
 70
0
  3
Solid line
 72
65
 73
0
 40
0.0
  0
LTYPE
  5
31
100
AcDbSymbolTableRecord
100
AcDbLinetypeTableRecord
  2
DOT
 70
0
  3
Dot . . . . . . . . . . . . . . . . . . . . . .
 72
65
 73
2
 40
6.3499999999999996
 49
0.0
 74
0
 49
-6.3499999999999996
 74
0
  0
LTYPE
  5
32
100
AcDbSymbolTableRecord
100
AcDbLinetypeTableRecord
  2
DOT2
 70
0
  3
Dot (.5x) .....................................
 72
65
 73
2
 40
3.1749999999999998
 49
0.0
 74
0
 49
-3.1749999999999998
 74
0
  0
LTYPE
  5
33
100
AcDbSymbolTableRecord
100
AcDbLinetypeTableRecord
  2
DOTX2
 70
0
  3
Dot (2x) .  .  .  .  .  .  .  .  .  .  .  .  .
 72
65
 73
2
 40
12.699999999999999
 49
0.0
 74
0
 49
-12.699999999999999
 74
0
  0
LTYPE
  5
34
100
AcDbSymbolTableRecord
100
AcDbLinetypeTableRecord
  2
DASHED
 70
0
  3
Dashed __ __ __ __ __ __ __ __ __ __ __ __ __ _
 72
65
 73
2
 40
19.050000000000001
 49
12.699999999999999
 74
0
 49
-6.3499999999999996
 74
0
  0
LTYPE
  5
35
100
AcDbSymbolTableRecord
100
AcDbLinetypeTableRecord
  2
DASHED2
 70
0
  3
Dashed (.5x) _ _ _ _ _ _ _ _ _ _ _ _ _ _ _ _ _
 72
65
 73
2
 40
9.5250000000000004
 49
6.3499999999999996
 74
0
 49
-3.1749999999999998
 74
0
  0
LTYPE
  5
36
100
AcDbSymbolTableRecord
100
AcDbLinetypeTableRecord
  2
DASHEDX2
 70
0
  3
Dashed (2x) ____  ____  ____  ____  ____  ___
 72
65
 73
2
 40
38.100000000000001
 49
25.399999999999999
 74
0
 49
-12.699999999999999
 74
0
  0
LTYPE
  5
37
100
AcDbSymbolTableRecord
100
AcDbLinetypeTableRecord
  2
DASHDOT
 70
0
  3
Dash dot __ . __ . __ . __ . __ . __ . __ . __
 72
65
 73
4
 40
25.399999999999999
 49
12.699999999999999
 74
0
 49
-6.3499999999999996
 74
0
 49
0.0
 74
0
 49
-6.3499999999999996
 74
0
  0
LTYPE
  5
38
100
AcDbSymbolTableRecord
100
AcDbLinetypeTableRecord
  2
DASHDOT2
 70
0
  3
Dash dot (.5x) _._._._._._._._._._._._._._._.
 72
65
 73
4
 40
12.699999999999999
 49
6.3499999999999996
 74
0
 49
-3.1749999999999998
 74
0
 49
0.0
 74
0
 49
-3.1749999999999998
 74
0
  0
LTYPE
  5
39
100
AcDbSymbolTableRecord
100
AcDbLinetypeTableRecord
  2
DASHDOTX2
 70
0
  3
Dash dot (2x) ____  .  ____  .  ____  .  ___
 72
65
 73
4
 40
50.799999999999997
 49
25.399999999999999
 74
0
 49
-12.699999999999999
 74
0
 49
0.0
 74
0
 49
-12.699999999999999
 74
0
  0
LTYPE
  5
3A
100
AcDbSymbolTableRecord
100
AcDbLinetypeTableRecord
  2
DIVIDE
 70
0
  3
Divide ____ . . ____ . . ____ . . ____ . . ____
 72
65
 73
6
 40
31.75
 49
12.699999999999999
 74
0
 49
-6.3499999999999996
 74
0
 49
0.0
 74
0
 49
-6.3499999999999996
 74
0
 49
0.0
 74
0
 49
-6.3499999999999996
 74
0
  0
LTYPE
  5
3B
100
AcDbSymbolTableRecord
100
AcDbLinetypeTableRecord
  2
DIVIDE2
 70
0
  3
Divide (.5x) __..__..__..__..__..__..__..__.._
 72
65
 73
6
 40
15.875
 49
6.3499999999999996
 74
0
 49
-3.1749999999999998
 74
0
 49
0.0
 74
0
 49
-3.1749999999999998
 74
0
 49
0.0
 74
0
 49
-3.1749999999999998
 74
0
  0
LTYPE
  5
3C
100
AcDbSymbolTableRecord
100
AcDbLinetypeTableRecord
  2
DIVIDEX2
 70
0
  3
Divide (2x) ________  .  .  ________  .  .  _
 72
65
 73
6
 40
63.5
 49
25.399999999999999
 74
0
 49
-12.699999999999999
 74
0
 49
0.0
 74
0
 49
-12.699999999999999
 74
0
 49
0.0
 74
0
 49
-12.699999999999999
 74
0
  0
LTYPE
  5
3D
100
AcDbSymbolTableRecord
100
AcDbLinetypeTableRecord
  2
CENTER
 70
0
  3
Center ____ _ ____ _ ____ _ ____ _ ____ _ ____
 72
65
 73
4
 40
50.799999999999997
 49
31.75
 74
0
 49
-6.3499999999999996
 74
0
 49
6.3499999999999996
 74
0
 49
-6.3499999999999996
 74
0
  0
LTYPE
  5
3E
100
AcDbSymbolTableRecord
100
AcDbLinetypeTableRecord
  2
CENTER2
 70
0
  3
Center (.5x) ___ _ ___ _ ___ _ ___ _ ___ _ ___
 72
65
 73
4
 40
28.574999999999999
 49
19.050000000000001
 74
0
 49
-3.1749999999999998
 74
0
 49
3.1749999999999998
 74
0
 49
-3.1749999999999998
 74
0
  0
LTYPE
  5
3F
100
AcDbSymbolTableRecord
100
AcDbLinetypeTableRecord
  2
CENTERX2
 70
0
  3
Center (2x) ________  __  ________  __  _____
 72
65
 73
4
 40
101.59999999999999
 49
63.5
 74
0
 49
-12.699999999999999
 74
0
 49
12.699999999999999
 74
0
 49
-12.699999999999999
 74
0
  0
LTYPE
  5
40
100
AcDbSymbolTableRecord
100
AcDbLinetypeTableRecord
  2
BORDER
 70
0
  3
Border __ __ . __ __ . __ __ . __ __ . __ __ .
 72
65
 73
6
 40
44.450000000000003
 49
12.699999999999999
 74
0
 49
-6.3499999999999996
 74
0
 49
12.699999999999999
 74
0
 49
-6.3499999999999996
 74
0
 49
0.0
 74
0
 49
-6.3499999999999996
 74
0
  0
LTYPE
  5
41
100
AcDbSymbolTableRecord
100
AcDbLinetypeTableRecord
  2
BORDER2
 70
0
  3
Border (.5x) __.__.__.__.__.__.__.__.__.__.__.
 72
65
 73
6
 40
22.225000000000001
 49
6.3499999999999996
 74
0
 49
-3.1749999999999998
 74
0
 49
6.3499999999999996
 74
0
 49
-3.1749999999999998
 74
0
 49
0.0
 74
0
 49
-3.1749999999999998
 74
0
  0
LTYPE
  5
42
100
AcDbSymbolTableRecord
100
AcDbLinetypeTableRecord
  2
BORDERX2
 70
0
  3
Border (2x) ____  ____  .  ____  ____  .  ___
 72
65
 73
6
 40
88.900000000000006
 49
25.399999999999999
 74
0
 49
-12.699999999999999
 74
0
 49
25.399999999999999
 74
0
 49
-12.699999999999999
 74
0
 49
0.0
 74
0
 49
-12.699999999999999
 74
0
  0
ENDTAB
  0
TABLE
  2
LAYER
  5
2
100
AcDbSymbolTable
 70
8
  0
LAYER
  5
10
100
AcDbSymbolTableRecord
100
AcDbLayerTableRecord
  2
0
 70
0
 62
7
420
0
  6
CONTINUOUS
370
25
390
F
  0
LAYER
  5
43
100
AcDbSymbolTableRecord
100
AcDbLayerTableRecord
  2
ALU_CURSEUR_Y
 70
0
 62
7
420
0
  6
CONTINUOUS
370
0
390
F
  0
LAYER
  5
44
100
AcDbSymbolTableRecord
100
AcDbLayerTableRecord
  2
axe
 70
0
 62
1
420
16711680
  6
DASHDOTX2
370
0
390
F
  0
LAYER
  5
45
100
AcDbSymbolTableRecord
100
AcDbLayerTableRecord
  2
cacher
 70
0
 62
3
420
65280
  6
DASHED2
370
0
390
F
  0
LAYER
  5
46
100
AcDbSymbolTableRecord
100
AcDbLayerTableRecord
  2
ALU_CURSEUR_X
 70
0
 62
7
420
0
  6
CONTINUOUS
370
0
390
F
  0
LAYER
  5
47
100
AcDbSymbolTableRecord
100
AcDbLayerTableRecord
  2
ALU_CURSEUR_Z
 70
0
 62
7
420
0
  6
CONTINUOUS
370
0
390
F
  0
LAYER
  5
48
100
AcDbSymbolTableRecord
100
AcDbLayerTableRecord
  2
CONSTR
 70
0
 62
6
420
16711935
  6
CONTINUOUS
370
0
390
F
  0
LAYER
  5
49
100
AcDbSymbolTableRecord
100
AcDbLayerTableRecord
  2
COTE
 70
0
 62
5
420
255
  6
CONTINUOUS
370
0
390
F
  0
ENDTAB
  0
TABLE
  2
STYLE
  5
3
100
AcDbSymbolTable
 70
1
  0
STYLE
  5
11
100
AcDbSymbolTableRecord
100
AcDbTextStyleTableRecord
  2
Standard
 70
0
 40
0.0
 41
0.75
 50
0.0
 71
0
 42
2.5
  3
txt
  4

  0
ENDTAB
  0
TABLE
  2
VIEW
  5
6
100
AcDbSymbolTable
 70
0
  0
ENDTAB
  0
TABLE
  2
UCS
  5
7
100
AcDbSymbolTable
 70
0
  0
ENDTAB
  0
TABLE
  2
APPID
  5
9
100
AcDbSymbolTable
 70
1
  0
APPID
  5
12
100
AcDbSymbolTableRecord
100
AcDbRegAppTableRecord
  2
ACAD
 70
0
  0
ENDTAB
  0
TABLE
  2
DIMSTYLE
  5
A
100
AcDbSymbolTable
 70
1
100
AcDbDimStyleTable
 71
0
  0
DIMSTYLE
105
27
100
AcDbSymbolTableRecord
100
AcDbDimStyleTableRecord
  2
Standard
 41
5.0
 42
1.25
 43
3.75
 44
2.5
 70
0
 73
0
 74
0
 77
1
 78
8
140
5.0
141
2.5
143
0.03937007874016
147
1.25
171
3
172
1
271
2
272
2
274
3
278
44
283
0
284
8
340
11
  0
ENDTAB
  0
TABLE
  2
BLOCK_RECORD
  5
1
100
AcDbSymbolTable
 70
1
  0
BLOCK_RECORD
  5
1F
100
AcDbSymbolTableRecord
100
AcDbBlockTableRecord
  2
*Model_Space
340
22
  0
BLOCK_RECORD
  5
1B
100
AcDbSymbolTableRecord
100
AcDbBlockTableRecord
  2
*Paper_Space
340
1E
  0
BLOCK_RECORD
  5
23
100
AcDbSymbolTableRecord
100
AcDbBlockTableRecord
  2
*Paper_Space0
340
26
  0
ENDTAB
  0
ENDSEC
  0
SECTION
  2
BLOCKS
  0
BLOCK
  5
20
100
AcDbEntity
  8
0
100
AcDbBlockBegin
  2
*Model_Space
 70
0
 10
0.0
 20
0.0
 30
0.0
  3
*Model_Space
  1

  0
ENDBLK
  5
21
100
AcDbEntity
  8
0
100
AcDbBlockEnd
  0
BLOCK
  5
1C
100
AcDbEntity
 67
1
  8
0
100
AcDbBlockBegin
  2
*Paper_Space
 70
0
 10
0.0
 20
0.0
 30
0.0
  3
*Paper_Space
  1

  0
ENDBLK
  5
1D
100
AcDbEntity
 67
1
  8
0
100
AcDbBlockEnd
  0
BLOCK
  5
24
100
AcDbEntity
  8
0
100
AcDbBlockBegin
  2
*Paper_Space0
 70
0
 10
0.0
 20
0.0
 30
0.0
  3
*Paper_Space0
  1

  0
ENDBLK
  5
25
100
AcDbEntity
  8
0
100
AcDbBlockEnd
  0
ENDSEC
  0
SECTION
  2
ENTITIES
  0
LINE
  5
4A
100
AcDbEntity
100
AcDbLine
  8
ALU_CURSEUR_X
 62
256
370
-1
  6
ByLayer
 10
0.0000000000000213
 20
60.0
 30
0.0
 11
20.000000000000021
 21
60.0
 31
0.0
  0
LINE
  5
4B
100
AcDbEntity
100
AcDbLine
  8
ALU_CURSEUR_X
 62
256
370
-1
  6
ByLayer
 10
20.000000000000021
 20
60.0
 30
0.0
 11
20.0
 21
-0.0000000000000178
 31
0.0
  0
LINE
  5
4C
100
AcDbEntity
100
AcDbLine
  8
ALU_CURSEUR_X
 62
256
370
-1
  6
ByLayer
 10
20.0
 20
-0.0000000000000178
 30
0.0
 11
0.0
 21
0.0
 31
0.0
  0
LINE
  5
4D
100
AcDbEntity
100
AcDbLine
  8
ALU_CURSEUR_X
 62
256
370
-1
  6
ByLayer
 10
0.0
 20
0.0
 30
0.0
 11
0.0000000000000213
 21
60.0
 31
0.0
  0
LINE
  5
4E
100
AcDbEntity
100
AcDbLine
  8
axe
 62
256
370
-1
  6
ByLayer
 10
54.499999999999552
 20
29.999999999999542
 30
0.0
 11
74.499999999999545
 21
29.999999999999542
 31
0.0
  0
LINE
  5
4F
100
AcDbEntity
100
AcDbLine
  8
axe
 62
256
370
-1
  6
ByLayer
 10
64.499999999999545
 20
19.999999999999996
 30
0.0
 11
64.499999999999545
 21
40.0
 31
0.0
  0
LINE
  5
50
100
AcDbEntity
100
AcDbLine
  8
axe
 62
256
370
-1
  6
ByLayer
 10
53.499999999999552
 20
43.856406460550261
 30
0.0
 11
59.499999999999552
 21
43.856406460550261
 31
0.0
  0
LINE
  5
51
100
AcDbEntity
100
AcDbLine
  8
axe
 62
256
370
-1
  6
ByLayer
 10
69.499999999999545
 20
43.856406460552535
 30
0.0
 11
75.499999999999545
 21
43.85640646055208
 31
0.0
  0
LINE
  5
52
100
AcDbEntity
100
AcDbLine
  8
axe
 62
256
370
-1
  6
ByLayer
 10
69.499999999999545
 20
16.143593539449281
 30
0.0
 11
75.499999999999545
 21
16.143593539449274
 31
0.0
  0
LINE
  5
53
100
AcDbEntity
100
AcDbLine
  8
axe
 62
256
370
-1
  6
ByLayer
 10
53.499999999999552
 20
16.143593539449736
 30
0.0
 11
59.499999999999552
 21
16.143593539449281
 31
0.0
  0
LINE
  5
54
100
AcDbEntity
100
AcDbLine
  8
axe
 62
256
370
-1
  6
ByLayer
 10
56.499999999999552
 20
40.856406460550261
 30
0.0
 11
56.499999999999552
 21
46.856406460550261
 31
0.0
  0
LINE
  5
55
100
AcDbEntity
100
AcDbLine
  8
axe
 62
256
370
-1
  6
ByLayer
 10
72.499999999999545
 20
40.85640646055208
 30
0.0
 11
72.499999999999545
 21
46.856406460551625
 31
0.0
  0
LINE
  5
56
100
AcDbEntity
100
AcDbLine
  8
axe
 62
256
370
-1
  6
ByLayer
 10
56.499999999999538
 20
13.14359353944883
 30
0.0
 11
56.499999999999552
 21
19.143593539449736
 31
0.0
  0
LINE
  5
57
100
AcDbEntity
100
AcDbLine
  8
axe
 62
256
370
-1
  6
ByLayer
 10
72.499999999999545
 20
13.143593539449281
 30
0.0
 11
72.499999999999545
 21
19.143593539449281
 31
0.0
  0
LINE
  5
58
100
AcDbEntity
100
AcDbLine
  8
axe
 62
256
370
-1
  6
ByLayer
 10
64.499999999999545
 20
40.0
 30
0.0
 11
64.499999999999545
 21
19.999999999999996
 31
0.0
  0
LINE
  5
59
100
AcDbEntity
100
AcDbLine
  8
axe
 62
256
370
-1
  6
ByLayer
 10
54.499999999999552
 20
29.999999999999542
 30
0.0
 11
74.499999999999545
 21
29.999999999999542
 31
0.0
  0
LINE
  5
5A
100
AcDbEntity
100
AcDbLine
  8
axe
 62
256
370
-1
  6
ByLayer
 10
53.499999999999552
 20
43.856406460549806
 30
0.0
 11
59.499999999999552
 21
43.856406460549806
 31
0.0
  0
LINE
  5
5B
100
AcDbEntity
100
AcDbLine
  8
axe
 62
256
370
-1
  6
ByLayer
 10
69.499999999999545
 20
43.85640646055208
 30
0.0
 11
75.499999999999545
 21
43.856406460551625
 31
0.0
  0
LINE
  5
5C
100
AcDbEntity
100
AcDbLine
  8
axe
 62
256
370
-1
  6
ByLayer
 10
69.499999999999545
 20
16.143593539448823
 30
0.0
 11
75.499999999999545
 21
16.143593539448819
 31
0.0
  0
LINE
  5
5D
100
AcDbEntity
100
AcDbLine
  8
axe
 62
256
370
-1
  6
ByLayer
 10
53.499999999999552
 20
16.143593539449281
 30
0.0
 11
59.499999999999552
 21
16.143593539448826
 31
0.0
  0
LINE
  5
5E
100
AcDbEntity
100
AcDbLine
  8
axe
 62
256
370
-1
  6
ByLayer
 10
56.499999999999552
 20
40.856406460549806
 30
0.0
 11
56.499999999999552
 21
46.856406460549806
 31
0.0
  0
LINE
  5
5F
100
AcDbEntity
100
AcDbLine
  8
axe
 62
256
370
-1
  6
ByLayer
 10
72.499999999999545
 20
40.856406460551625
 30
0.0
 11
72.499999999999545
 21
46.85640646055117
 31
0.0
  0
LINE
  5
60
100
AcDbEntity
100
AcDbLine
  8
axe
 62
256
370
-1
  6
ByLayer
 10
56.499999999999545
 20
13.143593539448375
 30
0.0
 11
56.499999999999545
 21
19.143593539449281
 31
0.0
  0
LINE
  5
61
100
AcDbEntity
100
AcDbLine
  8
axe
 62
256
370
-1
  6
ByLayer
 10
72.499999999999545
 20
13.143593539448826
 30
0.0
 11
72.499999999999545
 21
19.143593539448826
 31
0.0
  0
CIRCLE
  5
62
100
AcDbEntity
100
AcDbCircle
  8
ALU_CURSEUR_X
 62
256
370
-1
  6
ByLayer
 10
64.499999999999545
 20
29.999999999999542
 30
0.0
 40
12.500000000000341
  0
LINE
  5
63
100
AcDbEntity
100
AcDbLine
  8
ALU_CURSEUR_X
 62
256
370
-1
  6
ByLayer
 10
50.0
 20
0.0
 30
0.0
 11
50.000000000000462
 21
60.0
 31
0.0
  0
LINE
  5
64
100
AcDbEntity
100
AcDbLine
  8
ALU_CURSEUR_X
 62
256
370
-1
  6
ByLayer
 10
50.000000000000462
 20
60.0
 30
0.0
 11
84.499999999999545
 21
60.0
 31
0.0
  0
LINE
  5
65
100
AcDbEntity
100
AcDbLine
  8
ALU_CURSEUR_X
 62
256
370
-1
  6
ByLayer
 10
84.499999999999545
 20
-0.0000000000000107
 30
0.0
 11
50.0
 21
0.0
 31
0.0
  0
LINE
  5
66
100
AcDbEntity
100
AcDbLine
  8
ALU_CURSEUR_X
 62
256
370
-1
  6
ByLayer
 10
84.499999999999545
 20
60.0
 30
0.0
 11
84.499999999999545
 21
-0.0000000000000107
 31
0.0
  0
LINE
  5
67
100
AcDbEntity
100
AcDbLine
  8
ALU_CURSEUR_Y
 62
256
370
-1
  6
ByLayer
 10
0.0
 20
100.0
 30
0.0
 11
0.0000000000000071
 21
160.0
 31
0.0
  0
LINE
  5
68
100
AcDbEntity
100
AcDbLine
  8
ALU_CURSEUR_Y
 62
256
370
-1
  6
ByLayer
 10
0.0000000000000071
 20
160.0
 30
0.0
 11
20.000000000000114
 21
160.0
 31
0.0
  0
LINE
  5
69
100
AcDbEntity
100
AcDbLine
  8
ALU_CURSEUR_Y
 62
256
370
-1
  6
ByLayer
 10
20.000000000000114
 20
160.0
 30
0.0
 11
20.000000000000114
 21
100.0
 31
0.0
  0
LINE
  5
6A
100
AcDbEntity
100
AcDbLine
  8
ALU_CURSEUR_Y
 62
256
370
-1
  6
ByLayer
 10
20.000000000000114
 20
100.0
 30
0.0
 11
0.0
 21
100.0
 31
0.0
  0
LINE
  5
6B
100
AcDbEntity
100
AcDbLine
  8
axe
 62
256
370
-1
  6
ByLayer
 10
64.499999999999574
 20
139.99999999999994
 30
0.0
 11
64.499999999999545
 21
119.99999999999991
 31
0.0
  0
LINE
  5
6C
100
AcDbEntity
100
AcDbLine
  8
axe
 62
256
370
-1
  6
ByLayer
 10
54.499999999999545
 20
129.99999999999994
 30
0.0
 11
74.499999999999531
 21
130.0
 31
0.0
  0
CIRCLE
  5
6D
100
AcDbEntity
100
AcDbCircle
  8
ALU_CURSEUR_Y
 62
256
370
-1
  6
ByLayer
 10
64.499999999999531
 20
130.0
 30
0.0
 40
12.500000000000341
  0
LINE
  5
6E
100
AcDbEntity
100
AcDbLine
  8
ALU_CURSEUR_Y
 62
256
370
-1
  6
ByLayer
 10
50.0
 20
100.0
 30
0.0
 11
50.000000000000227
 21
160.0
 31
0.0
  0
LINE
  5
6F
100
AcDbEntity
100
AcDbLine
  8
ALU_CURSEUR_Y
 62
256
370
-1
  6
ByLayer
 10
50.000000000000227
 20
160.0
 30
0.0
 11
101.0
 21
159.99999999999994
 31
0.0
  0
LINE
  5
70
100
AcDbEntity
100
AcDbLine
  8
ALU_CURSEUR_Y
 62
256
370
-1
  6
ByLayer
 10
101.0
 20
99.999999999999972
 30
0.0
 11
50.0
 21
100.0
 31
0.0
  0
LINE
  5
71
100
AcDbEntity
100
AcDbLine
  8
ALU_CURSEUR_Y
 62
256
370
-1
  6
ByLayer
 10
101.0
 20
159.99999999999994
 30
0.0
 11
101.0
 21
99.999999999999972
 31
0.0
  0
LINE
  5
72
100
AcDbEntity
100
AcDbLine
  8
ALU_CURSEUR_Z
 62
256
370
-1
  6
ByLayer
 10
0.0
 20
200.0
 30
0.0
 11
0.0
 21
260.00000000000011
 31
0.0
  0
LINE
  5
73
100
AcDbEntity
100
AcDbLine
  8
ALU_CURSEUR_Z
 62
256
370
-1
  6
ByLayer
 10
20.0
 20
260.00000000000011
 30
0.0
 11
20.0
 21
200.0
 31
0.0
  0
LINE
  5
74
100
AcDbEntity
100
AcDbLine
  8
ALU_CURSEUR_Z
 62
256
370
-1
  6
ByLayer
 10
0.0
 20
260.00000000000011
 30
0.0
 11
20.0
 21
260.00000000000011
 31
0.0
  0
LINE
  5
75
100
AcDbEntity
100
AcDbLine
  8
ALU_CURSEUR_Z
 62
256
370
-1
  6
ByLayer
 10
20.0
 20
200.0
 30
0.0
 11
0.0
 21
200.0
 31
0.0
  0
LINE
  5
76
100
AcDbEntity
100
AcDbLine
  8
axe
 62
256
370
-1
  6
ByLayer
 10
80.999999999999659
 20
216.14359353944923
 30
0.0
 11
74.999999999999659
 21
216.14359353944928
 31
0.0
  0
LINE
  5
77
100
AcDbEntity
100
AcDbLine
  8
axe
 62
256
370
-1
  6
ByLayer
 10
64.999999999999659
 20
216.14359353944695
 30
0.0
 11
58.999999999999659
 21
216.14359353944747
 31
0.0
  0
LINE
  5
78
100
AcDbEntity
100
AcDbLine
  8
axe
 62
256
370
-1
  6
ByLayer
 10
64.999999999999659
 20
243.85640646055023
 30
0.0
 11
58.999999999999659
 21
243.85640646055023
 31
0.0
  0
LINE
  5
79
100
AcDbEntity
100
AcDbLine
  8
axe
 62
256
370
-1
  6
ByLayer
 10
80.999999999999659
 20
243.85640646054978
 30
0.0
 11
74.999999999999659
 21
243.85640646055023
 31
0.0
  0
LINE
  5
7A
100
AcDbEntity
100
AcDbLine
  8
axe
 62
256
370
-1
  6
ByLayer
 10
77.999999999999659
 20
219.14359353944928
 30
0.0
 11
77.999999999999659
 21
213.14359353944923
 31
0.0
  0
LINE
  5
7B
100
AcDbEntity
100
AcDbLine
  8
axe
 62
256
370
-1
  6
ByLayer
 10
61.999999999999659
 20
219.14359353944747
 30
0.0
 11
61.999999999999659
 21
213.14359353944792
 31
0.0
  0
LINE
  5
7C
100
AcDbEntity
100
AcDbLine
  8
axe
 62
256
370
-1
  6
ByLayer
 10
77.999999999999659
 20
246.85640646055069
 30
0.0
 11
77.999999999999659
 21
240.85640646054978
 31
0.0
  0
LINE
  5
7D
100
AcDbEntity
100
AcDbLine
  8
axe
 62
256
370
-1
  6
ByLayer
 10
61.999999999999659
 20
246.85640646055023
 30
0.0
 11
61.999999999999659
 21
240.85640646055023
 31
0.0
  0
LINE
  5
7E
100
AcDbEntity
100
AcDbLine
  8
axe
 62
256
370
-1
  6
ByLayer
 10
70.0
 20
220.0
 30
0.0
 11
70.000000000000028
 21
239.99999999999997
 31
0.0
  0
LINE
  5
7F
100
AcDbEntity
100
AcDbLine
  8
ALU_CURSEUR_Z
 62
256
370
-1
  6
ByLayer
 10
100.00000000000094
 20
260.0
 30
0.0
 11
100.00000000000091
 21
199.99999999999994
 31
0.0
  0
CIRCLE
  5
80
100
AcDbEntity
100
AcDbCircle
  8
ALU_CURSEUR_Z
 62
256
370
-1
  6
ByLayer
 10
70.0
 20
230.0
 30
0.0
 40
12.500000000000341
  0
LINE
  5
81
100
AcDbEntity
100
AcDbLine
  8
ALU_CURSEUR_Z
 62
256
370
-1
  6
ByLayer
 10
100.00000000000091
 20
199.99999999999994
 30
0.0
 11
50.0
 21
200.0
 31
0.0
  0
LINE
  5
82
100
AcDbEntity
100
AcDbLine
  8
ALU_CURSEUR_Z
 62
256
370
-1
  6
ByLayer
 10
50.0
 20
260.0
 30
0.0
 11
100.00000000000094
 21
260.0
 31
0.0
  0
LINE
  5
83
100
AcDbEntity
100
AcDbLine
  8
ALU_CURSEUR_Z
 62
256
370
-1
  6
ByLayer
 10
50.0
 20
200.0
 30
0.0
 11
50.0
 21
260.0
 31
0.0
  0
LINE
  5
84
100
AcDbEntity
100
AcDbLine
  8
axe
 62
256
370
-1
  6
ByLayer
 10
53.499999999999325
 20
116.14359353944812
 30
0.0
 11
59.499999999999325
 21
116.14359353944766
 31
0.0
  0
LINE
  5
85
100
AcDbEntity
100
AcDbLine
  8
axe
 62
256
370
-1
  6
ByLayer
 10
56.499999999999318
 20
113.14359353944675
 30
0.0
 11
56.499999999999318
 21
119.14359353944766
 31
0.0
  0
LINE
  5
86
100
AcDbEntity
100
AcDbLine
  8
axe
 62
256
370
-1
  6
ByLayer
 10
69.499999999999346
 20
116.14359353944945
 30
0.0
 11
75.499999999999346
 21
116.143593539449
 31
0.0
  0
LINE
  5
87
100
AcDbEntity
100
AcDbLine
  8
axe
 62
256
370
-1
  6
ByLayer
 10
72.499999999999332
 20
113.14359353944809
 30
0.0
 11
72.499999999999332
 21
119.143593539449
 31
0.0
  0
LINE
  5
88
100
AcDbEntity
100
AcDbLine
  8
axe
 62
256
370
-1
  6
ByLayer
 10
69.499999999999346
 20
143.85640646055091
 30
0.0
 11
75.499999999999346
 21
143.85640646055046
 31
0.0
  0
LINE
  5
89
100
AcDbEntity
100
AcDbLine
  8
axe
 62
256
370
-1
  6
ByLayer
 10
72.499999999999332
 20
140.85640646054955
 30
0.0
 11
72.499999999999332
 21
146.85640646055046
 31
0.0
  0
LINE
  5
8A
100
AcDbEntity
100
AcDbLine
  8
axe
 62
256
370
-1
  6
ByLayer
 10
53.499999999999105
 20
143.85640646055049
 30
0.0
 11
59.499999999999105
 21
143.85640646055003
 31
0.0
  0
LINE
  5
8B
100
AcDbEntity
100
AcDbLine
  8
axe
 62
256
370
-1
  6
ByLayer
 10
56.499999999999091
 20
140.85640646054912
 30
0.0
 11
56.499999999999091
 21
146.85640646055003
 31
0.0
  0
LINE
  5
8C
100
AcDbEntity
100
AcDbLine
  8
axe
 62
256
370
-1
  6
ByLayer
 10
78.0
 20
230.0
 30
0.0
 11
61.0
 21
230.0
 31
0.0
  0
LINE
  5
8D
100
AcDbEntity
100
AcDbLine
  8
axe
 62
256
370
-1
  6
ByLayer
 10
13.000000000000028
 20
250.00000000000011
 30
0.0
 11
7.0000000000000284
 21
250.00000000000011
 31
0.0
  0
LINE
  5
8E
100
AcDbEntity
100
AcDbLine
  8
axe
 62
256
370
-1
  6
ByLayer
 10
10.000000000000028
 20
253.00000000000011
 30
0.0
 11
10.000000000000028
 21
247.00000000000011
 31
0.0
  0
LINE
  5
8F
100
AcDbEntity
100
AcDbLine
  8
axe
 62
256
370
-1
  6
ByLayer
 10
13.0
 20
210.0
 30
0.0
 11
7.0
 21
210.0
 31
0.0
  0
LINE
  5
90
100
AcDbEntity
100
AcDbLine
  8
axe
 62
256
370
-1
  6
ByLayer
 10
10.0
 20
213.0
 30
0.0
 11
10.0
 21
207.0
 31
0.0
  0
LINE
  5
91
100
AcDbEntity
100
AcDbLine
  8
axe
 62
256
370
-1
  6
ByLayer
 10
13.000000000000135
 20
149.99999999999997
 30
0.0
 11
7.000000000000135
 21
149.99999999999997
 31
0.0
  0
LINE
  5
92
100
AcDbEntity
100
AcDbLine
  8
axe
 62
256
370
-1
  6
ByLayer
 10
10.000000000000135
 20
152.99999999999997
 30
0.0
 11
10.000000000000135
 21
146.99999999999997
 31
0.0
  0
LINE
  5
93
100
AcDbEntity
100
AcDbLine
  8
axe
 62
256
370
-1
  6
ByLayer
 10
13.000000000000114
 20
109.99999999999997
 30
0.0
 11
7.0000000000001137
 21
109.99999999999997
 31
0.0
  0
LINE
  5
94
100
AcDbEntity
100
AcDbLine
  8
axe
 62
256
370
-1
  6
ByLayer
 10
10.000000000000114
 20
112.99999999999997
 30
0.0
 11
10.000000000000114
 21
106.99999999999997
 31
0.0
  0
LINE
  5
95
100
AcDbEntity
100
AcDbLine
  8
axe
 62
256
370
-1
  6
ByLayer
 10
13.000000000000021
 20
50.0
 30
0.0
 11
7.0000000000000213
 21
50.0
 31
0.0
  0
LINE
  5
96
100
AcDbEntity
100
AcDbLine
  8
axe
 62
256
370
-1
  6
ByLayer
 10
10.000000000000021
 20
53.0
 30
0.0
 11
10.000000000000021
 21
47.0
 31
0.0
  0
LINE
  5
97
100
AcDbEntity
100
AcDbLine
  8
axe
 62
256
370
-1
  6
ByLayer
 10
13.000000000000014
 20
9.9999999999993179
 30
0.0
 11
7.0000000000000142
 21
9.9999999999993179
 31
0.0
  0
LINE
  5
98
100
AcDbEntity
100
AcDbLine
  8
axe
 62
256
370
-1
  6
ByLayer
 10
10.000000000000014
 20
12.999999999999318
 30
0.0
 11
10.000000000000014
 21
6.9999999999993179
 31
0.0
  0
LINE
  5
99
100
AcDbEntity
100
AcDbLine
  8
axe
 62
256
370
-1
  6
ByLayer
 10
45.000000000000384
 20
50.0
 30
0.0
 11
89.499999999999559
 21
50.0
 31
0.0
  0
LINE
  5
9A
100
AcDbEntity
100
AcDbLine
  8
axe
 62
256
370
-1
  6
ByLayer
 10
45.000000000000064
 20
9.9999999999993179
 30
0.0
 11
89.499999999999531
 21
9.9999999999993179
 31
0.0
  0
LINE
  5
9B
100
AcDbEntity
100
AcDbLine
  8
axe
 62
256
370
-1
  6
ByLayer
 10
-5.0
 20
43.856406460549806
 30
0.0
 11
25.000000000000014
 21
43.856406460549806
 31
0.0
  0
LINE
  5
9C
100
AcDbEntity
100
AcDbLine
  8
axe
 62
256
370
-1
  6
ByLayer
 10
-4.9999999999999893
 20
29.999999999999542
 30
0.0
 11
25.000000000000011
 21
29.999999999999542
 31
0.0
  0
LINE
  5
9D
100
AcDbEntity
100
AcDbLine
  8
axe
 62
256
370
-1
  6
ByLayer
 10
-5.0
 20
16.143593539449508
 30
0.0
 11
25.000000000000007
 21
16.143593539449512
 31
0.0
  0
LINE
  5
9E
100
AcDbEntity
100
AcDbLine
  8
cacher
 62
256
370
-1
  6
ByLayer
 10
0.0000000000000152
 20
42.499999999999886
 30
0.0
 11
20.000000000000014
 21
42.499999999999886
 31
0.0
  0
LINE
  5
9F
100
AcDbEntity
100
AcDbLine
  8
cacher
 62
256
370
-1
  6
ByLayer
 10
0.0
 20
17.499999999999201
 30
0.0
 11
20.000000000000014
 21
17.499999999999201
 31
0.0
  0
CIRCLE
  5
A0
100
AcDbEntity
100
AcDbCircle
  8
ALU_CURSEUR_X
 62
256
370
-1
  6
ByLayer
 10
10.000000000000021
 20
50.0
 30
0.0
 40
2.5
  0
ARC
  5
A1
100
AcDbEntity
  8
ALU_CURSEUR_X
 62
256
370
-1
  6
ByLayer
100
AcDbCircle
 10
10.000000000000021
 20
50.0
 30
0.0
 40
3.0000000000000155
100
AcDbArc
 50
350.40593177313957
 51
279.59406822686043
  0
CIRCLE
  5
A2
100
AcDbEntity
100
AcDbCircle
  8
ALU_CURSEUR_X
 62
256
370
-1
  6
ByLayer
 10
56.499999999999552
 20
43.856406460549806
 30
0.0
 40
1.6000000000000001
  0
ARC
  5
A3
100
AcDbEntity
  8
ALU_CURSEUR_X
 62
256
370
-1
  6
ByLayer
100
AcDbCircle
 10
56.499999999999552
 20
43.856406460549806
 30
0.0
 40
1.9999999999994929
100
AcDbArc
 50
352.81924421853984
 51
277.18075578146011
  0
CIRCLE
  5
A4
100
AcDbEntity
100
AcDbCircle
  8
ALU_CURSEUR_X
 62
256
370
-1
  6
ByLayer
 10
72.499999999999545
 20
43.856406460551398
 30
0.0
 40
1.6000000000000001
  0
ARC
  5
A5
100
AcDbEntity
  8
ALU_CURSEUR_X
 62
256
370
-1
  6
ByLayer
100
AcDbCircle
 10
72.499999999999545
 20
43.856406460551398
 30
0.0
 40
1.9999999999994929
100
AcDbArc
 50
352.81924421853984
 51
277.18075578146011
  0
CIRCLE
  5
A6
100
AcDbEntity
100
AcDbCircle
  8
ALU_CURSEUR_X
 62
256
370
-1
  6
ByLayer
 10
56.499999999999545
 20
16.143593539449508
 30
0.0
 40
1.6000000000000001
  0
ARC
  5
A7
100
AcDbEntity
  8
ALU_CURSEUR_X
 62
256
370
-1
  6
ByLayer
100
AcDbCircle
 10
56.499999999999545
 20
16.143593539449508
 30
0.0
 40
1.9999999999994929
100
AcDbArc
 50
352.81924421853984
 51
277.18075578146011
  0
CIRCLE
  5
A8
100
AcDbEntity
100
AcDbCircle
  8
ALU_CURSEUR_X
 62
256
370
-1
  6
ByLayer
 10
72.499999999999545
 20
16.1435935394511
 30
0.0
 40
1.6000000000000001
  0
ARC
  5
A9
100
AcDbEntity
  8
ALU_CURSEUR_X
 62
256
370
-1
  6
ByLayer
100
AcDbCircle
 10
72.499999999999545
 20
16.1435935394511
 30
0.0
 40
1.9999999999994929
100
AcDbArc
 50
352.81924421853984
 51
277.18075578146011
  0
LINE
  5
AA
100
AcDbEntity
100
AcDbLine
  8
cacher
 62
256
370
-1
  6
ByLayer
 10
50.000000000000419
 20
53.000000000000014
 30
0.0
 11
84.499999999999559
 21
53.000000000000014
 31
0.0
  0
LINE
  5
AB
100
AcDbEntity
100
AcDbLine
  8
cacher
 62
256
370
-1
  6
ByLayer
 10
50.000000000000405
 20
52.5
 30
0.0
 11
84.499999999999559
 21
52.5
 31
0.0
  0
LINE
  5
AC
100
AcDbEntity
100
AcDbLine
  8
cacher
 62
256
370
-1
  6
ByLayer
 10
50.000000000000362
 20
47.5
 30
0.0
 11
84.499999999999545
 21
47.5
 31
0.0
  0
LINE
  5
AD
100
AcDbEntity
100
AcDbLine
  8
cacher
 62
256
370
-1
  6
ByLayer
 10
50.000000000000362
 20
46.999999999999979
 30
0.0
 11
84.499999999999545
 21
46.999999999999986
 31
0.0
  0
LINE
  5
AE
100
AcDbEntity
100
AcDbLine
  8
cacher
 62
256
370
-1
  6
ByLayer
 10
0.0000000000000303
 20
45.856406460549302
 30
0.0
 11
20.000000000000011
 21
45.856406460549302
 31
0.0
  0
LINE
  5
AF
100
AcDbEntity
100
AcDbLine
  8
cacher
 62
256
370
-1
  6
ByLayer
 10
0.0000000000000161
 20
45.456406460549807
 30
0.0
 11
20.000000000000011
 21
45.456406460549807
 31
0.0
  0
LINE
  5
B0
100
AcDbEntity
100
AcDbLine
  8
cacher
 62
256
370
-1
  6
ByLayer
 10
0.0
 20
42.256406460549805
 30
0.0
 11
20.000000000000014
 21
42.256406460549805
 31
0.0
  0
LINE
  5
B1
100
AcDbEntity
100
AcDbLine
  8
cacher
 62
256
370
-1
  6
ByLayer
 10
0.0000000000000149
 20
41.856406460550303
 30
0.0
 11
20.000000000000011
 21
41.856406460550311
 31
0.0
  0
LINE
  5
B2
100
AcDbEntity
100
AcDbLine
  8
cacher
 62
256
370
-1
  6
ByLayer
 10
0.0000000000000142
 20
17.499999999999197
 30
0.0
 11
20.000000000000014
 21
17.499999999999197
 31
0.0
  0
LINE
  5
B3
100
AcDbEntity
100
AcDbLine
  8
cacher
 62
256
370
-1
  6
ByLayer
 10
50.000000000000426
 20
6.9999999999990727
 30
0.0
 11
84.499999999999559
 21
6.9999999999990763
 31
0.0
  0
LINE
  5
B4
100
AcDbEntity
100
AcDbLine
  8
cacher
 62
256
370
-1
  6
ByLayer
 10
50.000000000000412
 20
7.499999999999087
 30
0.0
 11
84.499999999999559
 21
7.4999999999990727
 31
0.0
  0
LINE
  5
B5
100
AcDbEntity
100
AcDbLine
  8
cacher
 62
256
370
-1
  6
ByLayer
 10
50.000000000000355
 20
12.499999999999069
 30
0.0
 11
84.499999999999545
 21
12.499999999999069
 31
0.0
  0
LINE
  5
B6
100
AcDbEntity
100
AcDbLine
  8
cacher
 62
256
370
-1
  6
ByLayer
 10
50.000000000000369
 20
12.999999999999115
 30
0.0
 11
84.499999999999545
 21
12.999999999999119
 31
0.0
  0
LINE
  5
B7
100
AcDbEntity
100
AcDbLine
  8
cacher
 62
256
370
-1
  6
ByLayer
 10
0.0000000000000292
 20
14.143593539449782
 30
0.0
 11
20.000000000000011
 21
14.14359353944978
 31
0.0
  0
LINE
  5
B8
100
AcDbEntity
100
AcDbLine
  8
cacher
 62
256
370
-1
  6
ByLayer
 10
0.000000000000015
 20
14.543593539449276
 30
0.0
 11
20.000000000000011
 21
14.543593539449278
 31
0.0
  0
LINE
  5
B9
100
AcDbEntity
100
AcDbLine
  8
cacher
 62
256
370
-1
  6
ByLayer
 10
0.0000000000000005
 20
17.743593539449279
 30
0.0
 11
20.000000000000014
 21
17.743593539449286
 31
0.0
  0
LINE
  5
BA
100
AcDbEntity
100
AcDbLine
  8
cacher
 62
256
370
-1
  6
ByLayer
 10
0.000000000000014
 20
18.14359353944878
 30
0.0
 11
20.000000000000011
 21
18.143593539448773
 31
0.0
  0
CIRCLE
  5
BB
100
AcDbEntity
100
AcDbCircle
  8
ALU_CURSEUR_X
 62
256
370
-1
  6
ByLayer
 10
10.000000000000014
 20
9.9999999999993179
 30
0.0
 40
2.5
  0
ARC
  5
BC
100
AcDbEntity
  8
ALU_CURSEUR_X
 62
256
370
-1
  6
ByLayer
100
AcDbCircle
 10
10.000000000000014
 20
9.9999999999993179
 30
0.0
 40
3.0000000000000155
100
AcDbArc
 50
350.40593177313957
 51
279.59406822686043
  0
LINE
  5
BD
100
AcDbEntity
100
AcDbLine
  8
axe
 62
256
370
-1
  6
ByLayer
 10
45.000000000000163
 20
149.99999999999997
 30
0.0
 11
106.0
 21
149.99999999999997
 31
0.0
  0
LINE
  5
BE
100
AcDbEntity
100
AcDbLine
  8
axe
 62
256
370
-1
  6
ByLayer
 10
-5.0
 20
143.85640646054981
 30
0.0
 11
25.000000000000014
 21
143.85640646054981
 31
0.0
  0
LINE
  5
BF
100
AcDbEntity
100
AcDbLine
  8
axe
 62
256
370
-1
  6
ByLayer
 10
-4.9999999999999893
 20
129.99999999999955
 30
0.0
 11
25.000000000000011
 21
129.99999999999955
 31
0.0
  0
LINE
  5
C0
100
AcDbEntity
100
AcDbLine
  8
axe
 62
256
370
-1
  6
ByLayer
 10
-5.0
 20
116.14359353944951
 30
0.0
 11
25.000000000000007
 21
116.14359353944951
 31
0.0
  0
LINE
  5
C1
100
AcDbEntity
100
AcDbLine
  8
cacher
 62
256
370
-1
  6
ByLayer
 10
0.0000000000000152
 20
142.49999999999989
 30
0.0
 11
20.000000000000014
 21
142.49999999999989
 31
0.0
  0
LINE
  5
C2
100
AcDbEntity
100
AcDbLine
  8
cacher
 62
256
370
-1
  6
ByLayer
 10
0.0000000000000303
 20
145.85640646054929
 30
0.0
 11
20.000000000000011
 21
145.85640646054929
 31
0.0
  0
LINE
  5
C3
100
AcDbEntity
100
AcDbLine
  8
cacher
 62
256
370
-1
  6
ByLayer
 10
0.0000000000000161
 20
145.4564064605498
 30
0.0
 11
20.000000000000011
 21
145.4564064605498
 31
0.0
  0
LINE
  5
C4
100
AcDbEntity
100
AcDbLine
  8
cacher
 62
256
370
-1
  6
ByLayer
 10
0.0
 20
142.25640646054981
 30
0.0
 11
20.000000000000014
 21
142.25640646054981
 31
0.0
  0
LINE
  5
C5
100
AcDbEntity
100
AcDbLine
  8
cacher
 62
256
370
-1
  6
ByLayer
 10
0.0000000000000149
 20
141.85640646055032
 30
0.0
 11
20.000000000000011
 21
141.85640646055032
 31
0.0
  0
LINE
  5
C6
100
AcDbEntity
100
AcDbLine
  8
cacher
 62
256
370
-1
  6
ByLayer
 10
0.0000000000000142
 20
117.4999999999992
 30
0.0
 11
20.000000000000014
 21
117.4999999999992
 31
0.0
  0
LINE
  5
C7
100
AcDbEntity
100
AcDbLine
  8
cacher
 62
256
370
-1
  6
ByLayer
 10
0.0000000000000292
 20
114.14359353944978
 30
0.0
 11
20.000000000000011
 21
114.14359353944978
 31
0.0
  0
LINE
  5
C8
100
AcDbEntity
100
AcDbLine
  8
cacher
 62
256
370
-1
  6
ByLayer
 10
0.000000000000015
 20
114.54359353944928
 30
0.0
 11
20.000000000000011
 21
114.54359353944928
 31
0.0
  0
LINE
  5
C9
100
AcDbEntity
100
AcDbLine
  8
cacher
 62
256
370
-1
  6
ByLayer
 10
0.0000000000000005
 20
117.74359353944928
 30
0.0
 11
20.000000000000014
 21
117.74359353944928
 31
0.0
  0
LINE
  5
CA
100
AcDbEntity
100
AcDbLine
  8
cacher
 62
256
370
-1
  6
ByLayer
 10
0.000000000000014
 20
118.14359353944877
 30
0.0
 11
20.000000000000011
 21
118.14359353944877
 31
0.0
  0
CIRCLE
  5
CB
100
AcDbEntity
100
AcDbCircle
  8
ALU_CURSEUR_Y
 62
256
370
-1
  6
ByLayer
 10
56.499999999999567
 20
143.85640646055023
 30
0.0
 40
1.6000000000000001
  0
ARC
  5
CC
100
AcDbEntity
  8
ALU_CURSEUR_Y
 62
256
370
-1
  6
ByLayer
100
AcDbCircle
 10
56.499999999999567
 20
143.85640646055023
 30
0.0
 40
1.9999999999994929
100
AcDbArc
 50
352.81924421853984
 51
277.18075578146011
  0
CIRCLE
  5
CD
100
AcDbEntity
100
AcDbCircle
  8
ALU_CURSEUR_Y
 62
256
370
-1
  6
ByLayer
 10
72.499999999999559
 20
143.85640646055182
 30
0.0
 40
1.6000000000000001
  0
ARC
  5
CE
100
AcDbEntity
  8
ALU_CURSEUR_Y
 62
256
370
-1
  6
ByLayer
100
AcDbCircle
 10
72.499999999999559
 20
143.85640646055182
 30
0.0
 40
1.9999999999994929
100
AcDbArc
 50
352.81924421853984
 51
277.18075578146011
  0
CIRCLE
  5
CF
100
AcDbEntity
100
AcDbCircle
  8
ALU_CURSEUR_Y
 62
256
370
-1
  6
ByLayer
 10
56.499999999999559
 20
116.14359353944994
 30
0.0
 40
1.6000000000000001
  0
ARC
  5
D0
100
AcDbEntity
  8
ALU_CURSEUR_Y
 62
256
370
-1
  6
ByLayer
100
AcDbCircle
 10
56.499999999999559
 20
116.14359353944994
 30
0.0
 40
1.9999999999994929
100
AcDbArc
 50
352.81924421853984
 51
277.18075578146011
  0
CIRCLE
  5
D1
100
AcDbEntity
100
AcDbCircle
  8
ALU_CURSEUR_Y
 62
256
370
-1
  6
ByLayer
 10
72.499999999999559
 20
116.14359353945153
 30
0.0
 40
1.6000000000000001
  0
ARC
  5
D2
100
AcDbEntity
  8
ALU_CURSEUR_Y
 62
256
370
-1
  6
ByLayer
100
AcDbCircle
 10
72.499999999999559
 20
116.14359353945153
 30
0.0
 40
1.9999999999994929
100
AcDbArc
 50
352.81924421853984
 51
277.18075578146011
  0
LINE
  5
D3
100
AcDbEntity
100
AcDbLine
  8
cacher
 62
256
370
-1
  6
ByLayer
 10
50.000000000000199
 20
153.0
 30
0.0
 11
100.99999999999997
 21
153.0
 31
0.0
  0
LINE
  5
D4
100
AcDbEntity
100
AcDbLine
  8
cacher
 62
256
370
-1
  6
ByLayer
 10
50.000000000000178
 20
146.99999999999994
 30
0.0
 11
100.99999999999997
 21
146.99999999999994
 31
0.0
  0
CIRCLE
  5
D5
100
AcDbEntity
100
AcDbCircle
  8
ALU_CURSEUR_Y
 62
256
370
-1
  6
ByLayer
 10
10.000000000000135
 20
149.99999999999997
 30
0.0
 40
3.000000000000016
  0
LINE
  5
D6
100
AcDbEntity
100
AcDbLine
  8
axe
 62
256
370
-1
  6
ByLayer
 10
45.000000000000142
 20
109.99999999999997
 30
0.0
 11
105.99999999999997
 21
109.99999999999997
 31
0.0
  0
LINE
  5
D7
100
AcDbEntity
100
AcDbLine
  8
cacher
 62
256
370
-1
  6
ByLayer
 10
50.000000000000178
 20
113.0
 30
0.0
 11
100.99999999999994
 21
113.0
 31
0.0
  0
LINE
  5
D8
100
AcDbEntity
100
AcDbLine
  8
cacher
 62
256
370
-1
  6
ByLayer
 10
50.000000000000156
 20
106.99999999999994
 30
0.0
 11
100.99999999999994
 21
106.99999999999994
 31
0.0
  0
CIRCLE
  5
D9
100
AcDbEntity
100
AcDbCircle
  8
ALU_CURSEUR_Y
 62
256
370
-1
  6
ByLayer
 10
10.000000000000114
 20
109.99999999999997
 30
0.0
 40
3.000000000000016
  0
LINE
  5
DA
100
AcDbEntity
100
AcDbLine
  8
axe
 62
256
370
-1
  6
ByLayer
 10
45.000000000000384
 20
250.0
 30
0.0
 11
89.499999999999559
 21
250.0
 31
0.0
  0
LINE
  5
DB
100
AcDbEntity
100
AcDbLine
  8
axe
 62
256
370
-1
  6
ByLayer
 10
45.000000000000064
 20
209.99999999999932
 30
0.0
 11
89.499999999999531
 21
209.99999999999932
 31
0.0
  0
LINE
  5
DC
100
AcDbEntity
100
AcDbLine
  8
axe
 62
256
370
-1
  6
ByLayer
 10
-5.0
 20
243.85640646054981
 30
0.0
 11
25.000000000000014
 21
243.85640646054981
 31
0.0
  0
LINE
  5
DD
100
AcDbEntity
100
AcDbLine
  8
axe
 62
256
370
-1
  6
ByLayer
 10
-4.9999999999999893
 20
229.99999999999955
 30
0.0
 11
25.000000000000011
 21
229.99999999999955
 31
0.0
  0
LINE
  5
DE
100
AcDbEntity
100
AcDbLine
  8
axe
 62
256
370
-1
  6
ByLayer
 10
-5.0
 20
216.14359353944951
 30
0.0
 11
25.000000000000007
 21
216.14359353944951
 31
0.0
  0
LINE
  5
DF
100
AcDbEntity
100
AcDbLine
  8
cacher
 62
256
370
-1
  6
ByLayer
 10
0.0000000000000152
 20
242.49999999999989
 30
0.0
 11
20.000000000000014
 21
242.49999999999989
 31
0.0
  0
LINE
  5
E0
100
AcDbEntity
100
AcDbLine
  8
cacher
 62
256
370
-1
  6
ByLayer
 10
0.0
 20
217.4999999999992
 30
0.0
 11
20.000000000000014
 21
217.4999999999992
 31
0.0
  0
CIRCLE
  5
E1
100
AcDbEntity
100
AcDbCircle
  8
ALU_CURSEUR_X
 62
256
370
-1
  6
ByLayer
 10
10.000000000000021
 20
250.0
 30
0.0
 40
2.5
  0
ARC
  5
E2
100
AcDbEntity
  8
ALU_CURSEUR_X
 62
256
370
-1
  6
ByLayer
100
AcDbCircle
 10
10.000000000000021
 20
250.0
 30
0.0
 40
3.0000000000000155
100
AcDbArc
 50
350.40593177313957
 51
279.59406822686043
  0
LINE
  5
E3
100
AcDbEntity
100
AcDbLine
  8
cacher
 62
256
370
-1
  6
ByLayer
 10
0.0000000000000303
 20
245.85640646054929
 30
0.0
 11
20.000000000000011
 21
245.85640646054929
 31
0.0
  0
LINE
  5
E4
100
AcDbEntity
100
AcDbLine
  8
cacher
 62
256
370
-1
  6
ByLayer
 10
0.0000000000000161
 20
245.4564064605498
 30
0.0
 11
20.000000000000011
 21
245.4564064605498
 31
0.0
  0
LINE
  5
E5
100
AcDbEntity
100
AcDbLine
  8
cacher
 62
256
370
-1
  6
ByLayer
 10
0.0
 20
242.25640646054981
 30
0.0
 11
20.000000000000014
 21
242.25640646054981
 31
0.0
  0
LINE
  5
E6
100
AcDbEntity
100
AcDbLine
  8
cacher
 62
256
370
-1
  6
ByLayer
 10
0.0000000000000149
 20
241.85640646055032
 30
0.0
 11
20.000000000000011
 21
241.85640646055032
 31
0.0
  0
LINE
  5
E7
100
AcDbEntity
100
AcDbLine
  8
cacher
 62
256
370
-1
  6
ByLayer
 10
0.0000000000000142
 20
217.4999999999992
 30
0.0
 11
20.000000000000014
 21
217.4999999999992
 31
0.0
  0
LINE
  5
E8
100
AcDbEntity
100
AcDbLine
  8
cacher
 62
256
370
-1
  6
ByLayer
 10
0.0000000000000292
 20
214.1435935394498
 30
0.0
 11
20.000000000000011
 21
214.14359353944977
 31
0.0
  0
LINE
  5
E9
100
AcDbEntity
100
AcDbLine
  8
cacher
 62
256
370
-1
  6
ByLayer
 10
0.000000000000015
 20
214.54359353944926
 30
0.0
 11
20.000000000000011
 21
214.54359353944929
 31
0.0
  0
LINE
  5
EA
100
AcDbEntity
100
AcDbLine
  8
cacher
 62
256
370
-1
  6
ByLayer
 10
0.0000000000000005
 20
217.74359353944928
 30
0.0
 11
20.000000000000014
 21
217.74359353944928
 31
0.0
  0
LINE
  5
EB
100
AcDbEntity
100
AcDbLine
  8
cacher
 62
256
370
-1
  6
ByLayer
 10
0.000000000000014
 20
218.14359353944877
 30
0.0
 11
20.000000000000011
 21
218.14359353944877
 31
0.0
  0
CIRCLE
  5
EC
100
AcDbEntity
100
AcDbCircle
  8
ALU_CURSEUR_X
 62
256
370
-1
  6
ByLayer
 10
10.000000000000014
 20
209.99999999999932
 30
0.0
 40
2.5
  0
ARC
  5
ED
100
AcDbEntity
  8
ALU_CURSEUR_X
 62
256
370
-1
  6
ByLayer
100
AcDbCircle
 10
10.000000000000014
 20
209.99999999999932
 30
0.0
 40
3.0000000000000155
100
AcDbArc
 50
350.40593177313957
 51
279.59406822686043
  0
LINE
  5
EE
100
AcDbEntity
100
AcDbLine
  8
cacher
 62
256
370
-1
  6
ByLayer
 10
50.000000000000405
 20
252.5
 30
0.0
 11
100.00000000000094
 21
252.5
 31
0.0
  0
LINE
  5
EF
100
AcDbEntity
100
AcDbLine
  8
cacher
 62
256
370
-1
  6
ByLayer
 10
50.000000000000362
 20
247.5
 30
0.0
 11
100.00000000000094
 21
247.5
 31
0.0
  0
LINE
  5
F0
100
AcDbEntity
100
AcDbLine
  8
cacher
 62
256
370
-1
  6
ByLayer
 10
50.000000000000412
 20
207.49999999999909
 30
0.0
 11
100.00000000000091
 21
207.49999999999906
 31
0.0
  0
LINE
  5
F1
100
AcDbEntity
100
AcDbLine
  8
cacher
 62
256
370
-1
  6
ByLayer
 10
50.000000000000355
 20
212.49999999999906
 30
0.0
 11
100.00000000000091
 21
212.49999999999906
 31
0.0
  0
LINE
  5
F2
100
AcDbEntity
100
AcDbLine
  8
cacher
 62
256
370
-1
  6
ByLayer
 10
75.000000000000938
 20
253.0
 30
0.0
 11
100.00000000000094
 21
253.0
 31
0.0
  0
LINE
  5
F3
100
AcDbEntity
100
AcDbLine
  8
cacher
 62
256
370
-1
  6
ByLayer
 10
75.000000000000924
 20
247.0
 30
0.0
 11
100.00000000000094
 21
247.0
 31
0.0
  0
LINE
  5
F4
100
AcDbEntity
100
AcDbLine
  8
cacher
 62
256
370
-1
  6
ByLayer
 10
75.000000000000909
 20
212.99999999999912
 30
0.0
 11
100.00000000000091
 21
212.99999999999912
 31
0.0
  0
LINE
  5
F5
100
AcDbEntity
100
AcDbLine
  8
cacher
 62
256
370
-1
  6
ByLayer
 10
75.000000000000909
 20
206.99999999999909
 30
0.0
 11
100.00000000000091
 21
206.99999999999909
 31
0.0
  0
LINE
  5
F6
100
AcDbEntity
100
AcDbLine
  8
cacher
 62
256
370
-1
  6
ByLayer
 10
75.000000000000938
 20
253.0
 30
0.0
 11
75.000000000000938
 21
247.0
 31
0.0
  0
LINE
  5
F7
100
AcDbEntity
100
AcDbLine
  8
cacher
 62
256
370
-1
  6
ByLayer
 10
75.000000000000909
 20
212.99999999999912
 30
0.0
 11
75.000000000000909
 21
206.99999999999909
 31
0.0
  0
LINE
  5
F8
100
AcDbEntity
100
AcDbLine
  8
cacher
 62
256
370
-1
  6
ByLayer
 10
75.000000000000938
 20
253.0
 30
0.0
 11
74.500000000000938
 21
252.5
 31
0.0
  0
LINE
  5
F9
100
AcDbEntity
100
AcDbLine
  8
cacher
 62
256
370
-1
  6
ByLayer
 10
74.500000000000938
 20
252.5
 30
0.0
 11
74.500000000000938
 21
247.5
 31
0.0
  0
LINE
  5
FA
100
AcDbEntity
100
AcDbLine
  8
cacher
 62
256
370
-1
  6
ByLayer
 10
74.500000000000938
 20
247.5
 30
0.0
 11
75.000000000000938
 21
247.0
 31
0.0
  0
LINE
  5
FB
100
AcDbEntity
100
AcDbLine
  8
cacher
 62
256
370
-1
  6
ByLayer
 10
75.000000000000909
 20
212.99999999999912
 30
0.0
 11
74.500000000000909
 21
212.49999999999906
 31
0.0
  0
LINE
  5
FC
100
AcDbEntity
100
AcDbLine
  8
cacher
 62
256
370
-1
  6
ByLayer
 10
74.500000000000909
 20
212.49999999999906
 30
0.0
 11
74.500000000000909
 21
207.49999999999909
 31
0.0
  0
LINE
  5
FD
100
AcDbEntity
100
AcDbLine
  8
cacher
 62
256
370
-1
  6
ByLayer
 10
74.500000000000909
 20
207.49999999999909
 30
0.0
 11
75.000000000000909
 21
206.99999999999909
 31
0.0
  0
CIRCLE
  5
FE
100
AcDbEntity
100
AcDbCircle
  8
ALU_CURSEUR_X
 62
256
370
-1
  6
ByLayer
 10
61.999999999999659
 20
243.85640646055023
 30
0.0
 40
1.6000000000000001
  0
ARC
  5
FF
100
AcDbEntity
  8
ALU_CURSEUR_X
 62
256
370
-1
  6
ByLayer
100
AcDbCircle
 10
61.999999999999659
 20
243.85640646055023
 30
0.0
 40
1.9999999999994929
100
AcDbArc
 50
352.81924421853984
 51
277.18075578146011
  0
CIRCLE
  5
100
100
AcDbEntity
100
AcDbCircle
  8
ALU_CURSEUR_X
 62
256
370
-1
  6
ByLayer
 10
77.999999999999659
 20
243.85640646055182
 30
0.0
 40
1.6000000000000001
  0
ARC
  5
101
100
AcDbEntity
  8
ALU_CURSEUR_X
 62
256
370
-1
  6
ByLayer
100
AcDbCircle
 10
77.999999999999659
 20
243.85640646055182
 30
0.0
 40
1.9999999999994929
100
AcDbArc
 50
352.81924421853984
 51
277.18075578146011
  0
CIRCLE
  5
102
100
AcDbEntity
100
AcDbCircle
  8
ALU_CURSEUR_X
 62
256
370
-1
  6
ByLayer
 10
61.999999999999652
 20
216.14359353944994
 30
0.0
 40
1.6000000000000001
  0
ARC
  5
103
100
AcDbEntity
  8
ALU_CURSEUR_X
 62
256
370
-1
  6
ByLayer
100
AcDbCircle
 10
61.999999999999652
 20
216.14359353944994
 30
0.0
 40
1.9999999999994929
100
AcDbArc
 50
352.81924421853984
 51
277.18075578146011
  0
CIRCLE
  5
104
100
AcDbEntity
100
AcDbCircle
  8
ALU_CURSEUR_X
 62
256
370
-1
  6
ByLayer
 10
77.999999999999659
 20
216.14359353945153
 30
0.0
 40
1.6000000000000001
  0
ARC
  5
105
100
AcDbEntity
  8
ALU_CURSEUR_X
 62
256
370
-1
  6
ByLayer
100
AcDbCircle
 10
77.999999999999659
 20
216.14359353945153
 30
0.0
 40
1.9999999999994929
100
AcDbArc
 50
352.81924421853984
 51
277.18075578146011
  0
DIMENSION
  5
106
100
AcDbEntity
  8
COTE
 62
256
370
-1
  6
ByLayer
100
AcDbDimension
 10
-30.0
 20
200.0
 30
0.0
 11
-33.75
 21
230.00000000000006
 31
0.0
 70
0
 71
5
 72
1
 41
1.0
 42
0.0
  1

  3
Standard
100
AcDbAlignedDimension
 13
0.0
 23
260.00000000000011
 33
0.0
 14
0.0
 24
200.0
 34
0.0
 50
90.0
100
AcDbRotatedDimension
  0
DIMENSION
  5
107
100
AcDbEntity
  8
COTE
 62
256
370
-1
  6
ByLayer
100
AcDbDimension
 10
-30.000000000000011
 20
100.0
 30
0.0
 11
-33.750000000000007
 21
130.0
 31
0.0
 70
0
 71
5
 72
1
 41
1.0
 42
0.0
  1

  3
Standard
100
AcDbAlignedDimension
 13
0.0000000000000071
 23
160.0
 33
0.0
 14
0.0
 24
100.0
 34
0.0
 50
90.0
100
AcDbRotatedDimension
  0
DIMENSION
  5
108
100
AcDbEntity
  8
COTE
 62
256
370
-1
  6
ByLayer
100
AcDbDimension
 10
-30.000000000000025
 20
0.0000000000000037
 30
0.0
 11
-33.750000000000021
 21
29.999999999999996
 31
0.0
 70
0
 71
5
 72
1
 41
1.0
 42
0.0
  1

  3
Standard
100
AcDbAlignedDimension
 13
0.0000000000000213
 23
60.0
 33
0.0
 14
0.0
 24
0.0
 34
0.0
 50
90.0
100
AcDbRotatedDimension
  0
DIMENSION
  5
109
100
AcDbEntity
  8
COTE
 62
256
370
-1
  6
ByLayer
100
AcDbDimension
 10
20.000000000000114
 20
180.0
 30
0.0
 11
10.00000000000006
 21
183.75
 31
0.0
 70
0
 71
5
 72
1
 41
1.0
 42
0.0
  1

  3
Standard
100
AcDbAlignedDimension
 13
0.0000000000000071
 23
160.0
 33
0.0
 14
20.000000000000114
 24
160.0
 34
0.0
 50
0.0
100
AcDbRotatedDimension
  0
DIMENSION
  5
10A
100
AcDbEntity
  8
COTE
 62
256
370
-1
  6
ByLayer
100
AcDbDimension
 10
101.0
 20
180.0
 30
0.0
 11
75.500000000000114
 21
183.75
 31
0.0
 70
0
 71
5
 72
1
 41
1.0
 42
0.0
  1

  3
Standard
100
AcDbAlignedDimension
 13
50.000000000000227
 23
160.0
 33
0.0
 14
101.0
 24
159.99999999999994
 34
0.0
 50
0.0
100
AcDbRotatedDimension
  0
DIMENSION
  5
10B
100
AcDbEntity
  8
COTE
 62
256
370
-1
  6
ByLayer
100
AcDbDimension
 10
20.000000000000021
 20
80.0
 30
0.0
 11
10.000000000000021
 21
83.75
 31
0.0
 70
0
 71
5
 72
1
 41
1.0
 42
0.0
  1

  3
Standard
100
AcDbAlignedDimension
 13
0.0000000000000213
 23
60.0
 33
0.0
 14
20.000000000000021
 24
60.0
 34
0.0
 50
0.0
100
AcDbRotatedDimension
  0
DIMENSION
  5
10C
100
AcDbEntity
  8
COTE
 62
256
370
-1
  6
ByLayer
100
AcDbDimension
 10
84.499999999999545
 20
80.0
 30
0.0
 11
67.25
 21
83.75
 31
0.0
 70
0
 71
5
 72
1
 41
1.0
 42
0.0
  1

  3
Standard
100
AcDbAlignedDimension
 13
50.000000000000462
 23
60.0
 33
0.0
 14
84.499999999999545
 24
60.0
 34
0.0
 50
0.0
100
AcDbRotatedDimension
  0
DIMENSION
  5
10D
100
AcDbEntity
  8
COTE
 62
256
370
-1
  6
ByLayer
100
AcDbDimension
 10
20.0
 20
280.0
 30
0.0
 11
10.0
 21
283.75
 31
0.0
 70
0
 71
5
 72
1
 41
1.0
 42
0.0
  1

  3
Standard
100
AcDbAlignedDimension
 13
0.0
 23
260.00000000000011
 33
0.0
 14
20.0
 24
260.00000000000011
 34
0.0
 50
0.0
100
AcDbRotatedDimension
  0
DIMENSION
  5
10E
100
AcDbEntity
  8
COTE
 62
256
370
-1
  6
ByLayer
100
AcDbDimension
 10
100.0
 20
280.0
 30
0.0
 11
75.000000000000469
 21
283.75
 31
0.0
 70
0
 71
5
 72
1
 41
1.0
 42
0.0
  1

  3
Standard
100
AcDbAlignedDimension
 13
50.0
 23
260.0
 33
0.0
 14
100.00000000000094
 24
260.0
 34
0.0
 50
0.0
100
AcDbRotatedDimension
  0
DIMENSION
  5
10F
100
AcDbEntity
  8
COTE
 62
256
370
-1
  6
ByLayer
100
AcDbDimension
 10
-20.0
 20
210.0
 30
0.0
 11
-23.75
 21
230.00000000000006
 31
0.0
 70
0
 71
5
 72
1
 41
1.0
 42
0.0
  1

  3
Standard
100
AcDbAlignedDimension
 13
10.000000000000028
 23
250.00000000000011
 33
0.0
 14
10.0
 24
210.0
 34
0.0
 50
90.0
100
AcDbRotatedDimension
  0
DIMENSION
  5
110
100
AcDbEntity
  8
COTE
 62
256
370
-1
  6
ByLayer
100
AcDbDimension
 10
70.000000000000014
 20
270.0
 30
0.0
 11
60.000000000000007
 21
273.75
 31
0.0
 70
0
 71
5
 72
1
 41
1.0
 42
0.0
  1

  3
Standard
100
AcDbAlignedDimension
 13
50.0
 23
260.0
 33
0.0
 14
70.000000000000014
 24
230.0
 34
0.0
 50
0.0
100
AcDbRotatedDimension
  0
DIMENSION
  5
111
100
AcDbEntity
  8
COTE
 62
256
370
-1
  6
ByLayer
100
AcDbDimension
 10
64.499999999999574
 20
170.0
 30
0.0
 11
57.249999999999901
 21
173.75
 31
0.0
 70
0
 71
5
 72
1
 41
1.0
 42
0.0
  1

  3
Standard
100
AcDbAlignedDimension
 13
50.000000000000227
 23
160.0
 33
0.0
 14
64.499999999999574
 24
139.99999999999994
 34
0.0
 50
0.0
100
AcDbRotatedDimension
  0
DIMENSION
  5
112
100
AcDbEntity
  8
COTE
 62
256
370
-1
  6
ByLayer
100
AcDbDimension
 10
64.499999999999545
 20
70.0
 30
0.0
 11
57.25
 21
73.75
 31
0.0
 70
0
 71
5
 72
1
 41
1.0
 42
0.0
  1

  3
Standard
100
AcDbAlignedDimension
 13
50.000000000000462
 23
60.0
 33
0.0
 14
64.499999999999545
 24
40.0
 34
0.0
 50
0.0
100
AcDbRotatedDimension
  0
ENDSEC
  0
SECTION
  2
OBJECTS
  0
DICTIONARY
  5
C
100
AcDbDictionary
280
0
281
1
  3
ACAD_GROUP
350
D
  3
ACAD_LAYOUT
350
1A
  3
ACAD_MLINESTYLE
350
17
  3
ACAD_PLOTSETTINGS
350
19
  3
ACAD_PLOTSTYLENAME
350
E
  3
AcDbVariableDictionary
350
113
  0
DICTIONARY
  5
D
100
AcDbDictionary
280
0
281
1
  0
ACDBDICTIONARYWDFLT
  5
E
100
AcDbDictionary
281
1
  3
Normal
350
F
100
AcDbDictionaryWithDefault
340
F
  0
ACDBPLACEHOLDER
  5
F
  0
DICTIONARY
  5
17
100
AcDbDictionary
280
0
281
1
  3
Standard
350
18
  0
MLINESTYLE
  5
18
100
AcDbMlineStyle
  2
STANDARD
 70
0
  3

 62
256
 51
90.0
 52
90.0
 71
2
 49
0.5
 62
256
  6
BYLAYER
 49
-0.5
 62
256
  6
BYLAYER
  0
DICTIONARY
  5
19
100
AcDbDictionary
280
0
281
1
  0
DICTIONARY
  5
1A
100
AcDbDictionary
281
1
  3
Layout1
350
1E
  3
Layout2
350
26
  3
Model
350
22
  0
LAYOUT
  5
1E
100
AcDbPlotSettings
  1

  2
C:\Program Files\AutoCAD 2002\plotters\DWF ePlot (optimized for plotting).pc3
  4

  6

 40
0.0
 41
0.0
 42
0.0
 43
0.0
 44
0.0
 45
0.0
 46
0.0
 47
0.0
 48
0.0
 49
0.0
140
0.0
141
0.0
142
1.0
143
1.0
 70
688
 72
0
 73
0
 74
5
  7

 75
16
147
1.0
148
0.0
149
0.0
100
AcDbLayout
  1
Layout1
 70
1
 71
1
 10
0.0
 20
0.0
 11
420.0
 21
297.0
 12
0.0
 22
0.0
 32
0.0
 14
100000000000000000000.0
 24
100000000000000000000.0
 34
100000000000000000000.0
 15
-100000000000000000000.0
 25
-100000000000000000000.0
 35
-100000000000000000000.0
146
0.0
 13
0.0
 23
0.0
 33
0.0
 16
1.0
 26
0.0
 36
0.0
 17
0.0
 27
1.0
 37
0.0
 76
0
330
1B
  0
LAYOUT
  5
22
100
AcDbPlotSettings
  1

  2
C:\Program Files\AutoCAD 2002\plotters\DWF ePlot (optimized for plotting).pc3
  4

  6

 40
0.0
 41
0.0
 42
0.0
 43
0.0
 44
0.0
 45
0.0
 46
0.0
 47
0.0
 48
0.0
 49
0.0
140
0.0
141
0.0
142
1.0
143
1.0
 70
1712
 72
0
 73
0
 74
0
  7

 75
0
147
1.0
148
0.0
149
0.0
100
AcDbLayout
  1
Model
 70
1
 71
0
 10
0.0
 20
0.0
 11
12.0
 21
9.0
 12
0.0
 22
0.0
 32
0.0
 14
0.0
 24
0.0
 34
0.0
 15
0.0
 25
0.0
 35
0.0
146
0.0
 13
0.0
 23
0.0
 33
0.0
 16
1.0
 26
0.0
 36
0.0
 17
0.0
 27
1.0
 37
0.0
 76
0
330
1F
  0
LAYOUT
  5
26
100
AcDbPlotSettings
  1

  2
C:\Program Files\AutoCAD 2002\plotters\DWF ePlot (optimized for plotting).pc3
  4

  6

 40
0.0
 41
0.0
 42
0.0
 43
0.0
 44
0.0
 45
0.0
 46
0.0
 47
0.0
 48
0.0
 49
0.0
140
0.0
141
0.0
142
1.0
143
1.0
 70
688
 72
0
 73
0
 74
5
  7

 75
16
147
1.0
148
0.0
149
0.0
100
AcDbLayout
  1
Layout2
 70
1
 71
2
 10
0.0
 20
0.0
 11
12.0
 21
9.0
 12
0.0
 22
0.0
 32
0.0
 14
0.0
 24
0.0
 34
0.0
 15
0.0
 25
0.0
 35
0.0
146
0.0
 13
0.0
 23
0.0
 33
0.0
 16
1.0
 26
0.0
 36
0.0
 17
0.0
 27
1.0
 37
0.0
 76
0
330
23
  0
DICTIONARY
  5
113
100
AcDbDictionary
281
1
  3
DIMASSOC
350
115
  3
HIDETEXT
350
114
  0
DICTIONARYVAR
  5
114
100
DictionaryVariables
280
0
  1
2
  0
DICTIONARYVAR
  5
115
100
DictionaryVariables
280
0
  1
1
  0
ENDSEC
  0
EOF
