999
dxflib 2.2.0.0
  0
SECTION
  2
HEADER
  9
$ACADVER
  1
AC1015
  9
$HANDSEED
  5
FFFF
  9
$SPLINESEGS
 70
8
  9
$DIMEXE
 40
5.0
  9
$DIMAZIN
 70
8
  9
$DIMZIN
 70
8
  9
$DIMLUNIT
 70
2
  9
$GRIDMODE
 70
1
  9
$INSUNITS
 70
0
  9
$DIMADEC
 70
2
  9
$DIMASZ
 40
10.0
  9
$DIMGAP
 40
2.5
  9
$DIMTXT
 40
10.0
  9
$GRIDUNIT
 10
0.0
 20
0.0
  9
$DIMEXO
 40
2.5
  9
$LUPREC
 70
4
  9
$CLAYER
  8
cote
  9
$DIMAUNIT
 70
0
  9
$AUPREC
 70
2
  9
$PLIMMIN
 10
0.0
 20
0.0
  9
$LUNITS
 70
2
  9
$PLIMMAX
 10
210.0
 20
297.0
  9
$DIMSTYLE
  2
Standard
  9
$AUNITS
 70
0
  9
$CLAYER
  8
cote
  0
ENDSEC
  0
SECTION
  2
TABLES
  0
TABLE
  2
VPORT
  5
8
100
AcDbSymbolTable
 70
1
  0
VPORT
  5
30
100
AcDbSymbolTableRecord
100
AcDbViewportTableRecord
  2
*Active
 70
0
 10
0.0
 20
0.0
 11
1.0
 21
1.0
 12
286.30555555555549
 22
148.5
 13
0.0
 23
0.0
 14
10.0
 24
10.0
 15
10.0
 25
10.0
 16
0.0
 26
0.0
 36
1.0
 17
0.0
 27
0.0
 37
0.0
 40
297.0
 41
1.92798353909465
 42
50.0
 43
0.0
 44
0.0
 50
0.0
 51
0.0
 71
0
 72
100
 73
1
 74
3
 75
1
 76
1
 77
0
 78
0
281
0
 65
1
110
0.0
120
0.0
130
0.0
111
1.0
121
0.0
131
0.0
112
0.0
122
1.0
132
0.0
 79
0
146
0.0
  0
ENDTAB
  0
TABLE
  2
LTYPE
  5
5
100
AcDbSymbolTable
 70
21
  0
LTYPE
  5
14
100
AcDbSymbolTableRecord
100
AcDbLinetypeTableRecord
  2
ByBlock
 70
0
  3

 72
65
 73
0
 40
0.0
  0
LTYPE
  5
15
100
AcDbSymbolTableRecord
100
AcDbLinetypeTableRecord
  2
ByLayer
 70
0
  3

 72
65
 73
0
 40
0.0
  0
LTYPE
  5
16
100
AcDbSymbolTableRecord
100
AcDbLinetypeTableRecord
  2
CONTINUOUS
 70
0
  3
Solid line
 72
65
 73
0
 40
0.0
  0
LTYPE
  5
31
100
AcDbSymbolTableRecord
100
AcDbLinetypeTableRecord
  2
DOT
 70
0
  3
Dot . . . . . . . . . . . . . . . . . . . . . .
 72
65
 73
2
 40
6.3499999999999996
 49
0.0
 74
0
 49
-6.3499999999999996
 74
0
  0
LTYPE
  5
32
100
AcDbSymbolTableRecord
100
AcDbLinetypeTableRecord
  2
DOT2
 70
0
  3
Dot (.5x) .....................................
 72
65
 73
2
 40
3.1749999999999998
 49
0.0
 74
0
 49
-3.1749999999999998
 74
0
  0
LTYPE
  5
33
100
AcDbSymbolTableRecord
100
AcDbLinetypeTableRecord
  2
DOTX2
 70
0
  3
Dot (2x) .  .  .  .  .  .  .  .  .  .  .  .  .
 72
65
 73
2
 40
12.699999999999999
 49
0.0
 74
0
 49
-12.699999999999999
 74
0
  0
LTYPE
  5
34
100
AcDbSymbolTableRecord
100
AcDbLinetypeTableRecord
  2
DASHED
 70
0
  3
Dashed __ __ __ __ __ __ __ __ __ __ __ __ __ _
 72
65
 73
2
 40
19.050000000000001
 49
12.699999999999999
 74
0
 49
-6.3499999999999996
 74
0
  0
LTYPE
  5
35
100
AcDbSymbolTableRecord
100
AcDbLinetypeTableRecord
  2
DASHED2
 70
0
  3
Dashed (.5x) _ _ _ _ _ _ _ _ _ _ _ _ _ _ _ _ _
 72
65
 73
2
 40
9.5250000000000004
 49
6.3499999999999996
 74
0
 49
-3.1749999999999998
 74
0
  0
LTYPE
  5
36
100
AcDbSymbolTableRecord
100
AcDbLinetypeTableRecord
  2
DASHEDX2
 70
0
  3
Dashed (2x) ____  ____  ____  ____  ____  ___
 72
65
 73
2
 40
38.100000000000001
 49
25.399999999999999
 74
0
 49
-12.699999999999999
 74
0
  0
LTYPE
  5
37
100
AcDbSymbolTableRecord
100
AcDbLinetypeTableRecord
  2
DASHDOT
 70
0
  3
Dash dot __ . __ . __ . __ . __ . __ . __ . __
 72
65
 73
4
 40
25.399999999999999
 49
12.699999999999999
 74
0
 49
-6.3499999999999996
 74
0
 49
0.0
 74
0
 49
-6.3499999999999996
 74
0
  0
LTYPE
  5
38
100
AcDbSymbolTableRecord
100
AcDbLinetypeTableRecord
  2
DASHDOT2
 70
0
  3
Dash dot (.5x) _._._._._._._._._._._._._._._.
 72
65
 73
4
 40
12.699999999999999
 49
6.3499999999999996
 74
0
 49
-3.1749999999999998
 74
0
 49
0.0
 74
0
 49
-3.1749999999999998
 74
0
  0
LTYPE
  5
39
100
AcDbSymbolTableRecord
100
AcDbLinetypeTableRecord
  2
DASHDOTX2
 70
0
  3
Dash dot (2x) ____  .  ____  .  ____  .  ___
 72
65
 73
4
 40
50.799999999999997
 49
25.399999999999999
 74
0
 49
-12.699999999999999
 74
0
 49
0.0
 74
0
 49
-12.699999999999999
 74
0
  0
LTYPE
  5
3A
100
AcDbSymbolTableRecord
100
AcDbLinetypeTableRecord
  2
DIVIDE
 70
0
  3
Divide ____ . . ____ . . ____ . . ____ . . ____
 72
65
 73
6
 40
31.75
 49
12.699999999999999
 74
0
 49
-6.3499999999999996
 74
0
 49
0.0
 74
0
 49
-6.3499999999999996
 74
0
 49
0.0
 74
0
 49
-6.3499999999999996
 74
0
  0
LTYPE
  5
3B
100
AcDbSymbolTableRecord
100
AcDbLinetypeTableRecord
  2
DIVIDE2
 70
0
  3
Divide (.5x) __..__..__..__..__..__..__..__.._
 72
65
 73
6
 40
15.875
 49
6.3499999999999996
 74
0
 49
-3.1749999999999998
 74
0
 49
0.0
 74
0
 49
-3.1749999999999998
 74
0
 49
0.0
 74
0
 49
-3.1749999999999998
 74
0
  0
LTYPE
  5
3C
100
AcDbSymbolTableRecord
100
AcDbLinetypeTableRecord
  2
DIVIDEX2
 70
0
  3
Divide (2x) ________  .  .  ________  .  .  _
 72
65
 73
6
 40
63.5
 49
25.399999999999999
 74
0
 49
-12.699999999999999
 74
0
 49
0.0
 74
0
 49
-12.699999999999999
 74
0
 49
0.0
 74
0
 49
-12.699999999999999
 74
0
  0
LTYPE
  5
3D
100
AcDbSymbolTableRecord
100
AcDbLinetypeTableRecord
  2
CENTER
 70
0
  3
Center ____ _ ____ _ ____ _ ____ _ ____ _ ____
 72
65
 73
4
 40
50.799999999999997
 49
31.75
 74
0
 49
-6.3499999999999996
 74
0
 49
6.3499999999999996
 74
0
 49
-6.3499999999999996
 74
0
  0
LTYPE
  5
3E
100
AcDbSymbolTableRecord
100
AcDbLinetypeTableRecord
  2
CENTER2
 70
0
  3
Center (.5x) ___ _ ___ _ ___ _ ___ _ ___ _ ___
 72
65
 73
4
 40
28.574999999999999
 49
19.050000000000001
 74
0
 49
-3.1749999999999998
 74
0
 49
3.1749999999999998
 74
0
 49
-3.1749999999999998
 74
0
  0
LTYPE
  5
3F
100
AcDbSymbolTableRecord
100
AcDbLinetypeTableRecord
  2
CENTERX2
 70
0
  3
Center (2x) ________  __  ________  __  _____
 72
65
 73
4
 40
101.59999999999999
 49
63.5
 74
0
 49
-12.699999999999999
 74
0
 49
12.699999999999999
 74
0
 49
-12.699999999999999
 74
0
  0
LTYPE
  5
40
100
AcDbSymbolTableRecord
100
AcDbLinetypeTableRecord
  2
BORDER
 70
0
  3
Border __ __ . __ __ . __ __ . __ __ . __ __ .
 72
65
 73
6
 40
44.450000000000003
 49
12.699999999999999
 74
0
 49
-6.3499999999999996
 74
0
 49
12.699999999999999
 74
0
 49
-6.3499999999999996
 74
0
 49
0.0
 74
0
 49
-6.3499999999999996
 74
0
  0
LTYPE
  5
41
100
AcDbSymbolTableRecord
100
AcDbLinetypeTableRecord
  2
BORDER2
 70
0
  3
Border (.5x) __.__.__.__.__.__.__.__.__.__.__.
 72
65
 73
6
 40
22.225000000000001
 49
6.3499999999999996
 74
0
 49
-3.1749999999999998
 74
0
 49
6.3499999999999996
 74
0
 49
-3.1749999999999998
 74
0
 49
0.0
 74
0
 49
-3.1749999999999998
 74
0
  0
LTYPE
  5
42
100
AcDbSymbolTableRecord
100
AcDbLinetypeTableRecord
  2
BORDERX2
 70
0
  3
Border (2x) ____  ____  .  ____  ____  .  ___
 72
65
 73
6
 40
88.900000000000006
 49
25.399999999999999
 74
0
 49
-12.699999999999999
 74
0
 49
25.399999999999999
 74
0
 49
-12.699999999999999
 74
0
 49
0.0
 74
0
 49
-12.699999999999999
 74
0
  0
ENDTAB
  0
TABLE
  2
LAYER
  5
2
100
AcDbSymbolTable
 70
5
  0
LAYER
  5
10
100
AcDbSymbolTableRecord
100
AcDbLayerTableRecord
  2
0
 70
0
 62
7
420
0
  6
CONTINUOUS
370
25
390
F
  0
LAYER
  5
43
100
AcDbSymbolTableRecord
100
AcDbLayerTableRecord
  2
axe
 70
0
 62
1
420
16711680
  6
DASHDOTX2
370
0
390
F
  0
LAYER
  5
44
100
AcDbSymbolTableRecord
100
AcDbLayerTableRecord
  2
ALU_CHASSIS
 70
0
 62
7
420
0
  6
CONTINUOUS
370
0
390
F
  0
LAYER
  5
45
100
AcDbSymbolTableRecord
100
AcDbLayerTableRecord
  2
cote
 70
0
 62
5
420
255
  6
CONTINUOUS
370
0
390
F
  0
LAYER
  5
46
100
AcDbSymbolTableRecord
100
AcDbLayerTableRecord
  2
ALU_CURSEUR_Y
 70
0
 62
7
420
0
  6
CONTINUOUS
370
0
390
F
  0
ENDTAB
  0
TABLE
  2
STYLE
  5
3
100
AcDbSymbolTable
 70
1
  0
STYLE
  5
11
100
AcDbSymbolTableRecord
100
AcDbTextStyleTableRecord
  2
Standard
 70
0
 40
0.0
 41
0.75
 50
0.0
 71
0
 42
2.5
  3
txt
  4

  0
ENDTAB
  0
TABLE
  2
VIEW
  5
6
100
AcDbSymbolTable
 70
0
  0
ENDTAB
  0
TABLE
  2
UCS
  5
7
100
AcDbSymbolTable
 70
0
  0
ENDTAB
  0
TABLE
  2
APPID
  5
9
100
AcDbSymbolTable
 70
1
  0
APPID
  5
12
100
AcDbSymbolTableRecord
100
AcDbRegAppTableRecord
  2
ACAD
 70
0
  0
ENDTAB
  0
TABLE
  2
DIMSTYLE
  5
A
100
AcDbSymbolTable
 70
1
100
AcDbDimStyleTable
 71
0
  0
DIMSTYLE
105
27
100
AcDbSymbolTableRecord
100
AcDbDimStyleTableRecord
  2
Standard
 41
10.0
 42
2.5
 43
3.75
 44
5.0
 70
0
 73
0
 74
0
 77
1
 78
8
140
10.0
141
2.5
143
0.03937007874016
147
2.5
171
3
172
1
271
2
272
2
274
3
278
44
283
0
284
8
340
11
  0
ENDTAB
  0
TABLE
  2
BLOCK_RECORD
  5
1
100
AcDbSymbolTable
 70
1
  0
BLOCK_RECORD
  5
1F
100
AcDbSymbolTableRecord
100
AcDbBlockTableRecord
  2
*Model_Space
340
22
  0
BLOCK_RECORD
  5
1B
100
AcDbSymbolTableRecord
100
AcDbBlockTableRecord
  2
*Paper_Space
340
1E
  0
BLOCK_RECORD
  5
23
100
AcDbSymbolTableRecord
100
AcDbBlockTableRecord
  2
*Paper_Space0
340
26
  0
ENDTAB
  0
ENDSEC
  0
SECTION
  2
BLOCKS
  0
BLOCK
  5
20
100
AcDbEntity
  8
0
100
AcDbBlockBegin
  2
*Model_Space
 70
0
 10
0.0
 20
0.0
 30
0.0
  3
*Model_Space
  1

  0
ENDBLK
  5
21
100
AcDbEntity
  8
0
100
AcDbBlockEnd
  0
BLOCK
  5
1C
100
AcDbEntity
 67
1
  8
0
100
AcDbBlockBegin
  2
*Paper_Space
 70
0
 10
0.0
 20
0.0
 30
0.0
  3
*Paper_Space
  1

  0
ENDBLK
  5
1D
100
AcDbEntity
 67
1
  8
0
100
AcDbBlockEnd
  0
BLOCK
  5
24
100
AcDbEntity
  8
0
100
AcDbBlockBegin
  2
*Paper_Space0
 70
0
 10
0.0
 20
0.0
 30
0.0
  3
*Paper_Space0
  1

  0
ENDBLK
  5
25
100
AcDbEntity
  8
0
100
AcDbBlockEnd
  0
ENDSEC
  0
SECTION
  2
ENTITIES
  0
LINE
  5
47
100
AcDbEntity
100
AcDbLine
  8
axe
 62
256
370
-1
  6
ByLayer
 10
478.00000000000006
 20
56.499999999999716
 30
0.0
 11
457.99999999999994
 21
56.499999999999716
 31
0.0
  0
LINE
  5
48
100
AcDbEntity
100
AcDbLine
  8
axe
 62
256
370
-1
  6
ByLayer
 10
467.99999999999994
 20
66.499999999999716
 30
0.0
 11
467.99999999999994
 21
46.499999999999716
 31
0.0
  0
LINE
  5
49
100
AcDbEntity
100
AcDbLine
  8
axe
 62
256
370
-1
  6
ByLayer
 10
491.57000000000011
 20
37.929999999999552
 30
0.0
 11
491.57000000000011
 21
27.929999999999552
 31
0.0
  0
LINE
  5
4A
100
AcDbEntity
100
AcDbLine
  8
axe
 62
256
370
-1
  6
ByLayer
 10
444.43000000000023
 20
37.929999999999552
 30
0.0
 11
444.43000000000023
 21
27.929999999999552
 31
0.0
  0
LINE
  5
4B
100
AcDbEntity
100
AcDbLine
  8
axe
 62
256
370
-1
  6
ByLayer
 10
491.57000000000022
 20
85.069999999999652
 30
0.0
 11
491.57000000000022
 21
75.069999999999652
 31
0.0
  0
LINE
  5
4C
100
AcDbEntity
100
AcDbLine
  8
axe
 62
256
370
-1
  6
ByLayer
 10
444.43000000000035
 20
85.069999999999652
 30
0.0
 11
444.43000000000035
 21
75.069999999999652
 31
0.0
  0
LINE
  5
4D
100
AcDbEntity
100
AcDbLine
  8
axe
 62
256
370
-1
  6
ByLayer
 10
496.57000000000011
 20
80.069999999999652
 30
0.0
 11
486.57000000000022
 21
80.069999999999652
 31
0.0
  0
LINE
  5
4E
100
AcDbEntity
100
AcDbLine
  8
axe
 62
256
370
-1
  6
ByLayer
 10
449.43000000000035
 20
80.069999999999652
 30
0.0
 11
439.43000000000023
 21
80.069999999999652
 31
0.0
  0
LINE
  5
4F
100
AcDbEntity
100
AcDbLine
  8
axe
 62
256
370
-1
  6
ByLayer
 10
449.43000000000023
 20
32.929999999999552
 30
0.0
 11
439.43000000000023
 21
32.929999999999552
 31
0.0
  0
LINE
  5
50
100
AcDbEntity
100
AcDbLine
  8
axe
 62
256
370
-1
  6
ByLayer
 10
496.57000000000022
 20
32.929999999999552
 30
0.0
 11
486.57000000000011
 21
32.929999999999552
 31
0.0
  0
LINE
  5
51
100
AcDbEntity
100
AcDbLine
  8
axe
 62
256
370
-1
  6
ByLayer
 10
488.00000000000006
 20
56.499999999999716
 30
0.0
 11
448.00000000000006
 21
56.499999999999716
 31
0.0
  0
LINE
  5
52
100
AcDbEntity
100
AcDbLine
  8
axe
 62
256
370
-1
  6
ByLayer
 10
468.00000000000006
 20
76.499999999999261
 30
0.0
 11
467.99999999999994
 21
36.499999999997897
 31
0.0
  0
LINE
  5
53
100
AcDbEntity
100
AcDbLine
  8
axe
 62
256
370
-1
  6
ByLayer
 10
505.00000000000006
 20
63.499999999999261
 30
0.0
 11
525.0
 21
63.499999999999233
 31
0.0
  0
LINE
  5
54
100
AcDbEntity
100
AcDbLine
  8
axe
 62
256
370
-1
  6
ByLayer
 10
535.0
 20
63.499999999999261
 30
0.0
 11
555.0
 21
63.499999999999261
 31
0.0
  0
LINE
  5
55
100
AcDbEntity
100
AcDbLine
  8
axe
 62
256
370
-1
  6
ByLayer
 10
545.0
 20
53.499999999999659
 30
0.0
 11
545.0
 21
73.499999999999204
 31
0.0
  0
LINE
  5
56
100
AcDbEntity
100
AcDbLine
  8
axe
 62
256
370
-1
  6
ByLayer
 10
430.99999999999983
 20
63.499999999999261
 30
0.0
 11
410.99999999999983
 21
63.499999999999233
 31
0.0
  0
LINE
  5
57
100
AcDbEntity
100
AcDbLine
  8
axe
 62
256
370
-1
  6
ByLayer
 10
400.99999999999983
 20
63.499999999999233
 30
0.0
 11
380.99999999999989
 21
63.499999999999261
 31
0.0
  0
LINE
  5
58
100
AcDbEntity
100
AcDbLine
  8
axe
 62
256
370
-1
  6
ByLayer
 10
390.99999999999983
 20
53.499999999999659
 30
0.0
 11
390.99999999999983
 21
73.499999999999289
 31
0.0
  0
LINE
  5
59
100
AcDbEntity
100
AcDbLine
  8
axe
 62
256
370
-1
  6
ByLayer
 10
493.00000000000006
 20
56.499999999999716
 30
0.0
 11
443.00000000000006
 21
56.499999999999716
 31
0.0
  0
LINE
  5
5A
100
AcDbEntity
100
AcDbLine
  8
axe
 62
256
370
-1
  6
ByLayer
 10
467.99999999999994
 20
81.499999999999261
 30
0.0
 11
467.99999999999994
 21
31.500000000001535
 31
0.0
  0
LINE
  5
5B
100
AcDbEntity
100
AcDbLine
  8
axe
 62
256
370
-1
  6
ByLayer
 10
217.99999999999994
 20
47.999999999997783
 30
0.0
 11
217.99999999999994
 21
67.999999999999318
 31
0.0
  0
LINE
  5
5C
100
AcDbEntity
100
AcDbLine
  8
axe
 62
256
370
-1
  6
ByLayer
 10
217.99999999999994
 20
77.999999999999545
 30
0.0
 11
217.99999999999994
 21
97.999999999999204
 31
0.0
  0
LINE
  5
5D
100
AcDbEntity
100
AcDbLine
  8
axe
 62
256
370
-1
  6
ByLayer
 10
228.0
 20
57.999999999998465
 30
0.0
 11
208.0
 21
57.999999999998636
 31
0.0
  0
LINE
  5
5E
100
AcDbEntity
100
AcDbLine
  8
axe
 62
256
370
-1
  6
ByLayer
 10
228.0
 20
87.999999999999432
 30
0.0
 11
208.0
 21
87.999999999999261
 31
0.0
  0
LINE
  5
5F
100
AcDbEntity
100
AcDbLine
  8
axe
 62
256
370
-1
  6
ByLayer
 10
10.0
 20
82.999999999999517
 30
0.0
 11
30.0
 21
82.999999999999233
 31
0.0
  0
LINE
  5
60
100
AcDbEntity
100
AcDbLine
  8
axe
 62
256
370
-1
  6
ByLayer
 10
10.0
 20
42.999999999999034
 30
0.0
 11
30.0
 21
42.999999999999432
 31
0.0
  0
LINE
  5
61
100
AcDbEntity
100
AcDbLine
  8
axe
 62
256
370
-1
  6
ByLayer
 10
20.0
 20
92.999999999999375
 30
0.0
 11
20.0
 21
72.999999999998806
 31
0.0
  0
LINE
  5
62
100
AcDbEntity
100
AcDbLine
  8
axe
 62
256
370
-1
  6
ByLayer
 10
20.0
 20
52.999999999999091
 30
0.0
 11
20.0
 21
32.999999999998295
 31
0.0
  0
LINE
  5
63
100
AcDbEntity
100
AcDbLine
  8
axe
 62
256
370
-1
  6
ByLayer
 10
925.99999999999977
 20
82.999999999998721
 30
0.0
 11
905.99999999999977
 21
82.999999999999204
 31
0.0
  0
LINE
  5
64
100
AcDbEntity
100
AcDbLine
  8
axe
 62
256
370
-1
  6
ByLayer
 10
925.99999999999977
 20
42.999999999998863
 30
0.0
 11
905.99999999999977
 21
42.999999999996533
 31
0.0
  0
LINE
  5
65
100
AcDbEntity
100
AcDbLine
  8
axe
 62
256
370
-1
  6
ByLayer
 10
915.99999999999977
 20
92.999999999999432
 30
0.0
 11
915.99999999999977
 21
72.999999999998806
 31
0.0
  0
LINE
  5
66
100
AcDbEntity
100
AcDbLine
  8
axe
 62
256
370
-1
  6
ByLayer
 10
915.99999999999977
 20
52.999999999999034
 30
0.0
 11
915.99999999999977
 21
33.000000000000341
 31
0.0
  0
LINE
  5
67
100
AcDbEntity
100
AcDbLine
  8
ALU_CHASSIS
 62
256
370
-1
  6
ByLayer
 10
0.0
 20
102.99999999999883
 30
0.0
 11
0.0
 21
0.0
 31
0.0
  0
LINE
  5
68
100
AcDbEntity
100
AcDbLine
  8
ALU_CHASSIS
 62
256
370
-1
  6
ByLayer
 10
0.0
 20
0.0
 30
0.0
 11
935.99999999999955
 21
-0.0000000000007958
 31
0.0
  0
LINE
  5
69
100
AcDbEntity
100
AcDbLine
  8
ALU_CHASSIS
 62
256
370
-1
  6
ByLayer
 10
935.99999999999977
 20
102.99999999999883
 30
0.0
 11
0.0
 21
102.99999999999883
 31
0.0
  0
LINE
  5
6A
100
AcDbEntity
100
AcDbLine
  8
ALU_CHASSIS
 62
256
370
-1
  6
ByLayer
 10
935.99999999999955
 20
-0.0000000000007958
 30
0.0
 11
935.99999999999977
 21
102.99999999999883
 31
0.0
  0
LINE
  5
6B
100
AcDbEntity
100
AcDbLine
  8
axe
 62
256
370
-1
  6
ByLayer
 10
421.00000000000006
 20
53.499999999999034
 30
0.0
 11
420.99999999999994
 21
77.043331355158898
 31
0.0
  0
LINE
  5
6C
100
AcDbEntity
100
AcDbLine
  8
axe
 62
256
370
-1
  6
ByLayer
 10
515.0
 20
53.499999999999403
 30
0.0
 11
515.0
 21
73.626945983930852
 31
0.0
  0
CIRCLE
  5
6D
100
AcDbEntity
100
AcDbCircle
  8
ALU_CHASSIS
 62
256
370
-1
  6
ByLayer
 10
390.99999999999983
 20
63.499999999999233
 30
0.0
 40
6.0
  0
CIRCLE
  5
6E
100
AcDbEntity
100
AcDbCircle
  8
ALU_CHASSIS
 62
256
370
-1
  6
ByLayer
 10
421.00000000000006
 20
63.499999999999261
 30
0.0
 40
6.0
  0
CIRCLE
  5
6F
100
AcDbEntity
100
AcDbCircle
  8
ALU_CHASSIS
 62
256
370
-1
  6
ByLayer
 10
515.0
 20
63.499999999999261
 30
0.0
 40
6.0
  0
CIRCLE
  5
70
100
AcDbEntity
100
AcDbCircle
  8
ALU_CHASSIS
 62
256
370
-1
  6
ByLayer
 10
545.0
 20
63.499999999999233
 30
0.0
 40
6.0
  0
CIRCLE
  5
71
100
AcDbEntity
100
AcDbCircle
  8
ALU_CHASSIS
 62
256
370
-1
  6
ByLayer
 10
217.99999999999994
 20
87.999999999999091
 30
0.0
 40
6.0
  0
CIRCLE
  5
72
100
AcDbEntity
100
AcDbCircle
  8
ALU_CHASSIS
 62
256
370
-1
  6
ByLayer
 10
217.99999999999994
 20
57.99999999999855
 30
0.0
 40
6.0
  0
CIRCLE
  5
73
100
AcDbEntity
100
AcDbCircle
  8
ALU_CHASSIS
 62
256
370
-1
  6
ByLayer
 10
718.0
 20
87.999999999998948
 30
0.0
 40
6.0
  0
CIRCLE
  5
74
100
AcDbEntity
100
AcDbCircle
  8
ALU_CHASSIS
 62
256
370
-1
  6
ByLayer
 10
718.0
 20
57.99999999999855
 30
0.0
 40
6.0
  0
CIRCLE
  5
75
100
AcDbEntity
100
AcDbCircle
  8
ALU_CHASSIS
 62
256
370
-1
  6
ByLayer
 10
20.0
 20
82.999999999999432
 30
0.0
 40
6.0
  0
CIRCLE
  5
76
100
AcDbEntity
100
AcDbCircle
  8
ALU_CHASSIS
 62
256
370
-1
  6
ByLayer
 10
20.0
 20
42.999999999999488
 30
0.0
 40
6.0
  0
CIRCLE
  5
77
100
AcDbEntity
100
AcDbCircle
  8
ALU_CHASSIS
 62
256
370
-1
  6
ByLayer
 10
915.99999999999977
 20
82.999999999998721
 30
0.0
 40
6.0
  0
CIRCLE
  5
78
100
AcDbEntity
100
AcDbCircle
  8
ALU_CHASSIS
 62
256
370
-1
  6
ByLayer
 10
915.99999999999977
 20
42.999999999999119
 30
0.0
 40
6.0
  0
LINE
  5
79
100
AcDbEntity
100
AcDbLine
  8
axe
 62
256
370
-1
  6
ByLayer
 10
708.0
 20
87.999999999998963
 30
0.0
 11
728.0
 21
87.999999999998934
 31
0.0
  0
LINE
  5
7A
100
AcDbEntity
100
AcDbLine
  8
axe
 62
256
370
-1
  6
ByLayer
 10
718.0
 20
77.999999999999105
 30
0.0
 11
718.0
 21
98.126945983930554
 31
0.0
  0
LINE
  5
7B
100
AcDbEntity
100
AcDbLine
  8
axe
 62
256
370
-1
  6
ByLayer
 10
708.0
 20
57.999999999998565
 30
0.0
 11
728.0
 21
57.999999999998536
 31
0.0
  0
LINE
  5
7C
100
AcDbEntity
100
AcDbLine
  8
axe
 62
256
370
-1
  6
ByLayer
 10
718.0
 20
47.999999999998707
 30
0.0
 11
718.0
 21
68.126945983930156
 31
0.0
  0
CIRCLE
  5
7D
100
AcDbEntity
100
AcDbCircle
  8
ALU_CHASSIS
 62
256
370
-1
  6
ByLayer
 10
491.57000000000022
 20
80.069999999999652
 30
0.0
 40
1.6000000000000001
  0
ARC
  5
7E
100
AcDbEntity
  8
ALU_CHASSIS
 62
256
370
-1
  6
ByLayer
100
AcDbCircle
 10
491.57000000000022
 20
80.069999999999652
 30
0.0
 40
1.9999999999994929
100
AcDbArc
 50
352.81924421853984
 51
277.18075578146011
  0
CIRCLE
  5
7F
100
AcDbEntity
100
AcDbCircle
  8
ALU_CHASSIS
 62
256
370
-1
  6
ByLayer
 10
444.43000000000035
 20
80.069999999999652
 30
0.0
 40
1.6000000000000001
  0
ARC
  5
80
100
AcDbEntity
  8
ALU_CHASSIS
 62
256
370
-1
  6
ByLayer
100
AcDbCircle
 10
444.43000000000035
 20
80.069999999999652
 30
0.0
 40
1.9999999999994929
100
AcDbArc
 50
352.81924421853984
 51
277.18075578146011
  0
CIRCLE
  5
81
100
AcDbEntity
100
AcDbCircle
  8
ALU_CHASSIS
 62
256
370
-1
  6
ByLayer
 10
444.43000000000023
 20
32.929999999999552
 30
0.0
 40
1.6000000000000001
  0
ARC
  5
82
100
AcDbEntity
  8
ALU_CHASSIS
 62
256
370
-1
  6
ByLayer
100
AcDbCircle
 10
444.43000000000023
 20
32.929999999999552
 30
0.0
 40
1.9999999999994929
100
AcDbArc
 50
352.81924421853984
 51
277.18075578146011
  0
CIRCLE
  5
83
100
AcDbEntity
100
AcDbCircle
  8
ALU_CHASSIS
 62
256
370
-1
  6
ByLayer
 10
491.57000000000011
 20
32.929999999999552
 30
0.0
 40
1.6000000000000001
  0
ARC
  5
84
100
AcDbEntity
  8
ALU_CHASSIS
 62
256
370
-1
  6
ByLayer
100
AcDbCircle
 10
491.57000000000011
 20
32.929999999999552
 30
0.0
 40
1.9999999999994929
100
AcDbArc
 50
352.81924421853984
 51
277.18075578146011
  0
CIRCLE
  5
85
100
AcDbEntity
100
AcDbCircle
  8
ALU_CHASSIS
 62
256
370
-1
  6
ByLayer
 10
467.99999999999994
 20
56.499999999999716
 30
0.0
 40
20.0
  0
ENDSEC
  0
SECTION
  2
OBJECTS
  0
DICTIONARY
  5
C
100
AcDbDictionary
280
0
281
1
  3
ACAD_GROUP
350
D
  3
ACAD_LAYOUT
350
1A
  3
ACAD_MLINESTYLE
350
17
  3
ACAD_PLOTSETTINGS
350
19
  3
ACAD_PLOTSTYLENAME
350
E
  3
AcDbVariableDictionary
350
86
  0
DICTIONARY
  5
D
100
AcDbDictionary
280
0
281
1
  0
ACDBDICTIONARYWDFLT
  5
E
100
AcDbDictionary
281
1
  3
Normal
350
F
100
AcDbDictionaryWithDefault
340
F
  0
ACDBPLACEHOLDER
  5
F
  0
DICTIONARY
  5
17
100
AcDbDictionary
280
0
281
1
  3
Standard
350
18
  0
MLINESTYLE
  5
18
100
AcDbMlineStyle
  2
STANDARD
 70
0
  3

 62
256
 51
90.0
 52
90.0
 71
2
 49
0.5
 62
256
  6
BYLAYER
 49
-0.5
 62
256
  6
BYLAYER
  0
DICTIONARY
  5
19
100
AcDbDictionary
280
0
281
1
  0
DICTIONARY
  5
1A
100
AcDbDictionary
281
1
  3
Layout1
350
1E
  3
Layout2
350
26
  3
Model
350
22
  0
LAYOUT
  5
1E
100
AcDbPlotSettings
  1

  2
C:\Program Files\AutoCAD 2002\plotters\DWF ePlot (optimized for plotting).pc3
  4

  6

 40
0.0
 41
0.0
 42
0.0
 43
0.0
 44
0.0
 45
0.0
 46
0.0
 47
0.0
 48
0.0
 49
0.0
140
0.0
141
0.0
142
1.0
143
1.0
 70
688
 72
0
 73
0
 74
5
  7

 75
16
147
1.0
148
0.0
149
0.0
100
AcDbLayout
  1
Layout1
 70
1
 71
1
 10
0.0
 20
0.0
 11
420.0
 21
297.0
 12
0.0
 22
0.0
 32
0.0
 14
100000000000000000000.0
 24
100000000000000000000.0
 34
100000000000000000000.0
 15
-100000000000000000000.0
 25
-100000000000000000000.0
 35
-100000000000000000000.0
146
0.0
 13
0.0
 23
0.0
 33
0.0
 16
1.0
 26
0.0
 36
0.0
 17
0.0
 27
1.0
 37
0.0
 76
0
330
1B
  0
LAYOUT
  5
22
100
AcDbPlotSettings
  1

  2
C:\Program Files\AutoCAD 2002\plotters\DWF ePlot (optimized for plotting).pc3
  4

  6

 40
0.0
 41
0.0
 42
0.0
 43
0.0
 44
0.0
 45
0.0
 46
0.0
 47
0.0
 48
0.0
 49
0.0
140
0.0
141
0.0
142
1.0
143
1.0
 70
1712
 72
0
 73
0
 74
0
  7

 75
0
147
1.0
148
0.0
149
0.0
100
AcDbLayout
  1
Model
 70
1
 71
0
 10
0.0
 20
0.0
 11
12.0
 21
9.0
 12
0.0
 22
0.0
 32
0.0
 14
0.0
 24
0.0
 34
0.0
 15
0.0
 25
0.0
 35
0.0
146
0.0
 13
0.0
 23
0.0
 33
0.0
 16
1.0
 26
0.0
 36
0.0
 17
0.0
 27
1.0
 37
0.0
 76
0
330
1F
  0
LAYOUT
  5
26
100
AcDbPlotSettings
  1

  2
C:\Program Files\AutoCAD 2002\plotters\DWF ePlot (optimized for plotting).pc3
  4

  6

 40
0.0
 41
0.0
 42
0.0
 43
0.0
 44
0.0
 45
0.0
 46
0.0
 47
0.0
 48
0.0
 49
0.0
140
0.0
141
0.0
142
1.0
143
1.0
 70
688
 72
0
 73
0
 74
5
  7

 75
16
147
1.0
148
0.0
149
0.0
100
AcDbLayout
  1
Layout2
 70
1
 71
2
 10
0.0
 20
0.0
 11
12.0
 21
9.0
 12
0.0
 22
0.0
 32
0.0
 14
0.0
 24
0.0
 34
0.0
 15
0.0
 25
0.0
 35
0.0
146
0.0
 13
0.0
 23
0.0
 33
0.0
 16
1.0
 26
0.0
 36
0.0
 17
0.0
 27
1.0
 37
0.0
 76
0
330
23
  0
DICTIONARY
  5
86
100
AcDbDictionary
281
1
  3
DIMASSOC
350
88
  3
HIDETEXT
350
87
  0
DICTIONARYVAR
  5
87
100
DictionaryVariables
280
0
  1
2
  0
DICTIONARYVAR
  5
88
100
DictionaryVariables
280
0
  1
1
  0
ENDSEC
  0
EOF
