999
dxflib 2.2.0.0
  0
SECTION
  2
HEADER
  9
$ACADVER
  1
AC1015
  9
$HANDSEED
  5
FFFF
  9
$SPLINESEGS
 70
8
  9
$DIMEXE
 40
5.0
  9
$DIMAZIN
 70
8
  9
$DIMZIN
 70
8
  9
$DIMLUNIT
 70
2
  9
$GRIDMODE
 70
1
  9
$INSUNITS
 70
0
  9
$DIMADEC
 70
2
  9
$DIMASZ
 40
10.0
  9
$DIMGAP
 40
2.5
  9
$DIMTXT
 40
10.0
  9
$GRIDUNIT
 10
0.0
 20
0.0
  9
$DIMEXO
 40
2.5
  9
$LUPREC
 70
4
  9
$CLAYER
  8
ALU_Y
  9
$DIMAUNIT
 70
0
  9
$AUPREC
 70
2
  9
$PLIMMIN
 10
0.0
 20
0.0
  9
$LUNITS
 70
2
  9
$PLIMMAX
 10
210.0
 20
297.0
  9
$DIMSTYLE
  2
Standard
  9
$DIMBLK
  1

  9
$AUNITS
 70
0
  9
$CLAYER
  8
COTE
  0
ENDSEC
  0
SECTION
  2
TABLES
  0
TABLE
  2
VPORT
  5
8
100
AcDbSymbolTable
 70
1
  0
VPORT
  5
30
100
AcDbSymbolTableRecord
100
AcDbViewportTableRecord
  2
*Active
 70
0
 10
0.0
 20
0.0
 11
1.0
 21
1.0
 12
286.30555555555549
 22
148.5
 13
0.0
 23
0.0
 14
10.0
 24
10.0
 15
10.0
 25
10.0
 16
0.0
 26
0.0
 36
1.0
 17
0.0
 27
0.0
 37
0.0
 40
297.0
 41
1.92798353909465
 42
50.0
 43
0.0
 44
0.0
 50
0.0
 51
0.0
 71
0
 72
100
 73
1
 74
3
 75
1
 76
1
 77
0
 78
0
281
0
 65
1
110
0.0
120
0.0
130
0.0
111
1.0
121
0.0
131
0.0
112
0.0
122
1.0
132
0.0
 79
0
146
0.0
  0
ENDTAB
  0
TABLE
  2
LTYPE
  5
5
100
AcDbSymbolTable
 70
21
  0
LTYPE
  5
14
100
AcDbSymbolTableRecord
100
AcDbLinetypeTableRecord
  2
ByBlock
 70
0
  3

 72
65
 73
0
 40
0.0
  0
LTYPE
  5
15
100
AcDbSymbolTableRecord
100
AcDbLinetypeTableRecord
  2
ByLayer
 70
0
  3

 72
65
 73
0
 40
0.0
  0
LTYPE
  5
16
100
AcDbSymbolTableRecord
100
AcDbLinetypeTableRecord
  2
CONTINUOUS
 70
0
  3
Solid line
 72
65
 73
0
 40
0.0
  0
LTYPE
  5
31
100
AcDbSymbolTableRecord
100
AcDbLinetypeTableRecord
  2
DOT
 70
0
  3
Dot . . . . . . . . . . . . . . . . . . . . . .
 72
65
 73
2
 40
6.3499999999999996
 49
0.0
 74
0
 49
-6.3499999999999996
 74
0
  0
LTYPE
  5
32
100
AcDbSymbolTableRecord
100
AcDbLinetypeTableRecord
  2
DOT2
 70
0
  3
Dot (.5x) .....................................
 72
65
 73
2
 40
3.1749999999999998
 49
0.0
 74
0
 49
-3.1749999999999998
 74
0
  0
LTYPE
  5
33
100
AcDbSymbolTableRecord
100
AcDbLinetypeTableRecord
  2
DOTX2
 70
0
  3
Dot (2x) .  .  .  .  .  .  .  .  .  .  .  .  .
 72
65
 73
2
 40
12.699999999999999
 49
0.0
 74
0
 49
-12.699999999999999
 74
0
  0
LTYPE
  5
34
100
AcDbSymbolTableRecord
100
AcDbLinetypeTableRecord
  2
DASHED
 70
0
  3
Dashed __ __ __ __ __ __ __ __ __ __ __ __ __ _
 72
65
 73
2
 40
19.050000000000001
 49
12.699999999999999
 74
0
 49
-6.3499999999999996
 74
0
  0
LTYPE
  5
35
100
AcDbSymbolTableRecord
100
AcDbLinetypeTableRecord
  2
DASHED2
 70
0
  3
Dashed (.5x) _ _ _ _ _ _ _ _ _ _ _ _ _ _ _ _ _
 72
65
 73
2
 40
9.5250000000000004
 49
6.3499999999999996
 74
0
 49
-3.1749999999999998
 74
0
  0
LTYPE
  5
36
100
AcDbSymbolTableRecord
100
AcDbLinetypeTableRecord
  2
DASHEDX2
 70
0
  3
Dashed (2x) ____  ____  ____  ____  ____  ___
 72
65
 73
2
 40
38.100000000000001
 49
25.399999999999999
 74
0
 49
-12.699999999999999
 74
0
  0
LTYPE
  5
37
100
AcDbSymbolTableRecord
100
AcDbLinetypeTableRecord
  2
DASHDOT
 70
0
  3
Dash dot __ . __ . __ . __ . __ . __ . __ . __
 72
65
 73
4
 40
25.399999999999999
 49
12.699999999999999
 74
0
 49
-6.3499999999999996
 74
0
 49
0.0
 74
0
 49
-6.3499999999999996
 74
0
  0
LTYPE
  5
38
100
AcDbSymbolTableRecord
100
AcDbLinetypeTableRecord
  2
DASHDOT2
 70
0
  3
Dash dot (.5x) _._._._._._._._._._._._._._._.
 72
65
 73
4
 40
12.699999999999999
 49
6.3499999999999996
 74
0
 49
-3.1749999999999998
 74
0
 49
0.0
 74
0
 49
-3.1749999999999998
 74
0
  0
LTYPE
  5
39
100
AcDbSymbolTableRecord
100
AcDbLinetypeTableRecord
  2
DASHDOTX2
 70
0
  3
Dash dot (2x) ____  .  ____  .  ____  .  ___
 72
65
 73
4
 40
50.799999999999997
 49
25.399999999999999
 74
0
 49
-12.699999999999999
 74
0
 49
0.0
 74
0
 49
-12.699999999999999
 74
0
  0
LTYPE
  5
3A
100
AcDbSymbolTableRecord
100
AcDbLinetypeTableRecord
  2
DIVIDE
 70
0
  3
Divide ____ . . ____ . . ____ . . ____ . . ____
 72
65
 73
6
 40
31.75
 49
12.699999999999999
 74
0
 49
-6.3499999999999996
 74
0
 49
0.0
 74
0
 49
-6.3499999999999996
 74
0
 49
0.0
 74
0
 49
-6.3499999999999996
 74
0
  0
LTYPE
  5
3B
100
AcDbSymbolTableRecord
100
AcDbLinetypeTableRecord
  2
DIVIDE2
 70
0
  3
Divide (.5x) __..__..__..__..__..__..__..__.._
 72
65
 73
6
 40
15.875
 49
6.3499999999999996
 74
0
 49
-3.1749999999999998
 74
0
 49
0.0
 74
0
 49
-3.1749999999999998
 74
0
 49
0.0
 74
0
 49
-3.1749999999999998
 74
0
  0
LTYPE
  5
3C
100
AcDbSymbolTableRecord
100
AcDbLinetypeTableRecord
  2
DIVIDEX2
 70
0
  3
Divide (2x) ________  .  .  ________  .  .  _
 72
65
 73
6
 40
63.5
 49
25.399999999999999
 74
0
 49
-12.699999999999999
 74
0
 49
0.0
 74
0
 49
-12.699999999999999
 74
0
 49
0.0
 74
0
 49
-12.699999999999999
 74
0
  0
LTYPE
  5
3D
100
AcDbSymbolTableRecord
100
AcDbLinetypeTableRecord
  2
CENTER
 70
0
  3
Center ____ _ ____ _ ____ _ ____ _ ____ _ ____
 72
65
 73
4
 40
50.799999999999997
 49
31.75
 74
0
 49
-6.3499999999999996
 74
0
 49
6.3499999999999996
 74
0
 49
-6.3499999999999996
 74
0
  0
LTYPE
  5
3E
100
AcDbSymbolTableRecord
100
AcDbLinetypeTableRecord
  2
CENTER2
 70
0
  3
Center (.5x) ___ _ ___ _ ___ _ ___ _ ___ _ ___
 72
65
 73
4
 40
28.574999999999999
 49
19.050000000000001
 74
0
 49
-3.1749999999999998
 74
0
 49
3.1749999999999998
 74
0
 49
-3.1749999999999998
 74
0
  0
LTYPE
  5
3F
100
AcDbSymbolTableRecord
100
AcDbLinetypeTableRecord
  2
CENTERX2
 70
0
  3
Center (2x) ________  __  ________  __  _____
 72
65
 73
4
 40
101.59999999999999
 49
63.5
 74
0
 49
-12.699999999999999
 74
0
 49
12.699999999999999
 74
0
 49
-12.699999999999999
 74
0
  0
LTYPE
  5
40
100
AcDbSymbolTableRecord
100
AcDbLinetypeTableRecord
  2
BORDER
 70
0
  3
Border __ __ . __ __ . __ __ . __ __ . __ __ .
 72
65
 73
6
 40
44.450000000000003
 49
12.699999999999999
 74
0
 49
-6.3499999999999996
 74
0
 49
12.699999999999999
 74
0
 49
-6.3499999999999996
 74
0
 49
0.0
 74
0
 49
-6.3499999999999996
 74
0
  0
LTYPE
  5
41
100
AcDbSymbolTableRecord
100
AcDbLinetypeTableRecord
  2
BORDER2
 70
0
  3
Border (.5x) __.__.__.__.__.__.__.__.__.__.__.
 72
65
 73
6
 40
22.225000000000001
 49
6.3499999999999996
 74
0
 49
-3.1749999999999998
 74
0
 49
6.3499999999999996
 74
0
 49
-3.1749999999999998
 74
0
 49
0.0
 74
0
 49
-3.1749999999999998
 74
0
  0
LTYPE
  5
42
100
AcDbSymbolTableRecord
100
AcDbLinetypeTableRecord
  2
BORDERX2
 70
0
  3
Border (2x) ____  ____  .  ____  ____  .  ___
 72
65
 73
6
 40
88.900000000000006
 49
25.399999999999999
 74
0
 49
-12.699999999999999
 74
0
 49
25.399999999999999
 74
0
 49
-12.699999999999999
 74
0
 49
0.0
 74
0
 49
-12.699999999999999
 74
0
  0
ENDTAB
  0
TABLE
  2
LAYER
  5
2
100
AcDbSymbolTable
 70
4
  0
LAYER
  5
10
100
AcDbSymbolTableRecord
100
AcDbLayerTableRecord
  2
0
 70
4
 62
7
420
0
  6
CONTINUOUS
370
25
390
F
  0
LAYER
  5
43
100
AcDbSymbolTableRecord
100
AcDbLayerTableRecord
  2
axe
 70
0
 62
1
420
16711680
  6
DASHDOTX2
370
0
390
F
  0
LAYER
  5
44
100
AcDbSymbolTableRecord
100
AcDbLayerTableRecord
  2
ALU_Y
 70
0
 62
7
420
0
  6
CONTINUOUS
370
0
390
F
  0
LAYER
  5
45
100
AcDbSymbolTableRecord
100
AcDbLayerTableRecord
  2
COTE
 70
0
 62
5
420
255
  6
CONTINUOUS
370
0
390
F
  0
ENDTAB
  0
TABLE
  2
STYLE
  5
3
100
AcDbSymbolTable
 70
1
  0
STYLE
  5
11
100
AcDbSymbolTableRecord
100
AcDbTextStyleTableRecord
  2
Standard
 70
0
 40
0.0
 41
0.75
 50
0.0
 71
0
 42
2.5
  3
txt
  4

  0
ENDTAB
  0
TABLE
  2
VIEW
  5
6
100
AcDbSymbolTable
 70
0
  0
ENDTAB
  0
TABLE
  2
UCS
  5
7
100
AcDbSymbolTable
 70
0
  0
ENDTAB
  0
TABLE
  2
APPID
  5
9
100
AcDbSymbolTable
 70
1
  0
APPID
  5
12
100
AcDbSymbolTableRecord
100
AcDbRegAppTableRecord
  2
ACAD
 70
0
  0
ENDTAB
  0
TABLE
  2
DIMSTYLE
  5
A
100
AcDbSymbolTable
 70
1
100
AcDbDimStyleTable
 71
0
  0
DIMSTYLE
105
27
100
AcDbSymbolTableRecord
100
AcDbDimStyleTableRecord
  2
Standard
 41
10.0
 42
2.5
 43
3.75
 44
5.0
 70
0
 73
0
 74
0
 77
1
 78
8
140
10.0
141
2.5
143
0.03937007874016
147
2.5
171
3
172
1
271
2
272
2
274
3
278
44
283
0
284
8
340
11
  0
ENDTAB
  0
TABLE
  2
BLOCK_RECORD
  5
1
100
AcDbSymbolTable
 70
1
  0
BLOCK_RECORD
  5
1F
100
AcDbSymbolTableRecord
100
AcDbBlockTableRecord
  2
*Model_Space
340
22
  0
BLOCK_RECORD
  5
1B
100
AcDbSymbolTableRecord
100
AcDbBlockTableRecord
  2
*Paper_Space
340
1E
  0
BLOCK_RECORD
  5
23
100
AcDbSymbolTableRecord
100
AcDbBlockTableRecord
  2
*Paper_Space0
340
26
  0
ENDTAB
  0
ENDSEC
  0
SECTION
  2
BLOCKS
  0
BLOCK
  5
20
100
AcDbEntity
  8
0
100
AcDbBlockBegin
  2
*Model_Space
 70
0
 10
0.0
 20
0.0
 30
0.0
  3
*Model_Space
  1

  0
ENDBLK
  5
21
100
AcDbEntity
  8
0
100
AcDbBlockEnd
  0
BLOCK
  5
1C
100
AcDbEntity
 67
1
  8
0
100
AcDbBlockBegin
  2
*Paper_Space
 70
0
 10
0.0
 20
0.0
 30
0.0
  3
*Paper_Space
  1

  0
ENDBLK
  5
1D
100
AcDbEntity
 67
1
  8
0
100
AcDbBlockEnd
  0
BLOCK
  5
24
100
AcDbEntity
  8
0
100
AcDbBlockBegin
  2
*Paper_Space0
 70
0
 10
0.0
 20
0.0
 30
0.0
  3
*Paper_Space0
  1

  0
ENDBLK
  5
25
100
AcDbEntity
  8
0
100
AcDbBlockEnd
  0
ENDSEC
  0
SECTION
  2
ENTITIES
  0
LINE
  5
46
100
AcDbEntity
100
AcDbLine
  8
ALU_Y
 62
256
370
-1
  6
ByLayer
 10
36.228584723041521
 20
184.84854620908303
 30
0.0
 11
36.228584723041507
 21
51.848546209082997
 31
0.0
  0
LINE
  5
47
100
AcDbEntity
100
AcDbLine
  8
ALU_Y
 62
256
370
-1
  6
ByLayer
 10
36.228584723041507
 20
51.848546209082997
 30
0.0
 11
236.22858472304182
 21
51.84854620908294
 31
0.0
  0
LINE
  5
48
100
AcDbEntity
100
AcDbLine
  8
ALU_Y
 62
256
370
-1
  6
ByLayer
 10
236.22858472304182
 20
51.84854620908294
 30
0.0
 11
236.22858472304188
 21
184.848546209083
 31
0.0
  0
LINE
  5
49
100
AcDbEntity
100
AcDbLine
  8
ALU_Y
 62
256
370
-1
  6
ByLayer
 10
236.22858472304188
 20
184.848546209083
 30
0.0
 11
209.22858472303753
 21
247.47354620908618
 31
0.0
  0
LINE
  5
4A
100
AcDbEntity
100
AcDbLine
  8
ALU_Y
 62
256
370
-1
  6
ByLayer
 10
209.22858472303753
 20
247.47354620908618
 30
0.0
 11
209.22858472303756
 21
351.84854620908305
 31
0.0
  0
CIRCLE
  5
4B
100
AcDbEntity
100
AcDbCircle
  8
ALU_Y
 62
256
370
-1
  6
ByLayer
 10
226.22858472304179
 20
66.84854620908294
 30
0.0
 40
3.0
  0
CIRCLE
  5
4C
100
AcDbEntity
100
AcDbCircle
  8
ALU_Y
 62
256
370
-1
  6
ByLayer
 10
136.22858472304165
 20
66.848546209082997
 30
0.0
 40
3.0
  0
CIRCLE
  5
4D
100
AcDbEntity
100
AcDbCircle
  8
ALU_Y
 62
256
370
-1
  6
ByLayer
 10
46.228584723041607
 20
66.848546209082997
 30
0.0
 40
3.0
  0
LINE
  5
4E
100
AcDbEntity
100
AcDbLine
  8
axe
 62
256
370
-1
  6
ByLayer
 10
43.728584723041735
 20
82.348546209082997
 30
0.0
 11
43.728584723041926
 21
92.348546209082997
 31
0.0
  0
LINE
  5
4F
100
AcDbEntity
100
AcDbLine
  8
axe
 62
256
370
-1
  6
ByLayer
 10
48.728584723041735
 20
87.348546209083025
 30
0.0
 11
38.728584723041465
 21
87.348546209082997
 31
0.0
  0
LINE
  5
50
100
AcDbEntity
100
AcDbLine
  8
axe
 62
256
370
-1
  6
ByLayer
 10
43.72858472304177
 20
117.34854620908303
 30
0.0
 11
43.728584723041791
 21
127.34854620908303
 31
0.0
  0
LINE
  5
51
100
AcDbEntity
100
AcDbLine
  8
axe
 62
256
370
-1
  6
ByLayer
 10
48.728584723041877
 20
122.348546209083
 30
0.0
 11
38.728584723041592
 21
122.348546209083
 31
0.0
  0
LINE
  5
52
100
AcDbEntity
100
AcDbLine
  8
axe
 62
256
370
-1
  6
ByLayer
 10
78.728584723041763
 20
117.348546209083
 30
0.0
 11
78.728584723041905
 21
127.34854620908297
 31
0.0
  0
LINE
  5
53
100
AcDbEntity
100
AcDbLine
  8
axe
 62
256
370
-1
  6
ByLayer
 10
83.728584723041948
 20
122.348546209083
 30
0.0
 11
73.728584723041877
 21
122.348546209083
 31
0.0
  0
LINE
  5
54
100
AcDbEntity
100
AcDbLine
  8
axe
 62
256
370
-1
  6
ByLayer
 10
78.728584723041905
 20
82.34854620908294
 30
0.0
 11
78.728584723041763
 21
92.348546209082997
 31
0.0
  0
LINE
  5
55
100
AcDbEntity
100
AcDbLine
  8
axe
 62
256
370
-1
  6
ByLayer
 10
83.728584723041806
 20
87.348546209082997
 30
0.0
 11
73.728584723041919
 21
87.348546209082997
 31
0.0
  0
LINE
  5
56
100
AcDbEntity
100
AcDbLine
  8
axe
 62
256
370
-1
  6
ByLayer
 10
193.72858472304176
 20
82.34854620908294
 30
0.0
 11
193.72858472304188
 21
92.348546209082997
 31
0.0
  0
LINE
  5
57
100
AcDbEntity
100
AcDbLine
  8
axe
 62
256
370
-1
  6
ByLayer
 10
198.72858472304171
 20
87.348546209082883
 30
0.0
 11
188.72858472304188
 21
87.348546209082997
 31
0.0
  0
LINE
  5
58
100
AcDbEntity
100
AcDbLine
  8
axe
 62
256
370
-1
  6
ByLayer
 10
193.72858472304193
 20
117.34854620908303
 30
0.0
 11
193.72858472304173
 21
127.34854620908291
 31
0.0
  0
LINE
  5
59
100
AcDbEntity
100
AcDbLine
  8
axe
 62
256
370
-1
  6
ByLayer
 10
198.72858472304182
 20
122.34854620908294
 30
0.0
 11
188.72858472304176
 21
122.34854620908294
 31
0.0
  0
LINE
  5
5A
100
AcDbEntity
100
AcDbLine
  8
axe
 62
256
370
-1
  6
ByLayer
 10
228.72858472304173
 20
117.34854620908294
 30
0.0
 11
228.72858472304182
 21
127.348546209083
 31
0.0
  0
LINE
  5
5B
100
AcDbEntity
100
AcDbLine
  8
axe
 62
256
370
-1
  6
ByLayer
 10
233.72858472304182
 20
122.34854620908294
 30
0.0
 11
223.72858472304191
 21
122.34854620908305
 31
0.0
  0
LINE
  5
5C
100
AcDbEntity
100
AcDbLine
  8
axe
 62
256
370
-1
  6
ByLayer
 10
228.72858472304193
 20
82.348546209083054
 30
0.0
 11
228.72858472304176
 21
92.348546209082883
 31
0.0
  0
LINE
  5
5D
100
AcDbEntity
100
AcDbLine
  8
axe
 62
256
370
-1
  6
ByLayer
 10
233.72858472304182
 20
87.348546209082969
 30
0.0
 11
223.72858472304185
 21
87.348546209082997
 31
0.0
  0
CIRCLE
  5
5E
100
AcDbEntity
100
AcDbCircle
  8
ALU_Y
 62
256
370
-1
  6
ByLayer
 10
43.72858472304182
 20
122.34854620908303
 30
0.0
 40
3.0
  0
CIRCLE
  5
5F
100
AcDbEntity
100
AcDbCircle
  8
ALU_Y
 62
256
370
-1
  6
ByLayer
 10
43.728584723041877
 20
87.348546209082997
 30
0.0
 40
3.0
  0
CIRCLE
  5
60
100
AcDbEntity
100
AcDbCircle
  8
ALU_Y
 62
256
370
-1
  6
ByLayer
 10
78.728584723041877
 20
87.348546209082997
 30
0.0
 40
3.0
  0
CIRCLE
  5
61
100
AcDbEntity
100
AcDbCircle
  8
ALU_Y
 62
256
370
-1
  6
ByLayer
 10
78.728584723041763
 20
122.34854620908297
 30
0.0
 40
3.0
  0
CIRCLE
  5
62
100
AcDbEntity
100
AcDbCircle
  8
ALU_Y
 62
256
370
-1
  6
ByLayer
 10
193.72858472304176
 20
122.34854620908291
 30
0.0
 40
3.0
  0
CIRCLE
  5
63
100
AcDbEntity
100
AcDbCircle
  8
ALU_Y
 62
256
370
-1
  6
ByLayer
 10
193.72858472304182
 20
87.348546209082969
 30
0.0
 40
3.0
  0
CIRCLE
  5
64
100
AcDbEntity
100
AcDbCircle
  8
ALU_Y
 62
256
370
-1
  6
ByLayer
 10
228.72858472304182
 20
87.34854620908294
 30
0.0
 40
3.0
  0
CIRCLE
  5
65
100
AcDbEntity
100
AcDbCircle
  8
ALU_Y
 62
256
370
-1
  6
ByLayer
 10
228.72858472304176
 20
122.34854620908288
 30
0.0
 40
3.0
  0
LINE
  5
66
100
AcDbEntity
100
AcDbLine
  8
axe
 62
256
370
-1
  6
ByLayer
 10
29.72858472303983
 20
434.348546209083
 30
0.0
 11
29.72858472303983
 21
394.348546209083
 31
0.0
  0
LINE
  5
67
100
AcDbEntity
100
AcDbLine
  8
axe
 62
256
370
-1
  6
ByLayer
 10
29.728584723039823
 20
389.348546209083
 30
0.0
 11
29.72858472303983
 21
349.348546209083
 31
0.0
  0
LINE
  5
68
100
AcDbEntity
100
AcDbLine
  8
axe
 62
256
370
-1
  6
ByLayer
 10
9.7285847230398304
 20
369.348546209083
 30
0.0
 11
49.72858472303983
 21
369.348546209083
 31
0.0
  0
CIRCLE
  5
69
100
AcDbEntity
100
AcDbCircle
  8
ALU_Y
 62
256
370
-1
  6
ByLayer
 10
29.728584723039837
 20
414.34854620908254
 30
0.0
 40
6.0
  0
CIRCLE
  5
6A
100
AcDbEntity
100
AcDbCircle
  8
ALU_Y
 62
256
370
-1
  6
ByLayer
 10
29.728584723039837
 20
369.348546209083
 30
0.0
 40
6.0
  0
LINE
  5
6B
100
AcDbEntity
100
AcDbLine
  8
axe
 62
256
370
-1
  6
ByLayer
 10
9.7285847230398446
 20
414.348546209083
 30
0.0
 11
68.498688017757104
 21
414.34854620908209
 31
0.0
  0
LINE
  5
6C
100
AcDbEntity
100
AcDbLine
  8
axe
 62
256
370
-1
  6
ByLayer
 10
29.72858472303983
 20
466.348546209083
 30
0.0
 11
29.728584723039837
 21
506.348546209083
 31
0.0
  0
LINE
  5
6D
100
AcDbEntity
100
AcDbLine
  8
axe
 62
256
370
-1
  6
ByLayer
 10
29.728584723039816
 20
511.348546209083
 30
0.0
 11
29.728584723039816
 21
551.348546209083
 31
0.0
  0
LINE
  5
6E
100
AcDbEntity
100
AcDbLine
  8
axe
 62
256
370
-1
  6
ByLayer
 10
49.728584723039837
 20
531.348546209083
 30
0.0
 11
9.7285847230398446
 21
531.348546209083
 31
0.0
  0
CIRCLE
  5
6F
100
AcDbEntity
100
AcDbCircle
  8
ALU_Y
 62
256
370
-1
  6
ByLayer
 10
29.728584723039823
 20
531.348546209083
 30
0.0
 40
6.0
  0
CIRCLE
  5
70
100
AcDbEntity
100
AcDbCircle
  8
ALU_Y
 62
256
370
-1
  6
ByLayer
 10
29.728584723039823
 20
486.34854620908345
 30
0.0
 40
6.0
  0
LINE
  5
71
100
AcDbEntity
100
AcDbLine
  8
ALU_Y
 62
256
370
-1
  6
ByLayer
 10
7.2285847230397948
 20
252.11243509797509
 30
0.0
 11
36.228584723041521
 21
184.84854620908303
 31
0.0
  0
LINE
  5
72
100
AcDbEntity
100
AcDbLine
  8
ALU_Y
 62
256
370
-1
  6
ByLayer
 10
122.13876436374674
 20
553.848546209083
 30
0.0
 11
7.2285847230398232
 21
553.848546209083
 31
0.0
  0
LINE
  5
73
100
AcDbEntity
100
AcDbLine
  8
ALU_Y
 62
256
370
-1
  6
ByLayer
 10
209.22858472303756
 20
351.84854620908305
 30
0.0
 11
122.13876436374674
 21
553.848546209083
 31
0.0
  0
LINE
  5
74
100
AcDbEntity
100
AcDbLine
  8
axe
 62
256
370
-1
  6
ByLayer
 10
74.22858472303983
 20
450.348546209083
 30
0.0
 11
94.228584723039845
 21
450.348546209083
 31
0.0
  0
LINE
  5
75
100
AcDbEntity
100
AcDbLine
  8
axe
 62
256
370
-1
  6
ByLayer
 10
54.431104963838493
 20
446.81301230315034
 30
0.0
 11
47.360037151972968
 21
453.88408011501565
 31
0.0
  0
LINE
  5
76
100
AcDbEntity
100
AcDbLine
  8
axe
 62
256
370
-1
  6
ByLayer
 10
87.764118628972255
 20
480.14602596828399
 30
0.0
 11
80.693050817106723
 21
487.21709378014953
 31
0.0
  0
LINE
  5
77
100
AcDbEntity
100
AcDbLine
  8
axe
 62
256
370
-1
  6
ByLayer
 10
87.764118628971801
 20
413.47999863801579
 30
0.0
 11
80.693050817106268
 21
420.55106644988109
 31
0.0
  0
LINE
  5
78
100
AcDbEntity
100
AcDbLine
  8
axe
 62
256
370
-1
  6
ByLayer
 10
121.09713229410613
 20
446.81301230315012
 30
0.0
 11
114.0260644822406
 21
453.88408011501565
 31
0.0
  0
LINE
  5
79
100
AcDbEntity
100
AcDbLine
  8
axe
 62
256
370
-1
  6
ByLayer
 10
80.693050817106268
 20
413.47999863801579
 30
0.0
 11
87.764118628972483
 21
420.55106644988177
 31
0.0
  0
LINE
  5
7A
100
AcDbEntity
100
AcDbLine
  8
axe
 62
256
370
-1
  6
ByLayer
 10
114.0260644822406
 20
446.81301230315012
 30
0.0
 11
121.09713229410613
 21
453.88408011501565
 31
0.0
  0
LINE
  5
7B
100
AcDbEntity
100
AcDbLine
  8
axe
 62
256
370
-1
  6
ByLayer
 10
80.693050817106737
 20
480.14602596828399
 30
0.0
 11
87.764118628972241
 21
487.21709378014953
 31
0.0
  0
LINE
  5
7C
100
AcDbEntity
100
AcDbLine
  8
axe
 62
256
370
-1
  6
ByLayer
 10
47.360037151972392
 20
446.81301230314966
 30
0.0
 11
54.431104963838493
 21
453.88408011501565
 31
0.0
  0
LINE
  5
7D
100
AcDbEntity
100
AcDbLine
  8
axe
 62
256
370
-1
  6
ByLayer
 10
74.22858472303983
 20
450.348546209083
 30
0.0
 11
94.228584723039845
 21
450.348546209083
 31
0.0
  0
LINE
  5
7E
100
AcDbEntity
100
AcDbLine
  8
axe
 62
256
370
-1
  6
ByLayer
 10
84.22858472303983
 20
490.348546209083
 30
0.0
 11
84.22858472303983
 21
410.348546209083
 31
0.0
  0
LINE
  5
7F
100
AcDbEntity
100
AcDbLine
  8
ALU_Y
 62
256
370
-1
  6
ByLayer
 10
7.2285847230398446
 20
430.598546209083
 30
0.0
 11
7.2285847230398304
 21
330.348546209083
 31
0.0
  0
LINE
  5
80
100
AcDbEntity
100
AcDbLine
  8
ALU_Y
 62
256
370
-1
  6
ByLayer
 10
7.2285847230397948
 20
252.11243509797509
 30
0.0
 11
7.2285847230398232
 21
553.848546209083
 31
0.0
  0
CIRCLE
  5
81
100
AcDbEntity
100
AcDbCircle
  8
ALU_Y
 62
256
370
-1
  6
ByLayer
 10
84.22858472303983
 20
450.348546209083
 30
0.0
 40
20.0
  0
CIRCLE
  5
82
100
AcDbEntity
100
AcDbCircle
  8
ALU_Y
 62
256
370
-1
  6
ByLayer
 10
84.228584723039489
 20
483.68155987421676
 30
0.0
 40
1.6000000000000001
  0
ARC
  5
83
100
AcDbEntity
  8
ALU_Y
 62
256
370
-1
  6
ByLayer
100
AcDbCircle
 10
84.228584723039489
 20
483.68155987421676
 30
0.0
 40
1.9999999999994929
100
AcDbArc
 50
352.81924421853984
 51
277.18075578146011
  0
CIRCLE
  5
84
100
AcDbEntity
100
AcDbCircle
  8
ALU_Y
 62
256
370
-1
  6
ByLayer
 10
117.56159838817337
 20
450.34854620908288
 30
0.0
 40
1.6000000000000001
  0
ARC
  5
85
100
AcDbEntity
  8
ALU_Y
 62
256
370
-1
  6
ByLayer
100
AcDbCircle
 10
117.56159838817337
 20
450.34854620908288
 30
0.0
 40
1.9999999999994929
100
AcDbArc
 50
352.81924421853984
 51
277.18075578146011
  0
CIRCLE
  5
86
100
AcDbEntity
100
AcDbCircle
  8
ALU_Y
 62
256
370
-1
  6
ByLayer
 10
84.22858472303983
 20
417.01553254394923
 30
0.0
 40
1.6000000000000001
  0
ARC
  5
87
100
AcDbEntity
  8
ALU_Y
 62
256
370
-1
  6
ByLayer
100
AcDbCircle
 10
84.22858472303983
 20
417.01553254394923
 30
0.0
 40
1.9999999999994929
100
AcDbArc
 50
352.81924421853984
 51
277.18075578146011
  0
CIRCLE
  5
88
100
AcDbEntity
100
AcDbCircle
  8
ALU_Y
 62
256
370
-1
  6
ByLayer
 10
50.895571057905755
 20
450.34854620908459
 30
0.0
 40
1.6000000000000001
  0
ARC
  5
89
100
AcDbEntity
  8
ALU_Y
 62
256
370
-1
  6
ByLayer
100
AcDbCircle
 10
50.895571057905755
 20
450.34854620908459
 30
0.0
 40
1.9999999999994929
100
AcDbArc
 50
352.81924421853984
 51
277.18075578146011
  0
DIMENSION
  5
8A
100
AcDbEntity
  8
COTE
 62
256
370
-1
  6
ByLayer
100
AcDbDimension
 10
-49.999999999999986
 20
184.84854620908303
 30
0.0
 11
-57.499999999999986
 21
118.34854620908301
 31
0.0
 70
0
 71
5
 72
1
 41
1.0
 42
0.0
  1

  3
Standard
100
AcDbAlignedDimension
 13
36.228584723041507
 23
51.848546209082997
 33
0.0
 14
36.228584723041521
 24
184.84854620908303
 34
0.0
 50
90.0
100
AcDbRotatedDimension
  0
DIMENSION
  5
8B
100
AcDbEntity
  8
COTE
 62
256
370
-1
  6
ByLayer
100
AcDbDimension
 10
-50.0
 20
252.11243509797509
 30
0.0
 11
-57.5
 21
218.48049065352905
 31
0.0
 70
0
 71
5
 72
1
 41
1.0
 42
0.0
  1

  3
Standard
100
AcDbAlignedDimension
 13
-49.999999999999986
 23
184.84854620908303
 33
0.0
 14
7.2285847230397948
 24
252.11243509797509
 34
0.0
 50
90.0
100
AcDbRotatedDimension
  0
DIMENSION
  5
8C
100
AcDbEntity
  8
COTE
 62
256
370
-1
  6
ByLayer
100
AcDbDimension
 10
-50.0
 20
553.848546209083
 30
0.0
 11
-57.500000000000014
 21
402.98049065352905
 31
0.0
 70
0
 71
5
 72
1
 41
1.0
 42
0.0
  1

  3
Standard
100
AcDbAlignedDimension
 13
4.7285847230397948
 23
252.11243509797509
 33
0.0
 14
7.2285847230398232
 24
553.848546209083
 34
0.0
 50
90.0
100
AcDbRotatedDimension
  0
DIMENSION
  5
8D
100
AcDbEntity
  8
COTE
 62
256
370
-1
  6
ByLayer
100
AcDbDimension
 10
-118.68445692883969
 20
553.848546209083
 30
0.0
 11
-126.18445692883969
 21
302.848546209083
 31
0.0
 70
0
 71
5
 72
1
 41
1.0
 42
0.0
  1

  3
Standard
100
AcDbAlignedDimension
 13
36.228584723041507
 23
51.848546209082997
 33
0.0
 14
7.2285847230398232
 24
553.848546209083
 34
0.0
 50
90.0
100
AcDbRotatedDimension
  0
DIMENSION
  5
8E
100
AcDbEntity
  8
COTE
 62
256
370
-1
  6
ByLayer
100
AcDbDimension
 10
300.0
 20
184.848546209083
 30
0.0
 11
292.5
 21
118.34854620908297
 31
0.0
 70
0
 71
5
 72
1
 41
1.0
 42
0.0
  1

  3
Standard
100
AcDbAlignedDimension
 13
236.22858472304182
 23
51.84854620908294
 33
0.0
 14
236.22858472304188
 24
184.848546209083
 34
0.0
 50
90.0
100
AcDbRotatedDimension
  0
DIMENSION
  5
8F
100
AcDbEntity
  8
COTE
 62
256
370
-1
  6
ByLayer
100
AcDbDimension
 10
300.0
 20
247.47354620908618
 30
0.0
 11
292.5
 21
216.16104620908459
 31
0.0
 70
0
 71
5
 72
1
 41
1.0
 42
0.0
  1

  3
Standard
100
AcDbAlignedDimension
 13
300.0
 23
184.848546209083
 33
0.0
 14
209.22858472303753
 24
247.47354620908618
 34
0.0
 50
90.0
100
AcDbRotatedDimension
  0
DIMENSION
  5
90
100
AcDbEntity
  8
COTE
 62
256
370
-1
  6
ByLayer
100
AcDbDimension
 10
300.0
 20
351.84854620908305
 30
0.0
 11
292.5
 21
299.66104620908459
 31
0.0
 70
0
 71
5
 72
1
 41
1.0
 42
0.0
  1

  3
Standard
100
AcDbAlignedDimension
 13
209.22858472303753
 23
247.47354620908618
 33
0.0
 14
209.22858472303756
 24
351.84854620908305
 34
0.0
 50
90.0
100
AcDbRotatedDimension
  0
DIMENSION
  5
91
100
AcDbEntity
  8
COTE
 62
256
370
-1
  6
ByLayer
100
AcDbDimension
 10
300.0
 20
553.848546209083
 30
0.0
 11
292.5
 21
452.848546209083
 31
0.0
 70
0
 71
5
 72
1
 41
1.0
 42
0.0
  1

  3
Standard
100
AcDbAlignedDimension
 13
300.0
 23
351.84854620908305
 33
0.0
 14
122.13876436374673
 24
553.848546209083
 34
0.0
 50
90.0
100
AcDbRotatedDimension
  0
DIMENSION
  5
92
100
AcDbEntity
  8
COTE
 62
256
370
-1
  6
ByLayer
100
AcDbDimension
 10
122.13876436374673
 20
600.0
 30
0.0
 11
64.683674543393266
 21
607.5
 31
0.0
 70
0
 71
5
 72
1
 41
1.0
 42
0.0
  1

  3
Standard
100
AcDbAlignedDimension
 13
7.2285847230398232
 23
553.848546209083
 33
0.0
 14
122.13876436374673
 24
553.848546209083
 34
0.0
 50
0.0
100
AcDbRotatedDimension
  0
DIMENSION
  5
93
100
AcDbEntity
  8
COTE
 62
256
370
-1
  6
ByLayer
100
AcDbDimension
 10
209.22858472303756
 20
600.0
 30
0.0
 11
165.68367454339216
 21
607.5
 31
0.0
 70
0
 71
5
 72
1
 41
1.0
 42
0.0
  1

  3
Standard
100
AcDbAlignedDimension
 13
122.13876436374673
 23
600.0
 33
0.0
 14
209.22858472303756
 24
351.84854620908305
 34
0.0
 50
0.0
100
AcDbRotatedDimension
  0
DIMENSION
  5
94
100
AcDbEntity
  8
COTE
 62
256
370
-1
  6
ByLayer
100
AcDbDimension
 10
36.2285847230415
 20
0.0
 30
0.0
 11
136.22858472304165
 21
7.5
 31
0.0
 70
0
 71
5
 72
1
 41
1.0
 42
0.0
  1

  3
Standard
100
AcDbAlignedDimension
 13
236.22858472304182
 23
51.84854620908294
 33
0.0
 14
36.228584723041507
 24
51.848546209082997
 34
0.0
 50
0.0
100
AcDbRotatedDimension
  0
DIMENSION
  5
95
100
AcDbEntity
  8
COTE
 62
256
370
-1
  6
ByLayer
100
AcDbDimension
 10
7.2285847230397788
 20
0.0
 30
0.0
 11
21.728584723040651
 21
7.5
 31
0.0
 70
0
 71
5
 72
1
 41
1.0
 42
0.0
  1

  3
Standard
100
AcDbAlignedDimension
 13
36.228584723041507
 23
0.0000000000000016
 33
0.0
 14
7.2285847230397948
 24
252.11243509797509
 34
0.0
 50
0.0
100
AcDbRotatedDimension
  0
DIMENSION
  5
96
100
AcDbEntity
  8
COTE
 62
256
370
-1
  6
ByLayer
100
AcDbDimension
 10
236.22858472304188
 20
600.0
 30
0.0
 11
222.72858472303972
 21
607.5
 31
0.0
 70
0
 71
5
 72
1
 41
1.0
 42
0.0
  1

  3
Standard
100
AcDbAlignedDimension
 13
209.22858472303756
 23
600.0
 33
0.0
 14
236.22858472304188
 24
184.848546209083
 34
0.0
 50
0.0
100
AcDbRotatedDimension
  0
DIMENSION
  5
97
100
AcDbEntity
  8
COTE
 62
256
370
-1
  6
ByLayer
100
AcDbDimension
 10
236.22858472304188
 20
640.0
 30
0.0
 11
121.72858472304085
 21
647.5
 31
0.0
 70
0
 71
5
 72
1
 41
1.0
 42
0.0
  1

  3
Standard
100
AcDbAlignedDimension
 13
7.2285847230398161
 23
600.0
 33
0.0
 14
236.22858472304188
 24
600.0
 34
0.0
 50
0.0
100
AcDbRotatedDimension
  0
DIMENSION
  5
98
100
AcDbEntity
  8
COTE
 62
256
370
-1
  6
ByLayer
100
AcDbDimension
 10
-88.132022471912833
 20
553.848546209083
 30
0.0
 11
-95.632022471912833
 21
369.348546209083
 31
0.0
 70
0
 71
5
 72
1
 41
1.0
 42
0.0
  1

  3
Standard
100
AcDbAlignedDimension
 13
36.228584723041521
 23
184.84854620908303
 33
0.0
 14
98.707865168542426
 24
553.848546209083
 34
0.0
 50
90.0
100
AcDbRotatedDimension
  0
ENDSEC
  0
SECTION
  2
OBJECTS
  0
DICTIONARY
  5
C
100
AcDbDictionary
280
0
281
1
  3
ACAD_GROUP
350
D
  3
ACAD_LAYOUT
350
1A
  3
ACAD_MLINESTYLE
350
17
  3
ACAD_PLOTSETTINGS
350
19
  3
ACAD_PLOTSTYLENAME
350
E
  3
AcDbVariableDictionary
350
99
  0
DICTIONARY
  5
D
100
AcDbDictionary
280
0
281
1
  0
ACDBDICTIONARYWDFLT
  5
E
100
AcDbDictionary
281
1
  3
Normal
350
F
100
AcDbDictionaryWithDefault
340
F
  0
ACDBPLACEHOLDER
  5
F
  0
DICTIONARY
  5
17
100
AcDbDictionary
280
0
281
1
  3
Standard
350
18
  0
MLINESTYLE
  5
18
100
AcDbMlineStyle
  2
STANDARD
 70
0
  3

 62
256
 51
90.0
 52
90.0
 71
2
 49
0.5
 62
256
  6
BYLAYER
 49
-0.5
 62
256
  6
BYLAYER
  0
DICTIONARY
  5
19
100
AcDbDictionary
280
0
281
1
  0
DICTIONARY
  5
1A
100
AcDbDictionary
281
1
  3
Layout1
350
1E
  3
Layout2
350
26
  3
Model
350
22
  0
LAYOUT
  5
1E
100
AcDbPlotSettings
  1

  2
C:\Program Files\AutoCAD 2002\plotters\DWF ePlot (optimized for plotting).pc3
  4

  6

 40
0.0
 41
0.0
 42
0.0
 43
0.0
 44
0.0
 45
0.0
 46
0.0
 47
0.0
 48
0.0
 49
0.0
140
0.0
141
0.0
142
1.0
143
1.0
 70
688
 72
0
 73
0
 74
5
  7

 75
16
147
1.0
148
0.0
149
0.0
100
AcDbLayout
  1
Layout1
 70
1
 71
1
 10
0.0
 20
0.0
 11
420.0
 21
297.0
 12
0.0
 22
0.0
 32
0.0
 14
100000000000000000000.0
 24
100000000000000000000.0
 34
100000000000000000000.0
 15
-100000000000000000000.0
 25
-100000000000000000000.0
 35
-100000000000000000000.0
146
0.0
 13
0.0
 23
0.0
 33
0.0
 16
1.0
 26
0.0
 36
0.0
 17
0.0
 27
1.0
 37
0.0
 76
0
330
1B
  0
LAYOUT
  5
22
100
AcDbPlotSettings
  1

  2
C:\Program Files\AutoCAD 2002\plotters\DWF ePlot (optimized for plotting).pc3
  4

  6

 40
0.0
 41
0.0
 42
0.0
 43
0.0
 44
0.0
 45
0.0
 46
0.0
 47
0.0
 48
0.0
 49
0.0
140
0.0
141
0.0
142
1.0
143
1.0
 70
1712
 72
0
 73
0
 74
0
  7

 75
0
147
1.0
148
0.0
149
0.0
100
AcDbLayout
  1
Model
 70
1
 71
0
 10
0.0
 20
0.0
 11
12.0
 21
9.0
 12
0.0
 22
0.0
 32
0.0
 14
0.0
 24
0.0
 34
0.0
 15
0.0
 25
0.0
 35
0.0
146
0.0
 13
0.0
 23
0.0
 33
0.0
 16
1.0
 26
0.0
 36
0.0
 17
0.0
 27
1.0
 37
0.0
 76
0
330
1F
  0
LAYOUT
  5
26
100
AcDbPlotSettings
  1

  2
C:\Program Files\AutoCAD 2002\plotters\DWF ePlot (optimized for plotting).pc3
  4

  6

 40
0.0
 41
0.0
 42
0.0
 43
0.0
 44
0.0
 45
0.0
 46
0.0
 47
0.0
 48
0.0
 49
0.0
140
0.0
141
0.0
142
1.0
143
1.0
 70
688
 72
0
 73
0
 74
5
  7

 75
16
147
1.0
148
0.0
149
0.0
100
AcDbLayout
  1
Layout2
 70
1
 71
2
 10
0.0
 20
0.0
 11
12.0
 21
9.0
 12
0.0
 22
0.0
 32
0.0
 14
0.0
 24
0.0
 34
0.0
 15
0.0
 25
0.0
 35
0.0
146
0.0
 13
0.0
 23
0.0
 33
0.0
 16
1.0
 26
0.0
 36
0.0
 17
0.0
 27
1.0
 37
0.0
 76
0
330
23
  0
DICTIONARY
  5
99
100
AcDbDictionary
281
1
  3
DIMASSOC
350
9B
  3
HIDETEXT
350
9A
  0
DICTIONARYVAR
  5
9A
100
DictionaryVariables
280
0
  1
2
  0
DICTIONARYVAR
  5
9B
100
DictionaryVariables
280
0
  1
1
  0
ENDSEC
  0
EOF
