999
dxflib 2.2.0.0
  0
SECTION
  2
HEADER
  9
$ACADVER
  1
AC1015
  9
$HANDSEED
  5
FFFF
  9
$DIMASZ
 40
2.5
  9
$PLIMMIN
 10
0.0
 20
0.0
  9
$DIMEXE
 40
1.25
  9
$DIMGAP
 40
0.625
  9
$PLIMMAX
 10
210.0
 20
297.0
  9
$INSUNITS
 70
0
  9
$DIMSTYLE
  2
Standard
  9
$CLAYER
  8
axe
  9
$DIMEXO
 40
0.625
  9
$DIMTXT
 40
2.5
  9
$CLAYER
  8
cacher
  0
ENDSEC
  0
SECTION
  2
TABLES
  0
TABLE
  2
VPORT
  5
8
100
AcDbSymbolTable
 70
1
  0
VPORT
  5
30
100
AcDbSymbolTableRecord
100
AcDbViewportTableRecord
  2
*Active
 70
0
 10
0.0
 20
0.0
 11
1.0
 21
1.0
 12
286.30555555555549
 22
148.5
 13
0.0
 23
0.0
 14
10.0
 24
10.0
 15
10.0
 25
10.0
 16
0.0
 26
0.0
 36
1.0
 17
0.0
 27
0.0
 37
0.0
 40
297.0
 41
1.92798353909465
 42
50.0
 43
0.0
 44
0.0
 50
0.0
 51
0.0
 71
0
 72
100
 73
1
 74
3
 75
1
 76
1
 77
0
 78
0
281
0
 65
1
110
0.0
120
0.0
130
0.0
111
1.0
121
0.0
131
0.0
112
0.0
122
1.0
132
0.0
 79
0
146
0.0
  0
ENDTAB
  0
TABLE
  2
LTYPE
  5
5
100
AcDbSymbolTable
 70
21
  0
LTYPE
  5
14
100
AcDbSymbolTableRecord
100
AcDbLinetypeTableRecord
  2
ByBlock
 70
0
  3

 72
65
 73
0
 40
0.0
  0
LTYPE
  5
15
100
AcDbSymbolTableRecord
100
AcDbLinetypeTableRecord
  2
ByLayer
 70
0
  3

 72
65
 73
0
 40
0.0
  0
LTYPE
  5
16
100
AcDbSymbolTableRecord
100
AcDbLinetypeTableRecord
  2
CONTINUOUS
 70
0
  3
Solid line
 72
65
 73
0
 40
0.0
  0
LTYPE
  5
31
100
AcDbSymbolTableRecord
100
AcDbLinetypeTableRecord
  2
DOT
 70
0
  3
Dot . . . . . . . . . . . . . . . . . . . . . .
 72
65
 73
2
 40
6.3499999999999996
 49
0.0
 74
0
 49
-6.3499999999999996
 74
0
  0
LTYPE
  5
32
100
AcDbSymbolTableRecord
100
AcDbLinetypeTableRecord
  2
DOT2
 70
0
  3
Dot (.5x) .....................................
 72
65
 73
2
 40
3.1749999999999998
 49
0.0
 74
0
 49
-3.1749999999999998
 74
0
  0
LTYPE
  5
33
100
AcDbSymbolTableRecord
100
AcDbLinetypeTableRecord
  2
DOTX2
 70
0
  3
Dot (2x) .  .  .  .  .  .  .  .  .  .  .  .  .
 72
65
 73
2
 40
12.699999999999999
 49
0.0
 74
0
 49
-12.699999999999999
 74
0
  0
LTYPE
  5
34
100
AcDbSymbolTableRecord
100
AcDbLinetypeTableRecord
  2
DASHED
 70
0
  3
Dashed __ __ __ __ __ __ __ __ __ __ __ __ __ _
 72
65
 73
2
 40
19.050000000000001
 49
12.699999999999999
 74
0
 49
-6.3499999999999996
 74
0
  0
LTYPE
  5
35
100
AcDbSymbolTableRecord
100
AcDbLinetypeTableRecord
  2
DASHED2
 70
0
  3
Dashed (.5x) _ _ _ _ _ _ _ _ _ _ _ _ _ _ _ _ _
 72
65
 73
2
 40
9.5250000000000004
 49
6.3499999999999996
 74
0
 49
-3.1749999999999998
 74
0
  0
LTYPE
  5
36
100
AcDbSymbolTableRecord
100
AcDbLinetypeTableRecord
  2
DASHEDX2
 70
0
  3
Dashed (2x) ____  ____  ____  ____  ____  ___
 72
65
 73
2
 40
38.100000000000001
 49
25.399999999999999
 74
0
 49
-12.699999999999999
 74
0
  0
LTYPE
  5
37
100
AcDbSymbolTableRecord
100
AcDbLinetypeTableRecord
  2
DASHDOT
 70
0
  3
Dash dot __ . __ . __ . __ . __ . __ . __ . __
 72
65
 73
4
 40
25.399999999999999
 49
12.699999999999999
 74
0
 49
-6.3499999999999996
 74
0
 49
0.0
 74
0
 49
-6.3499999999999996
 74
0
  0
LTYPE
  5
38
100
AcDbSymbolTableRecord
100
AcDbLinetypeTableRecord
  2
DASHDOT2
 70
0
  3
Dash dot (.5x) _._._._._._._._._._._._._._._.
 72
65
 73
4
 40
12.699999999999999
 49
6.3499999999999996
 74
0
 49
-3.1749999999999998
 74
0
 49
0.0
 74
0
 49
-3.1749999999999998
 74
0
  0
LTYPE
  5
39
100
AcDbSymbolTableRecord
100
AcDbLinetypeTableRecord
  2
DASHDOTX2
 70
0
  3
Dash dot (2x) ____  .  ____  .  ____  .  ___
 72
65
 73
4
 40
50.799999999999997
 49
25.399999999999999
 74
0
 49
-12.699999999999999
 74
0
 49
0.0
 74
0
 49
-12.699999999999999
 74
0
  0
LTYPE
  5
3A
100
AcDbSymbolTableRecord
100
AcDbLinetypeTableRecord
  2
DIVIDE
 70
0
  3
Divide ____ . . ____ . . ____ . . ____ . . ____
 72
65
 73
6
 40
31.75
 49
12.699999999999999
 74
0
 49
-6.3499999999999996
 74
0
 49
0.0
 74
0
 49
-6.3499999999999996
 74
0
 49
0.0
 74
0
 49
-6.3499999999999996
 74
0
  0
LTYPE
  5
3B
100
AcDbSymbolTableRecord
100
AcDbLinetypeTableRecord
  2
DIVIDE2
 70
0
  3
Divide (.5x) __..__..__..__..__..__..__..__.._
 72
65
 73
6
 40
15.875
 49
6.3499999999999996
 74
0
 49
-3.1749999999999998
 74
0
 49
0.0
 74
0
 49
-3.1749999999999998
 74
0
 49
0.0
 74
0
 49
-3.1749999999999998
 74
0
  0
LTYPE
  5
3C
100
AcDbSymbolTableRecord
100
AcDbLinetypeTableRecord
  2
DIVIDEX2
 70
0
  3
Divide (2x) ________  .  .  ________  .  .  _
 72
65
 73
6
 40
63.5
 49
25.399999999999999
 74
0
 49
-12.699999999999999
 74
0
 49
0.0
 74
0
 49
-12.699999999999999
 74
0
 49
0.0
 74
0
 49
-12.699999999999999
 74
0
  0
LTYPE
  5
3D
100
AcDbSymbolTableRecord
100
AcDbLinetypeTableRecord
  2
CENTER
 70
0
  3
Center ____ _ ____ _ ____ _ ____ _ ____ _ ____
 72
65
 73
4
 40
50.799999999999997
 49
31.75
 74
0
 49
-6.3499999999999996
 74
0
 49
6.3499999999999996
 74
0
 49
-6.3499999999999996
 74
0
  0
LTYPE
  5
3E
100
AcDbSymbolTableRecord
100
AcDbLinetypeTableRecord
  2
CENTER2
 70
0
  3
Center (.5x) ___ _ ___ _ ___ _ ___ _ ___ _ ___
 72
65
 73
4
 40
28.574999999999999
 49
19.050000000000001
 74
0
 49
-3.1749999999999998
 74
0
 49
3.1749999999999998
 74
0
 49
-3.1749999999999998
 74
0
  0
LTYPE
  5
3F
100
AcDbSymbolTableRecord
100
AcDbLinetypeTableRecord
  2
CENTERX2
 70
0
  3
Center (2x) ________  __  ________  __  _____
 72
65
 73
4
 40
101.59999999999999
 49
63.5
 74
0
 49
-12.699999999999999
 74
0
 49
12.699999999999999
 74
0
 49
-12.699999999999999
 74
0
  0
LTYPE
  5
40
100
AcDbSymbolTableRecord
100
AcDbLinetypeTableRecord
  2
BORDER
 70
0
  3
Border __ __ . __ __ . __ __ . __ __ . __ __ .
 72
65
 73
6
 40
44.450000000000003
 49
12.699999999999999
 74
0
 49
-6.3499999999999996
 74
0
 49
12.699999999999999
 74
0
 49
-6.3499999999999996
 74
0
 49
0.0
 74
0
 49
-6.3499999999999996
 74
0
  0
LTYPE
  5
41
100
AcDbSymbolTableRecord
100
AcDbLinetypeTableRecord
  2
BORDER2
 70
0
  3
Border (.5x) __.__.__.__.__.__.__.__.__.__.__.
 72
65
 73
6
 40
22.225000000000001
 49
6.3499999999999996
 74
0
 49
-3.1749999999999998
 74
0
 49
6.3499999999999996
 74
0
 49
-3.1749999999999998
 74
0
 49
0.0
 74
0
 49
-3.1749999999999998
 74
0
  0
LTYPE
  5
42
100
AcDbSymbolTableRecord
100
AcDbLinetypeTableRecord
  2
BORDERX2
 70
0
  3
Border (2x) ____  ____  .  ____  ____  .  ___
 72
65
 73
6
 40
88.900000000000006
 49
25.399999999999999
 74
0
 49
-12.699999999999999
 74
0
 49
25.399999999999999
 74
0
 49
-12.699999999999999
 74
0
 49
0.0
 74
0
 49
-12.699999999999999
 74
0
  0
ENDTAB
  0
TABLE
  2
LAYER
  5
2
100
AcDbSymbolTable
 70
4
  0
LAYER
  5
10
100
AcDbSymbolTableRecord
100
AcDbLayerTableRecord
  2
0
 70
0
 62
7
420
0
  6
CONTINUOUS
370
25
390
F
  0
LAYER
  5
43
100
AcDbSymbolTableRecord
100
AcDbLayerTableRecord
  2
axe
 70
0
 62
1
420
16711680
  6
DASHDOTX2
370
0
390
F
  0
LAYER
  5
44
100
AcDbSymbolTableRecord
100
AcDbLayerTableRecord
  2
ALU_X_A
 70
0
 62
7
420
0
  6
CONTINUOUS
370
0
390
F
  0
LAYER
  5
45
100
AcDbSymbolTableRecord
100
AcDbLayerTableRecord
  2
cacher
 70
0
 62
3
420
65280
  6
DASHED2
370
0
390
F
  0
ENDTAB
  0
TABLE
  2
STYLE
  5
3
100
AcDbSymbolTable
 70
1
  0
STYLE
  5
11
100
AcDbSymbolTableRecord
100
AcDbTextStyleTableRecord
  2
Standard
 70
0
 40
0.0
 41
0.75
 50
0.0
 71
0
 42
2.5
  3
txt
  4

  0
ENDTAB
  0
TABLE
  2
VIEW
  5
6
100
AcDbSymbolTable
 70
0
  0
ENDTAB
  0
TABLE
  2
UCS
  5
7
100
AcDbSymbolTable
 70
0
  0
ENDTAB
  0
TABLE
  2
APPID
  5
9
100
AcDbSymbolTable
 70
1
  0
APPID
  5
12
100
AcDbSymbolTableRecord
100
AcDbRegAppTableRecord
  2
ACAD
 70
0
  0
ENDTAB
  0
TABLE
  2
DIMSTYLE
  5
A
100
AcDbSymbolTable
 70
1
100
AcDbDimStyleTable
 71
0
  0
DIMSTYLE
105
27
100
AcDbSymbolTableRecord
100
AcDbDimStyleTableRecord
  2
Standard
 41
2.5
 42
0.625
 43
3.75
 44
1.25
 70
0
 73
0
 74
0
 77
1
 78
8
140
2.5
141
2.5
143
0.03937007874016
147
0.625
171
3
172
1
271
2
272
2
274
3
278
44
283
0
284
8
340
11
  0
ENDTAB
  0
TABLE
  2
BLOCK_RECORD
  5
1
100
AcDbSymbolTable
 70
1
  0
BLOCK_RECORD
  5
1F
100
AcDbSymbolTableRecord
100
AcDbBlockTableRecord
  2
*Model_Space
340
22
  0
BLOCK_RECORD
  5
1B
100
AcDbSymbolTableRecord
100
AcDbBlockTableRecord
  2
*Paper_Space
340
1E
  0
BLOCK_RECORD
  5
23
100
AcDbSymbolTableRecord
100
AcDbBlockTableRecord
  2
*Paper_Space0
340
26
  0
ENDTAB
  0
ENDSEC
  0
SECTION
  2
BLOCKS
  0
BLOCK
  5
20
100
AcDbEntity
  8
0
100
AcDbBlockBegin
  2
*Model_Space
 70
0
 10
0.0
 20
0.0
 30
0.0
  3
*Model_Space
  1

  0
ENDBLK
  5
21
100
AcDbEntity
  8
0
100
AcDbBlockEnd
  0
BLOCK
  5
1C
100
AcDbEntity
 67
1
  8
0
100
AcDbBlockBegin
  2
*Paper_Space
 70
0
 10
0.0
 20
0.0
 30
0.0
  3
*Paper_Space
  1

  0
ENDBLK
  5
1D
100
AcDbEntity
 67
1
  8
0
100
AcDbBlockEnd
  0
BLOCK
  5
24
100
AcDbEntity
  8
0
100
AcDbBlockBegin
  2
*Paper_Space0
 70
0
 10
0.0
 20
0.0
 30
0.0
  3
*Paper_Space0
  1

  0
ENDBLK
  5
25
100
AcDbEntity
  8
0
100
AcDbBlockEnd
  0
ENDSEC
  0
SECTION
  2
ENTITIES
  0
LINE
  5
46
100
AcDbEntity
100
AcDbLine
  8
axe
 62
256
370
-1
  6
ByLayer
 10
42.499999999999943
 20
218.50000000000006
 30
0.0
 11
42.499999999999943
 21
208.50000000000006
 31
0.0
  0
LINE
  5
47
100
AcDbEntity
100
AcDbLine
  8
axe
 62
256
370
-1
  6
ByLayer
 10
37.499999999999936
 20
213.50000000000011
 30
0.0
 11
47.499999999999943
 21
213.50000000000006
 31
0.0
  0
LINE
  5
48
100
AcDbEntity
100
AcDbLine
  8
axe
 62
256
370
-1
  6
ByLayer
 10
42.499999999999922
 20
183.50000000000006
 30
0.0
 11
42.499999999999943
 21
173.50000000000006
 31
0.0
  0
LINE
  5
49
100
AcDbEntity
100
AcDbLine
  8
axe
 62
256
370
-1
  6
ByLayer
 10
37.499999999999943
 20
178.50000000000006
 30
0.0
 11
47.499999999999936
 21
178.50000000000006
 31
0.0
  0
LINE
  5
4A
100
AcDbEntity
100
AcDbLine
  8
axe
 62
256
370
-1
  6
ByLayer
 10
7.4999999999999289
 20
183.50000000000006
 30
0.0
 11
7.4999999999999432
 21
173.50000000000006
 31
0.0
  0
LINE
  5
4B
100
AcDbEntity
100
AcDbLine
  8
axe
 62
256
370
-1
  6
ByLayer
 10
2.4999999999999289
 20
178.50000000000009
 30
0.0
 11
12.499999999999929
 21
178.50000000000006
 31
0.0
  0
LINE
  5
4C
100
AcDbEntity
100
AcDbLine
  8
axe
 62
256
370
-1
  6
ByLayer
 10
7.4999999999999432
 20
218.50000000000017
 30
0.0
 11
7.4999999999999432
 21
208.50000000000006
 31
0.0
  0
LINE
  5
4D
100
AcDbEntity
100
AcDbLine
  8
axe
 62
256
370
-1
  6
ByLayer
 10
2.4999999999999432
 20
213.50000000000006
 30
0.0
 11
12.499999999999943
 21
213.5
 31
0.0
  0
LINE
  5
4E
100
AcDbEntity
100
AcDbLine
  8
axe
 62
256
370
-1
  6
ByLayer
 10
192.49999999999994
 20
218.5
 30
0.0
 11
192.49999999999994
 21
208.49999999999994
 31
0.0
  0
LINE
  5
4F
100
AcDbEntity
100
AcDbLine
  8
axe
 62
256
370
-1
  6
ByLayer
 10
187.49999999999994
 20
213.5
 30
0.0
 11
197.49999999999994
 21
213.50000000000011
 31
0.0
  0
LINE
  5
50
100
AcDbEntity
100
AcDbLine
  8
axe
 62
256
370
-1
  6
ByLayer
 10
192.49999999999994
 20
183.50000000000006
 30
0.0
 11
192.49999999999991
 21
173.5
 31
0.0
  0
LINE
  5
51
100
AcDbEntity
100
AcDbLine
  8
axe
 62
256
370
-1
  6
ByLayer
 10
187.49999999999991
 20
178.5
 30
0.0
 11
197.49999999999994
 21
178.50000000000006
 31
0.0
  0
LINE
  5
52
100
AcDbEntity
100
AcDbLine
  8
axe
 62
256
370
-1
  6
ByLayer
 10
157.49999999999994
 20
183.50000000000006
 30
0.0
 11
157.49999999999994
 21
173.50000000000006
 31
0.0
  0
LINE
  5
53
100
AcDbEntity
100
AcDbLine
  8
axe
 62
256
370
-1
  6
ByLayer
 10
152.49999999999994
 20
178.50000000000006
 30
0.0
 11
162.49999999999994
 21
178.50000000000006
 31
0.0
  0
LINE
  5
54
100
AcDbEntity
100
AcDbLine
  8
axe
 62
256
370
-1
  6
ByLayer
 10
157.49999999999994
 20
218.50000000000006
 30
0.0
 11
157.49999999999994
 21
208.50000000000006
 31
0.0
  0
LINE
  5
55
100
AcDbEntity
100
AcDbLine
  8
axe
 62
256
370
-1
  6
ByLayer
 10
152.49999999999994
 20
213.50000000000006
 30
0.0
 11
162.49999999999994
 21
213.50000000000006
 31
0.0
  0
LINE
  5
56
100
AcDbEntity
100
AcDbLine
  8
axe
 62
256
370
-1
  6
ByLayer
 10
42.499999999999936
 20
66.500000000000057
 30
0.0
 11
42.499999999999865
 21
56.500000000000057
 31
0.0
  0
LINE
  5
57
100
AcDbEntity
100
AcDbLine
  8
axe
 62
256
370
-1
  6
ByLayer
 10
37.499999999999986
 20
61.500000000000057
 30
0.0
 11
47.499999999999865
 21
61.500000000000085
 31
0.0
  0
LINE
  5
58
100
AcDbEntity
100
AcDbLine
  8
axe
 62
256
370
-1
  6
ByLayer
 10
42.499999999999993
 20
31.500000000000057
 30
0.0
 11
42.499999999999972
 21
21.500000000000028
 31
0.0
  0
LINE
  5
59
100
AcDbEntity
100
AcDbLine
  8
axe
 62
256
370
-1
  6
ByLayer
 10
37.499999999999886
 20
26.500000000000085
 30
0.0
 11
47.499999999999837
 21
26.500000000000114
 31
0.0
  0
LINE
  5
5A
100
AcDbEntity
100
AcDbLine
  8
axe
 62
256
370
-1
  6
ByLayer
 10
7.4999999999998721
 20
31.500000000000114
 30
0.0
 11
7.5000000000000142
 21
21.500000000000057
 31
0.0
  0
LINE
  5
5B
100
AcDbEntity
100
AcDbLine
  8
axe
 62
256
370
-1
  6
ByLayer
 10
2.4999999999998863
 20
26.500000000000085
 30
0.0
 11
12.499999999999886
 21
26.500000000000085
 31
0.0
  0
LINE
  5
5C
100
AcDbEntity
100
AcDbLine
  8
axe
 62
256
370
-1
  6
ByLayer
 10
7.4999999999999289
 20
66.500000000000057
 30
0.0
 11
7.5
 21
56.500000000000028
 31
0.0
  0
LINE
  5
5D
100
AcDbEntity
100
AcDbLine
  8
axe
 62
256
370
-1
  6
ByLayer
 10
2.4999999999998721
 20
61.500000000000114
 30
0.0
 11
12.499999999999829
 21
61.500000000000114
 31
0.0
  0
LINE
  5
5E
100
AcDbEntity
100
AcDbLine
  8
axe
 62
256
370
-1
  6
ByLayer
 10
192.49999999999997
 20
66.500000000000085
 30
0.0
 11
192.49999999999986
 21
56.5
 31
0.0
  0
LINE
  5
5F
100
AcDbEntity
100
AcDbLine
  8
axe
 62
256
370
-1
  6
ByLayer
 10
187.49999999999991
 20
61.500000000000057
 30
0.0
 11
197.49999999999989
 21
61.500000000000028
 31
0.0
  0
LINE
  5
60
100
AcDbEntity
100
AcDbLine
  8
axe
 62
256
370
-1
  6
ByLayer
 10
192.49999999999986
 20
31.5
 30
0.0
 11
192.49999999999994
 21
21.500000000000057
 31
0.0
  0
LINE
  5
61
100
AcDbEntity
100
AcDbLine
  8
axe
 62
256
370
-1
  6
ByLayer
 10
187.49999999999983
 20
26.5
 30
0.0
 11
197.49999999999997
 21
26.500000000000057
 31
0.0
  0
LINE
  5
62
100
AcDbEntity
100
AcDbLine
  8
axe
 62
256
370
-1
  6
ByLayer
 10
157.49999999999991
 20
31.500000000000057
 30
0.0
 11
157.49999999999983
 21
21.500000000000028
 31
0.0
  0
LINE
  5
63
100
AcDbEntity
100
AcDbLine
  8
axe
 62
256
370
-1
  6
ByLayer
 10
152.49999999999994
 20
26.500000000000085
 30
0.0
 11
162.49999999999991
 21
26.500000000000057
 31
0.0
  0
LINE
  5
64
100
AcDbEntity
100
AcDbLine
  8
axe
 62
256
370
-1
  6
ByLayer
 10
157.49999999999994
 20
66.500000000000057
 30
0.0
 11
157.49999999999994
 21
56.500000000000057
 31
0.0
  0
LINE
  5
65
100
AcDbEntity
100
AcDbLine
  8
axe
 62
256
370
-1
  6
ByLayer
 10
152.49999999999991
 20
61.500000000000057
 30
0.0
 11
162.49999999999991
 21
61.500000000000057
 31
0.0
  0
LINE
  5
66
100
AcDbEntity
100
AcDbLine
  8
ALU_X_A
 62
256
370
-1
  6
ByLayer
 10
199.9999999999998
 20
0.0
 30
0.0
 11
0.0
 21
0.0
 31
0.0
  0
CIRCLE
  5
67
100
AcDbEntity
100
AcDbCircle
  8
ALU_X_A
 62
256
370
-1
  6
ByLayer
 10
7.4999999999999432
 20
213.50000000000006
 30
0.0
 40
3.0
  0
CIRCLE
  5
68
100
AcDbEntity
100
AcDbCircle
  8
ALU_X_A
 62
256
370
-1
  6
ByLayer
 10
42.499999999999936
 20
213.50000000000011
 30
0.0
 40
3.0
  0
CIRCLE
  5
69
100
AcDbEntity
100
AcDbCircle
  8
ALU_X_A
 62
256
370
-1
  6
ByLayer
 10
7.4999999999999289
 20
178.50000000000011
 30
0.0
 40
3.0
  0
CIRCLE
  5
6A
100
AcDbEntity
100
AcDbCircle
  8
ALU_X_A
 62
256
370
-1
  6
ByLayer
 10
42.499999999999915
 20
178.50000000000009
 30
0.0
 40
3.0
  0
CIRCLE
  5
6B
100
AcDbEntity
100
AcDbCircle
  8
ALU_X_A
 62
256
370
-1
  6
ByLayer
 10
7.4999999999999858
 20
61.500000000000057
 30
0.0
 40
3.0
  0
CIRCLE
  5
6C
100
AcDbEntity
100
AcDbCircle
  8
ALU_X_A
 62
256
370
-1
  6
ByLayer
 10
42.499999999999901
 20
61.500000000000085
 30
0.0
 40
3.0
  0
CIRCLE
  5
6D
100
AcDbEntity
100
AcDbCircle
  8
ALU_X_A
 62
256
370
-1
  6
ByLayer
 10
7.499999999999801
 20
26.500000000000142
 30
0.0
 40
3.0
  0
CIRCLE
  5
6E
100
AcDbEntity
100
AcDbCircle
  8
ALU_X_A
 62
256
370
-1
  6
ByLayer
 10
42.499999999999908
 20
26.500000000000085
 30
0.0
 40
3.0
  0
CIRCLE
  5
6F
100
AcDbEntity
100
AcDbCircle
  8
ALU_X_A
 62
256
370
-1
  6
ByLayer
 10
157.49999999999994
 20
26.500000000000057
 30
0.0
 40
3.0
  0
CIRCLE
  5
70
100
AcDbEntity
100
AcDbCircle
  8
ALU_X_A
 62
256
370
-1
  6
ByLayer
 10
192.49999999999989
 20
26.500000000000057
 30
0.0
 40
3.0
  0
CIRCLE
  5
71
100
AcDbEntity
100
AcDbCircle
  8
ALU_X_A
 62
256
370
-1
  6
ByLayer
 10
157.49999999999989
 20
61.500000000000028
 30
0.0
 40
3.0
  0
CIRCLE
  5
72
100
AcDbEntity
100
AcDbCircle
  8
ALU_X_A
 62
256
370
-1
  6
ByLayer
 10
192.49999999999989
 20
61.500000000000028
 30
0.0
 40
3.0
  0
CIRCLE
  5
73
100
AcDbEntity
100
AcDbCircle
  8
ALU_X_A
 62
256
370
-1
  6
ByLayer
 10
157.49999999999994
 20
213.50000000000006
 30
0.0
 40
3.0
  0
CIRCLE
  5
74
100
AcDbEntity
100
AcDbCircle
  8
ALU_X_A
 62
256
370
-1
  6
ByLayer
 10
157.49999999999994
 20
178.50000000000006
 30
0.0
 40
3.0
  0
CIRCLE
  5
75
100
AcDbEntity
100
AcDbCircle
  8
ALU_X_A
 62
256
370
-1
  6
ByLayer
 10
192.49999999999991
 20
178.5
 30
0.0
 40
3.0
  0
CIRCLE
  5
76
100
AcDbEntity
100
AcDbCircle
  8
ALU_X_A
 62
256
370
-1
  6
ByLayer
 10
192.49999999999994
 20
213.50000000000006
 30
0.0
 40
3.0
  0
LINE
  5
77
100
AcDbEntity
100
AcDbLine
  8
axe
 62
256
370
-1
  6
ByLayer
 10
7.4999999999999716
 20
385.00000000000006
 30
0.0
 11
7.4999999999999574
 21
395.00000000000006
 31
0.0
  0
LINE
  5
78
100
AcDbEntity
100
AcDbLine
  8
axe
 62
256
370
-1
  6
ByLayer
 10
52.499999999999929
 20
385.00000000000006
 30
0.0
 11
52.499999999999943
 21
395.00000000000006
 31
0.0
  0
LINE
  5
79
100
AcDbEntity
100
AcDbLine
  8
axe
 62
256
370
-1
  6
ByLayer
 10
147.49999999999994
 20
385.00000000000006
 30
0.0
 11
147.49999999999991
 21
395.00000000000006
 31
0.0
  0
LINE
  5
7A
100
AcDbEntity
100
AcDbLine
  8
axe
 62
256
370
-1
  6
ByLayer
 10
192.49999999999994
 20
385.00000000000006
 30
0.0
 11
192.49999999999994
 21
395.00000000000006
 31
0.0
  0
LINE
  5
7B
100
AcDbEntity
100
AcDbLine
  8
axe
 62
256
370
-1
  6
ByLayer
 10
7.4999999999999574
 20
5.0000000000000568
 30
0.0
 11
7.4999999999997868
 21
15.000000000000142
 31
0.0
  0
LINE
  5
7C
100
AcDbEntity
100
AcDbLine
  8
axe
 62
256
370
-1
  6
ByLayer
 10
52.499999999999943
 20
5.0000000000000853
 30
0.0
 11
52.499999999999851
 21
15.000000000000057
 31
0.0
  0
LINE
  5
7D
100
AcDbEntity
100
AcDbLine
  8
axe
 62
256
370
-1
  6
ByLayer
 10
147.49999999999983
 20
5.0000000000000284
 30
0.0
 11
147.5
 21
15.000000000000057
 31
0.0
  0
LINE
  5
7E
100
AcDbEntity
100
AcDbLine
  8
axe
 62
256
370
-1
  6
ByLayer
 10
192.49999999999994
 20
5.0000000000000568
 30
0.0
 11
192.49999999999986
 21
15.000000000000028
 31
0.0
  0
LINE
  5
7F
100
AcDbEntity
100
AcDbLine
  8
axe
 62
256
370
-1
  6
ByLayer
 10
4.9999999999999432
 20
185.00000000000006
 30
0.0
 11
15.00000000000081
 21
185.00000000000011
 31
0.0
  0
LINE
  5
80
100
AcDbEntity
100
AcDbLine
  8
axe
 62
256
370
-1
  6
ByLayer
 10
9.9999999999999289
 20
180.00000000000122
 30
0.0
 11
9.9999999999999432
 21
190.00000000000119
 31
0.0
  0
CIRCLE
  5
81
100
AcDbEntity
100
AcDbCircle
  8
ALU_X_A
 62
256
370
-1
  6
ByLayer
 10
125.99999999999905
 20
140.00000000000006
 30
0.0
 40
3.0
  0
CIRCLE
  5
82
100
AcDbEntity
100
AcDbCircle
  8
ALU_X_A
 62
256
370
-1
  6
ByLayer
 10
125.99999999999901
 20
99.999999999999375
 30
0.0
 40
3.0
  0
LINE
  5
83
100
AcDbEntity
100
AcDbLine
  8
ALU_X_A
 62
256
370
-1
  6
ByLayer
 10
-0.0000000000000568
 20
400.00000000000097
 30
0.0
 11
199.99999999999994
 21
400.00000000000097
 31
0.0
  0
CIRCLE
  5
84
100
AcDbEntity
100
AcDbCircle
  8
ALU_X_A
 62
256
370
-1
  6
ByLayer
 10
76.99999999999801
 20
337.50000000000097
 30
0.0
 40
2.5
  0
CIRCLE
  5
85
100
AcDbEntity
100
AcDbCircle
  8
ALU_X_A
 62
256
370
-1
  6
ByLayer
 10
122.99999999999858
 20
337.50000000000097
 30
0.0
 40
2.5
  0
LINE
  5
86
100
AcDbEntity
100
AcDbLine
  8
ALU_X_A
 62
256
370
-1
  6
ByLayer
 10
0.0
 20
0.0
 30
0.0
 11
-0.0000000000000568
 21
400.00000000000097
 31
0.0
  0
LINE
  5
87
100
AcDbEntity
100
AcDbLine
  8
ALU_X_A
 62
256
370
-1
  6
ByLayer
 10
199.99999999999994
 20
400.00000000000097
 30
0.0
 11
199.9999999999998
 21
0.0
 31
0.0
  0
CIRCLE
  5
88
100
AcDbEntity
100
AcDbCircle
  8
ALU_X_A
 62
256
370
-1
  6
ByLayer
 10
76.999999999998522
 20
76.500000000000966
 30
0.0
 40
2.5
  0
CIRCLE
  5
89
100
AcDbEntity
100
AcDbCircle
  8
ALU_X_A
 62
256
370
-1
  6
ByLayer
 10
122.99999999999903
 20
76.500000000000966
 30
0.0
 40
2.5
  0
CIRCLE
  5
8A
100
AcDbEntity
100
AcDbCircle
  8
ALU_X_A
 62
256
370
-1
  6
ByLayer
 10
85.999999999999943
 20
9.5000000000000568
 30
0.0
 40
3.0
  0
CIRCLE
  5
8B
100
AcDbEntity
100
AcDbCircle
  8
ALU_X_A
 62
256
370
-1
  6
ByLayer
 10
113.99999999999996
 20
9.5000000000000568
 30
0.0
 40
3.0
  0
LINE
  5
8C
100
AcDbEntity
100
AcDbLine
  8
axe
 62
256
370
-1
  6
ByLayer
 10
85.999999999999858
 20
14.500000000000028
 30
0.0
 11
85.999999999999872
 21
4.5000000000000284
 31
0.0
  0
LINE
  5
8D
100
AcDbEntity
100
AcDbLine
  8
axe
 62
256
370
-1
  6
ByLayer
 10
80.999999999999957
 20
9.5000000000000568
 30
0.0
 11
90.999999999999915
 21
9.5000000000000568
 31
0.0
  0
LINE
  5
8E
100
AcDbEntity
100
AcDbLine
  8
axe
 62
256
370
-1
  6
ByLayer
 10
113.99999999999986
 20
14.500000000000057
 30
0.0
 11
113.99999999999977
 21
4.5000000000000284
 31
0.0
  0
LINE
  5
8F
100
AcDbEntity
100
AcDbLine
  8
axe
 62
256
370
-1
  6
ByLayer
 10
108.99999999999993
 20
9.5000000000000284
 30
0.0
 11
118.99999999999991
 21
9.5000000000000568
 31
0.0
  0
ARC
  5
90
100
AcDbEntity
  8
ALU_X_A
 62
256
370
-1
  6
ByLayer
100
AcDbCircle
 10
65.000000000000483
 20
106.25000000000097
 30
0.0
 40
1.25
100
AcDbArc
 50
180.0
 51
0.0
  0
ARC
  5
91
100
AcDbEntity
  8
ALU_X_A
 62
256
370
-1
  6
ByLayer
100
AcDbCircle
 10
65.000000000000483
 20
113.25000000000097
 30
0.0
 40
1.25
100
AcDbArc
 50
0.0
 51
180.0
  0
LINE
  5
92
100
AcDbEntity
100
AcDbLine
  8
ALU_X_A
 62
256
370
-1
  6
ByLayer
 10
63.750000000000455
 20
113.25000000000097
 30
0.0
 11
63.750000000000526
 21
106.25000000000097
 31
0.0
  0
LINE
  5
93
100
AcDbEntity
100
AcDbLine
  8
ALU_X_A
 62
256
370
-1
  6
ByLayer
 10
66.250000000000512
 20
106.25000000000097
 30
0.0
 11
66.250000000000455
 21
113.25000000000099
 31
0.0
  0
ARC
  5
94
100
AcDbEntity
  8
ALU_X_A
 62
256
370
-1
  6
ByLayer
100
AcDbCircle
 10
74.750000000000526
 20
106.25000000000097
 30
0.0
 40
1.25
100
AcDbArc
 50
180.0
 51
0.0
  0
ARC
  5
95
100
AcDbEntity
  8
ALU_X_A
 62
256
370
-1
  6
ByLayer
100
AcDbCircle
 10
74.750000000000512
 20
113.25000000000097
 30
0.0
 40
1.25
100
AcDbArc
 50
0.0
 51
180.0
  0
LINE
  5
96
100
AcDbEntity
100
AcDbLine
  8
ALU_X_A
 62
256
370
-1
  6
ByLayer
 10
73.500000000000455
 20
113.25000000000097
 30
0.0
 11
73.500000000000497
 21
106.25000000000097
 31
0.0
  0
LINE
  5
97
100
AcDbEntity
100
AcDbLine
  8
ALU_X_A
 62
256
370
-1
  6
ByLayer
 10
76.000000000000441
 20
106.25000000000097
 30
0.0
 11
76.000000000000512
 21
113.25000000000097
 31
0.0
  0
ARC
  5
98
100
AcDbEntity
  8
ALU_X_A
 62
256
370
-1
  6
ByLayer
100
AcDbCircle
 10
65.000000000000512
 20
307.75000000000097
 30
0.0
 40
1.25
100
AcDbArc
 50
360.0
 51
180.0
  0
ARC
  5
99
100
AcDbEntity
  8
ALU_X_A
 62
256
370
-1
  6
ByLayer
100
AcDbCircle
 10
65.000000000000526
 20
300.75000000000097
 30
0.0
 40
1.25
100
AcDbArc
 50
180.0
 51
360.0
  0
LINE
  5
9A
100
AcDbEntity
100
AcDbLine
  8
ALU_X_A
 62
256
370
-1
  6
ByLayer
 10
66.250000000000512
 20
300.75000000000097
 30
0.0
 11
66.250000000000512
 21
307.75000000000097
 31
0.0
  0
LINE
  5
9B
100
AcDbEntity
100
AcDbLine
  8
ALU_X_A
 62
256
370
-1
  6
ByLayer
 10
63.750000000000512
 20
307.75000000000097
 30
0.0
 11
63.750000000000526
 21
300.75000000000097
 31
0.0
  0
ARC
  5
9C
100
AcDbEntity
  8
ALU_X_A
 62
256
370
-1
  6
ByLayer
100
AcDbCircle
 10
74.750000000000512
 20
307.75000000000097
 30
0.0
 40
1.25
100
AcDbArc
 50
360.0
 51
180.0
  0
ARC
  5
9D
100
AcDbEntity
  8
ALU_X_A
 62
256
370
-1
  6
ByLayer
100
AcDbCircle
 10
74.750000000000512
 20
300.75000000000097
 30
0.0
 40
1.25
100
AcDbArc
 50
180.0
 51
360.0
  0
LINE
  5
9E
100
AcDbEntity
100
AcDbLine
  8
ALU_X_A
 62
256
370
-1
  6
ByLayer
 10
76.000000000000512
 20
300.75000000000097
 30
0.0
 11
76.000000000000512
 21
307.75000000000097
 31
0.0
  0
LINE
  5
9F
100
AcDbEntity
100
AcDbLine
  8
ALU_X_A
 62
256
370
-1
  6
ByLayer
 10
73.500000000000512
 20
307.75000000000097
 30
0.0
 11
73.500000000000526
 21
300.75000000000097
 31
0.0
  0
CIRCLE
  5
A0
100
AcDbEntity
100
AcDbCircle
  8
ALU_X_A
 62
256
370
-1
  6
ByLayer
 10
7.4999999999999645
 20
390.00000000000006
 30
0.0
 40
2.5
  0
ARC
  5
A1
100
AcDbEntity
  8
ALU_X_A
 62
256
370
-1
  6
ByLayer
100
AcDbCircle
 10
7.4999999999999645
 20
390.00000000000006
 30
0.0
 40
3.0000000000000155
100
AcDbArc
 50
350.40593177313957
 51
279.59406822686043
  0
CIRCLE
  5
A2
100
AcDbEntity
100
AcDbCircle
  8
ALU_X_A
 62
256
370
-1
  6
ByLayer
 10
52.499999999999936
 20
390.00000000000006
 30
0.0
 40
2.5
  0
ARC
  5
A3
100
AcDbEntity
  8
ALU_X_A
 62
256
370
-1
  6
ByLayer
100
AcDbCircle
 10
52.499999999999936
 20
390.00000000000006
 30
0.0
 40
3.0000000000000155
100
AcDbArc
 50
350.40593177313957
 51
279.59406822686043
  0
CIRCLE
  5
A4
100
AcDbEntity
100
AcDbCircle
  8
ALU_X_A
 62
256
370
-1
  6
ByLayer
 10
147.49999999999994
 20
390.00000000000006
 30
0.0
 40
2.5
  0
ARC
  5
A5
100
AcDbEntity
  8
ALU_X_A
 62
256
370
-1
  6
ByLayer
100
AcDbCircle
 10
147.49999999999994
 20
390.00000000000006
 30
0.0
 40
3.0000000000000155
100
AcDbArc
 50
350.40593177313957
 51
279.59406822686043
  0
CIRCLE
  5
A6
100
AcDbEntity
100
AcDbCircle
  8
ALU_X_A
 62
256
370
-1
  6
ByLayer
 10
192.49999999999991
 20
390.00000000000006
 30
0.0
 40
2.5
  0
ARC
  5
A7
100
AcDbEntity
  8
ALU_X_A
 62
256
370
-1
  6
ByLayer
100
AcDbCircle
 10
192.49999999999991
 20
390.00000000000006
 30
0.0
 40
3.0000000000000155
100
AcDbArc
 50
350.40593177313957
 51
279.59406822686043
  0
CIRCLE
  5
A8
100
AcDbEntity
100
AcDbCircle
  8
ALU_X_A
 62
256
370
-1
  6
ByLayer
 10
7.4999999999998721
 20
10.000000000000057
 30
0.0
 40
2.5
  0
ARC
  5
A9
100
AcDbEntity
  8
ALU_X_A
 62
256
370
-1
  6
ByLayer
100
AcDbCircle
 10
7.4999999999998721
 20
10.000000000000057
 30
0.0
 40
3.0000000000000155
100
AcDbArc
 50
350.40593177313957
 51
279.59406822686043
  0
CIRCLE
  5
AA
100
AcDbEntity
100
AcDbCircle
  8
ALU_X_A
 62
256
370
-1
  6
ByLayer
 10
52.499999999999844
 20
10.000000000000057
 30
0.0
 40
2.5
  0
ARC
  5
AB
100
AcDbEntity
  8
ALU_X_A
 62
256
370
-1
  6
ByLayer
100
AcDbCircle
 10
52.499999999999844
 20
10.000000000000057
 30
0.0
 40
3.0000000000000155
100
AcDbArc
 50
350.40593177313957
 51
279.59406822686043
  0
CIRCLE
  5
AC
100
AcDbEntity
100
AcDbCircle
  8
ALU_X_A
 62
256
370
-1
  6
ByLayer
 10
147.49999999999986
 20
10.000000000000057
 30
0.0
 40
2.5
  0
ARC
  5
AD
100
AcDbEntity
  8
ALU_X_A
 62
256
370
-1
  6
ByLayer
100
AcDbCircle
 10
147.49999999999986
 20
10.000000000000057
 30
0.0
 40
3.0000000000000155
100
AcDbArc
 50
350.40593177313957
 51
279.59406822686043
  0
CIRCLE
  5
AE
100
AcDbEntity
100
AcDbCircle
  8
ALU_X_A
 62
256
370
-1
  6
ByLayer
 10
192.49999999999983
 20
10.000000000000057
 30
0.0
 40
2.5
  0
ARC
  5
AF
100
AcDbEntity
  8
ALU_X_A
 62
256
370
-1
  6
ByLayer
100
AcDbCircle
 10
192.49999999999983
 20
10.000000000000057
 30
0.0
 40
3.0000000000000155
100
AcDbArc
 50
350.40593177313957
 51
279.59406822686043
  0
LINE
  5
B0
100
AcDbEntity
100
AcDbLine
  8
axe
 62
256
370
-1
  6
ByLayer
 10
47.499999999999936
 20
390.00000000000006
 30
0.0
 11
57.499999999999936
 21
390.00000000000006
 31
0.0
  0
LINE
  5
B1
100
AcDbEntity
100
AcDbLine
  8
axe
 62
256
370
-1
  6
ByLayer
 10
2.4999999999999645
 20
390.00000000000006
 30
0.0
 11
12.499999999999964
 21
390.00000000000006
 31
0.0
  0
LINE
  5
B2
100
AcDbEntity
100
AcDbLine
  8
axe
 62
256
370
-1
  6
ByLayer
 10
142.49999999999994
 20
390.00000000000006
 30
0.0
 11
152.49999999999994
 21
390.00000000000006
 31
0.0
  0
LINE
  5
B3
100
AcDbEntity
100
AcDbLine
  8
axe
 62
256
370
-1
  6
ByLayer
 10
187.49999999999994
 20
390.00000000000006
 30
0.0
 11
197.49999999999994
 21
390.00000000000006
 31
0.0
  0
LINE
  5
B4
100
AcDbEntity
100
AcDbLine
  8
axe
 62
256
370
-1
  6
ByLayer
 10
187.49999999999991
 20
10.000000000000004
 30
0.0
 11
197.49999999999991
 21
10.000000000000004
 31
0.0
  0
LINE
  5
B5
100
AcDbEntity
100
AcDbLine
  8
axe
 62
256
370
-1
  6
ByLayer
 10
142.49999999999991
 20
10.000000000000053
 30
0.0
 11
152.49999999999991
 21
10.000000000000053
 31
0.0
  0
LINE
  5
B6
100
AcDbEntity
100
AcDbLine
  8
axe
 62
256
370
-1
  6
ByLayer
 10
47.499999999999901
 20
10.000000000000032
 30
0.0
 11
57.499999999999901
 21
10.000000000000032
 31
0.0
  0
LINE
  5
B7
100
AcDbEntity
100
AcDbLine
  8
axe
 62
256
370
-1
  6
ByLayer
 10
2.4999999999998721
 20
10.000000000000082
 30
0.0
 11
12.499999999999872
 21
10.000000000000082
 31
0.0
  0
LINE
  5
B8
100
AcDbEntity
100
AcDbLine
  8
axe
 62
256
370
-1
  6
ByLayer
 10
76.99999999999801
 20
332.50000000000097
 30
0.0
 11
76.99999999999801
 21
342.50000000000097
 31
0.0
  0
CIRCLE
  5
B9
100
AcDbEntity
100
AcDbCircle
  8
ALU_X_A
 62
256
370
-1
  6
ByLayer
 10
76.99999999999801
 20
337.50000000000097
 30
0.0
 40
2.5
  0
ARC
  5
BA
100
AcDbEntity
  8
ALU_X_A
 62
256
370
-1
  6
ByLayer
100
AcDbCircle
 10
76.99999999999801
 20
337.50000000000097
 30
0.0
 40
3.0000000000000155
100
AcDbArc
 50
350.40593177313957
 51
279.59406822686043
  0
LINE
  5
BB
100
AcDbEntity
100
AcDbLine
  8
axe
 62
256
370
-1
  6
ByLayer
 10
71.99999999999801
 20
337.50000000000097
 30
0.0
 11
81.99999999999801
 21
337.50000000000097
 31
0.0
  0
LINE
  5
BC
100
AcDbEntity
100
AcDbLine
  8
axe
 62
256
370
-1
  6
ByLayer
 10
122.99999999999858
 20
332.50000000000097
 30
0.0
 11
122.99999999999858
 21
342.50000000000097
 31
0.0
  0
CIRCLE
  5
BD
100
AcDbEntity
100
AcDbCircle
  8
ALU_X_A
 62
256
370
-1
  6
ByLayer
 10
122.99999999999858
 20
337.50000000000097
 30
0.0
 40
2.5
  0
ARC
  5
BE
100
AcDbEntity
  8
ALU_X_A
 62
256
370
-1
  6
ByLayer
100
AcDbCircle
 10
122.99999999999858
 20
337.50000000000097
 30
0.0
 40
3.0000000000000155
100
AcDbArc
 50
350.40593177313957
 51
279.59406822686043
  0
LINE
  5
BF
100
AcDbEntity
100
AcDbLine
  8
axe
 62
256
370
-1
  6
ByLayer
 10
117.99999999999858
 20
337.50000000000097
 30
0.0
 11
127.99999999999858
 21
337.50000000000097
 31
0.0
  0
CIRCLE
  5
C0
100
AcDbEntity
100
AcDbCircle
  8
ALU_X_A
 62
256
370
-1
  6
ByLayer
 10
76.999999999998522
 20
76.500000000000966
 30
0.0
 40
2.5
  0
CIRCLE
  5
C1
100
AcDbEntity
100
AcDbCircle
  8
ALU_X_A
 62
256
370
-1
  6
ByLayer
 10
122.99999999999909
 20
76.500000000000966
 30
0.0
 40
2.5
  0
LINE
  5
C2
100
AcDbEntity
100
AcDbLine
  8
axe
 62
256
370
-1
  6
ByLayer
 10
76.999999999998522
 20
71.500000000000966
 30
0.0
 11
76.999999999998522
 21
81.500000000000966
 31
0.0
  0
CIRCLE
  5
C3
100
AcDbEntity
100
AcDbCircle
  8
ALU_X_A
 62
256
370
-1
  6
ByLayer
 10
76.999999999998522
 20
76.500000000000966
 30
0.0
 40
2.5
  0
ARC
  5
C4
100
AcDbEntity
  8
ALU_X_A
 62
256
370
-1
  6
ByLayer
100
AcDbCircle
 10
76.999999999998522
 20
76.500000000000966
 30
0.0
 40
3.0000000000000155
100
AcDbArc
 50
350.40593177313957
 51
279.59406822686043
  0
LINE
  5
C5
100
AcDbEntity
100
AcDbLine
  8
axe
 62
256
370
-1
  6
ByLayer
 10
71.999999999998522
 20
76.500000000000966
 30
0.0
 11
81.999999999998522
 21
76.500000000000966
 31
0.0
  0
LINE
  5
C6
100
AcDbEntity
100
AcDbLine
  8
axe
 62
256
370
-1
  6
ByLayer
 10
122.99999999999909
 20
71.500000000000966
 30
0.0
 11
122.99999999999909
 21
81.500000000000966
 31
0.0
  0
CIRCLE
  5
C7
100
AcDbEntity
100
AcDbCircle
  8
ALU_X_A
 62
256
370
-1
  6
ByLayer
 10
122.99999999999909
 20
76.500000000000966
 30
0.0
 40
2.5
  0
ARC
  5
C8
100
AcDbEntity
  8
ALU_X_A
 62
256
370
-1
  6
ByLayer
100
AcDbCircle
 10
122.99999999999909
 20
76.500000000000966
 30
0.0
 40
3.0000000000000155
100
AcDbArc
 50
350.40593177313957
 51
279.59406822686043
  0
LINE
  5
C9
100
AcDbEntity
100
AcDbLine
  8
axe
 62
256
370
-1
  6
ByLayer
 10
117.99999999999909
 20
76.500000000000966
 30
0.0
 11
127.99999999999909
 21
76.500000000000966
 31
0.0
  0
LINE
  5
CA
100
AcDbEntity
100
AcDbLine
  8
axe
 62
256
370
-1
  6
ByLayer
 10
125.99999999999901
 20
94.999999999999375
 30
0.0
 11
125.99999999999901
 21
104.99999999999937
 31
0.0
  0
LINE
  5
CB
100
AcDbEntity
100
AcDbLine
  8
axe
 62
256
370
-1
  6
ByLayer
 10
120.99999999999901
 20
99.999999999999375
 30
0.0
 11
130.99999999999901
 21
99.999999999999375
 31
0.0
  0
LINE
  5
CC
100
AcDbEntity
100
AcDbLine
  8
axe
 62
256
370
-1
  6
ByLayer
 10
125.99999999999905
 20
135.00000000000006
 30
0.0
 11
125.99999999999905
 21
145.00000000000006
 31
0.0
  0
LINE
  5
CD
100
AcDbEntity
100
AcDbLine
  8
axe
 62
256
370
-1
  6
ByLayer
 10
120.99999999999905
 20
140.00000000000006
 30
0.0
 11
130.99999999999903
 21
140.00000000000006
 31
0.0
  0
LINE
  5
CE
100
AcDbEntity
100
AcDbLine
  8
axe
 62
256
370
-1
  6
ByLayer
 10
19.999999999999993
 20
407.00000000000097
 30
0.0
 11
20.000000000000014
 21
367.00000000000097
 31
0.0
  0
LINE
  5
CF
100
AcDbEntity
100
AcDbLine
  8
cacher
 62
256
370
-1
  6
ByLayer
 10
17.500000000000007
 20
372.50000000000097
 30
0.0
 11
20.000000000000007
 21
371.0566243270269
 31
0.0
  0
LINE
  5
D0
100
AcDbEntity
100
AcDbLine
  8
cacher
 62
256
370
-1
  6
ByLayer
 10
20.000000000000007
 20
371.0566243270269
 30
0.0
 11
22.499999999999993
 21
372.50000000000097
 31
0.0
  0
LINE
  5
D1
100
AcDbEntity
100
AcDbLine
  8
cacher
 62
256
370
-1
  6
ByLayer
 10
16.999999999999993
 20
375.00000000000097
 30
0.0
 11
23.000000000000014
 21
375.00000000000097
 31
0.0
  0
LINE
  5
D2
100
AcDbEntity
100
AcDbLine
  8
cacher
 62
256
370
-1
  6
ByLayer
 10
16.999999999999993
 20
400.00000000000097
 30
0.0
 11
16.999999999999993
 21
375.00000000000097
 31
0.0
  0
LINE
  5
D3
100
AcDbEntity
100
AcDbLine
  8
cacher
 62
256
370
-1
  6
ByLayer
 10
23.000000000000014
 20
375.00000000000097
 30
0.0
 11
23.000000000000014
 21
400.00000000000097
 31
0.0
  0
LINE
  5
D4
100
AcDbEntity
100
AcDbLine
  8
cacher
 62
256
370
-1
  6
ByLayer
 10
17.500000000000036
 20
400.00000000000097
 30
0.0
 11
17.500000000000007
 21
372.50000000000097
 31
0.0
  0
LINE
  5
D5
100
AcDbEntity
100
AcDbLine
  8
cacher
 62
256
370
-1
  6
ByLayer
 10
22.499999999999993
 20
372.50000000000097
 30
0.0
 11
22.500000000000028
 21
400.00000000000097
 31
0.0
  0
LINE
  5
D6
100
AcDbEntity
100
AcDbLine
  8
axe
 62
256
370
-1
  6
ByLayer
 10
59.999999999999993
 20
407.00000000000097
 30
0.0
 11
60.000000000000014
 21
367.00000000000097
 31
0.0
  0
LINE
  5
D7
100
AcDbEntity
100
AcDbLine
  8
cacher
 62
256
370
-1
  6
ByLayer
 10
57.500000000000007
 20
372.50000000000097
 30
0.0
 11
60.000000000000007
 21
371.0566243270269
 31
0.0
  0
LINE
  5
D8
100
AcDbEntity
100
AcDbLine
  8
cacher
 62
256
370
-1
  6
ByLayer
 10
60.000000000000007
 20
371.0566243270269
 30
0.0
 11
62.499999999999993
 21
372.50000000000097
 31
0.0
  0
LINE
  5
D9
100
AcDbEntity
100
AcDbLine
  8
cacher
 62
256
370
-1
  6
ByLayer
 10
56.999999999999993
 20
375.00000000000097
 30
0.0
 11
63.000000000000014
 21
375.00000000000097
 31
0.0
  0
LINE
  5
DA
100
AcDbEntity
100
AcDbLine
  8
cacher
 62
256
370
-1
  6
ByLayer
 10
56.999999999999993
 20
400.00000000000097
 30
0.0
 11
56.999999999999993
 21
375.00000000000097
 31
0.0
  0
LINE
  5
DB
100
AcDbEntity
100
AcDbLine
  8
cacher
 62
256
370
-1
  6
ByLayer
 10
63.000000000000014
 20
375.00000000000097
 30
0.0
 11
63.000000000000014
 21
400.00000000000097
 31
0.0
  0
LINE
  5
DC
100
AcDbEntity
100
AcDbLine
  8
cacher
 62
256
370
-1
  6
ByLayer
 10
57.500000000000036
 20
400.00000000000097
 30
0.0
 11
57.500000000000007
 21
372.50000000000097
 31
0.0
  0
LINE
  5
DD
100
AcDbEntity
100
AcDbLine
  8
cacher
 62
256
370
-1
  6
ByLayer
 10
62.499999999999993
 20
372.50000000000097
 30
0.0
 11
62.500000000000028
 21
400.00000000000097
 31
0.0
  0
LINE
  5
DE
100
AcDbEntity
100
AcDbLine
  8
axe
 62
256
370
-1
  6
ByLayer
 10
140.0
 20
407.00000000000097
 30
0.0
 11
140.0
 21
367.00000000000097
 31
0.0
  0
LINE
  5
DF
100
AcDbEntity
100
AcDbLine
  8
cacher
 62
256
370
-1
  6
ByLayer
 10
137.5
 20
372.50000000000097
 30
0.0
 11
140.0
 21
371.0566243270269
 31
0.0
  0
LINE
  5
E0
100
AcDbEntity
100
AcDbLine
  8
cacher
 62
256
370
-1
  6
ByLayer
 10
140.0
 20
371.0566243270269
 30
0.0
 11
142.5
 21
372.50000000000097
 31
0.0
  0
LINE
  5
E1
100
AcDbEntity
100
AcDbLine
  8
cacher
 62
256
370
-1
  6
ByLayer
 10
137.0
 20
375.00000000000097
 30
0.0
 11
143.0
 21
375.00000000000097
 31
0.0
  0
LINE
  5
E2
100
AcDbEntity
100
AcDbLine
  8
cacher
 62
256
370
-1
  6
ByLayer
 10
137.0
 20
400.00000000000097
 30
0.0
 11
137.0
 21
375.00000000000097
 31
0.0
  0
LINE
  5
E3
100
AcDbEntity
100
AcDbLine
  8
cacher
 62
256
370
-1
  6
ByLayer
 10
143.0
 20
375.00000000000097
 30
0.0
 11
143.0
 21
400.00000000000097
 31
0.0
  0
LINE
  5
E4
100
AcDbEntity
100
AcDbLine
  8
cacher
 62
256
370
-1
  6
ByLayer
 10
137.50000000000003
 20
400.00000000000097
 30
0.0
 11
137.5
 21
372.50000000000097
 31
0.0
  0
LINE
  5
E5
100
AcDbEntity
100
AcDbLine
  8
cacher
 62
256
370
-1
  6
ByLayer
 10
142.5
 20
372.50000000000097
 30
0.0
 11
142.50000000000003
 21
400.00000000000097
 31
0.0
  0
LINE
  5
E6
100
AcDbEntity
100
AcDbLine
  8
axe
 62
256
370
-1
  6
ByLayer
 10
180.00000000000003
 20
407.00000000000097
 30
0.0
 11
180.00000000000003
 21
367.00000000000097
 31
0.0
  0
LINE
  5
E7
100
AcDbEntity
100
AcDbLine
  8
cacher
 62
256
370
-1
  6
ByLayer
 10
177.50000000000003
 20
372.50000000000097
 30
0.0
 11
180.00000000000003
 21
371.0566243270269
 31
0.0
  0
LINE
  5
E8
100
AcDbEntity
100
AcDbLine
  8
cacher
 62
256
370
-1
  6
ByLayer
 10
180.00000000000003
 20
371.0566243270269
 30
0.0
 11
182.50000000000003
 21
372.50000000000097
 31
0.0
  0
LINE
  5
E9
100
AcDbEntity
100
AcDbLine
  8
cacher
 62
256
370
-1
  6
ByLayer
 10
177.00000000000003
 20
375.00000000000097
 30
0.0
 11
183.00000000000003
 21
375.00000000000097
 31
0.0
  0
LINE
  5
EA
100
AcDbEntity
100
AcDbLine
  8
cacher
 62
256
370
-1
  6
ByLayer
 10
177.00000000000003
 20
400.00000000000097
 30
0.0
 11
177.00000000000003
 21
375.00000000000097
 31
0.0
  0
LINE
  5
EB
100
AcDbEntity
100
AcDbLine
  8
cacher
 62
256
370
-1
  6
ByLayer
 10
183.00000000000003
 20
375.00000000000097
 30
0.0
 11
183.00000000000003
 21
400.00000000000097
 31
0.0
  0
LINE
  5
EC
100
AcDbEntity
100
AcDbLine
  8
cacher
 62
256
370
-1
  6
ByLayer
 10
177.50000000000006
 20
400.00000000000097
 30
0.0
 11
177.50000000000003
 21
372.50000000000097
 31
0.0
  0
LINE
  5
ED
100
AcDbEntity
100
AcDbLine
  8
cacher
 62
256
370
-1
  6
ByLayer
 10
182.50000000000003
 20
372.50000000000097
 30
0.0
 11
182.50000000000006
 21
400.00000000000097
 31
0.0
  0
ENDSEC
  0
SECTION
  2
OBJECTS
  0
DICTIONARY
  5
C
100
AcDbDictionary
280
0
281
1
  3
ACAD_GROUP
350
D
  3
ACAD_LAYOUT
350
1A
  3
ACAD_MLINESTYLE
350
17
  3
ACAD_PLOTSETTINGS
350
19
  3
ACAD_PLOTSTYLENAME
350
E
  3
AcDbVariableDictionary
350
EE
  0
DICTIONARY
  5
D
100
AcDbDictionary
280
0
281
1
  0
ACDBDICTIONARYWDFLT
  5
E
100
AcDbDictionary
281
1
  3
Normal
350
F
100
AcDbDictionaryWithDefault
340
F
  0
ACDBPLACEHOLDER
  5
F
  0
DICTIONARY
  5
17
100
AcDbDictionary
280
0
281
1
  3
Standard
350
18
  0
MLINESTYLE
  5
18
100
AcDbMlineStyle
  2
STANDARD
 70
0
  3

 62
256
 51
90.0
 52
90.0
 71
2
 49
0.5
 62
256
  6
BYLAYER
 49
-0.5
 62
256
  6
BYLAYER
  0
DICTIONARY
  5
19
100
AcDbDictionary
280
0
281
1
  0
DICTIONARY
  5
1A
100
AcDbDictionary
281
1
  3
Layout1
350
1E
  3
Layout2
350
26
  3
Model
350
22
  0
LAYOUT
  5
1E
100
AcDbPlotSettings
  1

  2
C:\Program Files\AutoCAD 2002\plotters\DWF ePlot (optimized for plotting).pc3
  4

  6

 40
0.0
 41
0.0
 42
0.0
 43
0.0
 44
0.0
 45
0.0
 46
0.0
 47
0.0
 48
0.0
 49
0.0
140
0.0
141
0.0
142
1.0
143
1.0
 70
688
 72
0
 73
0
 74
5
  7

 75
16
147
1.0
148
0.0
149
0.0
100
AcDbLayout
  1
Layout1
 70
1
 71
1
 10
0.0
 20
0.0
 11
420.0
 21
297.0
 12
0.0
 22
0.0
 32
0.0
 14
100000000000000000000.0
 24
100000000000000000000.0
 34
100000000000000000000.0
 15
-100000000000000000000.0
 25
-100000000000000000000.0
 35
-100000000000000000000.0
146
0.0
 13
0.0
 23
0.0
 33
0.0
 16
1.0
 26
0.0
 36
0.0
 17
0.0
 27
1.0
 37
0.0
 76
0
330
1B
  0
LAYOUT
  5
22
100
AcDbPlotSettings
  1

  2
C:\Program Files\AutoCAD 2002\plotters\DWF ePlot (optimized for plotting).pc3
  4

  6

 40
0.0
 41
0.0
 42
0.0
 43
0.0
 44
0.0
 45
0.0
 46
0.0
 47
0.0
 48
0.0
 49
0.0
140
0.0
141
0.0
142
1.0
143
1.0
 70
1712
 72
0
 73
0
 74
0
  7

 75
0
147
1.0
148
0.0
149
0.0
100
AcDbLayout
  1
Model
 70
1
 71
0
 10
0.0
 20
0.0
 11
12.0
 21
9.0
 12
0.0
 22
0.0
 32
0.0
 14
0.0
 24
0.0
 34
0.0
 15
0.0
 25
0.0
 35
0.0
146
0.0
 13
0.0
 23
0.0
 33
0.0
 16
1.0
 26
0.0
 36
0.0
 17
0.0
 27
1.0
 37
0.0
 76
0
330
1F
  0
LAYOUT
  5
26
100
AcDbPlotSettings
  1

  2
C:\Program Files\AutoCAD 2002\plotters\DWF ePlot (optimized for plotting).pc3
  4

  6

 40
0.0
 41
0.0
 42
0.0
 43
0.0
 44
0.0
 45
0.0
 46
0.0
 47
0.0
 48
0.0
 49
0.0
140
0.0
141
0.0
142
1.0
143
1.0
 70
688
 72
0
 73
0
 74
5
  7

 75
16
147
1.0
148
0.0
149
0.0
100
AcDbLayout
  1
Layout2
 70
1
 71
2
 10
0.0
 20
0.0
 11
12.0
 21
9.0
 12
0.0
 22
0.0
 32
0.0
 14
0.0
 24
0.0
 34
0.0
 15
0.0
 25
0.0
 35
0.0
146
0.0
 13
0.0
 23
0.0
 33
0.0
 16
1.0
 26
0.0
 36
0.0
 17
0.0
 27
1.0
 37
0.0
 76
0
330
23
  0
DICTIONARY
  5
EE
100
AcDbDictionary
281
1
  3
DIMASSOC
350
F0
  3
HIDETEXT
350
EF
  0
DICTIONARYVAR
  5
EF
100
DictionaryVariables
280
0
  1
2
  0
DICTIONARYVAR
  5
F0
100
DictionaryVariables
280
0
  1
1
  0
ENDSEC
  0
EOF
